<svg xmlns="http://www.w3.org/2000/svg" width="341" height="292" viewBox="1 0 341 291" version="1.1"><title>add-to-cart</title><desc>Created with Sketch Beta.</desc><g stroke="none" stroke-width="1" fill="none" fill-rule="evenodd"><rect fill="#DBF3F2" x="0" y="0.6" width="341.9" height="290.9"/><path d="M15.2 32.3L15.2 23.7 13.7 23.7 13.7 32.3 15.2 32.3ZM25.3 32.3L25.3 23.7 23.8 23.7 23.8 29.6 19.4 23.7 17.9 23.7 17.9 32.3 19.4 32.3 19.4 26.1 23.8 32.3 25.3 32.3ZM31.4 32.3L31.4 25 34 25 34 23.7 27.3 23.7 27.3 25 29.9 25 29.9 32.3 31.4 32.3ZM42.7 32.3L41 32.3 39.1 29.1 37.6 29.1 37.6 32.3 36.1 32.3 36.1 23.7 39.9 23.7C41.5 23.7 42.7 24.8 42.7 26.4 42.7 27.9 41.7 28.7 40.6 28.9L42.7 32.3ZM39.7 27.8C40.5 27.8 41.1 27.2 41.1 26.4 41.1 25.6 40.5 25 39.7 25L37.6 25 37.6 27.8 39.7 27.8ZM49 32.4C46.4 32.4 44.6 30.5 44.6 28 44.6 25.4 46.4 23.6 49 23.6 51.5 23.6 53.3 25.4 53.3 28 53.3 30.5 51.5 32.4 49 32.4ZM49 31.1C50.7 31.1 51.8 29.8 51.8 28 51.8 26.2 50.7 24.9 49 24.9 47.2 24.9 46.1 26.2 46.1 28 46.1 29.8 47.2 31.1 49 31.1ZM63.2 32.3L63.2 25 65.8 25 65.8 23.7 59.1 23.7 59.1 25 61.7 25 61.7 32.3 63.2 32.3ZM71.6 32.4C69 32.4 67.2 30.5 67.2 28 67.2 25.4 69 23.6 71.6 23.6 74.1 23.6 75.9 25.4 75.9 28 75.9 30.5 74.1 32.4 71.6 32.4ZM71.6 31.1C73.3 31.1 74.4 29.8 74.4 28 74.4 26.2 73.3 24.9 71.6 24.9 69.8 24.9 68.7 26.2 68.7 28 68.7 29.8 69.8 31.1 71.6 31.1ZM90 32.3L88.3 32.3 87.7 30.6 83.7 30.6 83.1 32.3 81.4 32.3 84.8 23.7 86.6 23.7 90 32.3ZM87.2 29.3L85.7 25.2 84.2 29.3 87.2 29.3ZM95.4 32.4C97.1 32.4 98.2 31.5 98.8 30.5L97.5 29.8C97.1 30.5 96.3 31.1 95.4 31.1 93.7 31.1 92.4 29.8 92.4 28 92.4 26.2 93.7 24.9 95.4 24.9 96.3 24.9 97.1 25.4 97.5 26.1L98.8 25.5C98.2 24.5 97.1 23.6 95.4 23.6 92.9 23.6 90.9 25.4 90.9 28 90.9 30.6 92.9 32.4 95.4 32.4ZM107.5 32.3L105.7 32.3 103.8 29.1 102.3 29.1 102.3 32.3 100.8 32.3 100.8 23.7 104.6 23.7C106.3 23.7 107.4 24.8 107.4 26.4 107.4 27.9 106.4 28.7 105.4 28.9L107.5 32.3ZM104.4 27.8C105.2 27.8 105.9 27.2 105.9 26.4 105.9 25.6 105.2 25 104.4 25L102.3 25 102.3 27.8 104.4 27.8ZM113.4 32.3L113.4 28.7 116.7 23.7 115 23.7 112.7 27.4 110.3 23.7 108.6 23.7 111.9 28.7 111.9 32.3 113.4 32.3ZM123.6 32.3L123.6 30.9 119.8 30.9 119.8 23.7 118.3 23.7 118.3 32.3 123.6 32.3ZM127.2 32.3L127.2 23.7 125.7 23.7 125.7 32.3 127.2 32.3ZM134 32.4C135.7 32.4 136.8 31.5 137.4 30.5L136.1 29.8C135.7 30.5 134.9 31.1 134 31.1 132.3 31.1 131 29.8 131 28 131 26.2 132.3 24.9 134 24.9 134.9 24.9 135.7 25.4 136.1 26.1L137.4 25.5C136.8 24.5 135.7 23.6 134 23.6 131.4 23.6 129.5 25.4 129.5 28 129.5 30.6 131.4 32.4 134 32.4ZM145 32.3L143.5 32.3 143.5 23.7 147.3 23.7C149.1 23.7 150.1 24.9 150.1 26.4 150.1 27.8 149.1 29.1 147.3 29.1L145 29.1 145 32.3ZM147.1 27.7C147.9 27.7 148.5 27.2 148.5 26.4 148.5 25.6 147.9 25 147.1 25L145 25 145 27.7 147.1 27.7ZM158.9 32.3L157.2 32.3 156.5 30.6 152.6 30.6 152 32.3 150.3 32.3 153.6 23.7 155.5 23.7 158.9 32.3ZM156.1 29.3L154.6 25.2 153 29.3 156.1 29.3ZM162.1 32.3L162.1 23.7 160.6 23.7 160.6 32.3 162.1 32.3ZM172.1 32.3L172.1 23.7 170.6 23.7 170.6 29.6 166.3 23.7 164.7 23.7 164.7 32.3 166.2 32.3 166.2 26.1 170.7 32.3 172.1 32.3ZM178.3 32.3L178.3 25 180.9 25 180.9 23.7 174.2 23.7 174.2 25 176.8 25 176.8 32.3 178.3 32.3ZM184.5 32.3L184.5 23.7 183 23.7 183 32.3 184.5 32.3ZM194.5 32.3L194.5 23.7 193 23.7 193 29.6 188.6 23.7 187.1 23.7 187.1 32.3 188.6 32.3 188.6 26.1 193 32.3 194.5 32.3ZM201.2 32.4C202.7 32.4 203.9 31.8 204.8 30.9L204.8 27.7 200.7 27.7 200.7 29 203.3 29 203.3 30.3C202.9 30.7 202.1 31.1 201.2 31.1 199.5 31.1 198.3 29.8 198.3 28 198.3 26.2 199.5 24.9 201.2 24.9 202.2 24.9 203 25.4 203.5 26L204.7 25.3C204 24.4 202.9 23.6 201.2 23.6 198.7 23.6 196.7 25.3 196.7 28 196.7 30.7 198.7 32.4 201.2 32.4ZM215.3 32.4C217.1 32.4 218.1 31.5 218.8 30.5L217.5 29.8C217.1 30.5 216.3 31.1 215.3 31.1 213.7 31.1 212.4 29.8 212.4 28 212.4 26.2 213.7 24.9 215.3 24.9 216.3 24.9 217.1 25.4 217.5 26.1L218.8 25.5C218.1 24.5 217.1 23.6 215.3 23.6 212.8 23.6 210.9 25.4 210.9 28 210.9 30.6 212.8 32.4 215.3 32.4ZM225.9 32.3L225.9 30.9 222.2 30.9 222.2 23.7 220.7 23.7 220.7 32.3 225.9 32.3ZM235.8 32.3L234.1 32.3 233.4 30.6 229.5 30.6 228.9 32.3 227.2 32.3 230.5 23.7 232.4 23.7 235.8 32.3ZM233 29.3L231.5 25.2 229.9 29.3 233 29.3ZM240.3 32.4C242.6 32.4 243.6 31.2 243.6 29.8 243.6 26.6 238.6 27.6 238.6 26 238.6 25.3 239.2 24.9 240.1 24.9 241 24.9 241.9 25.2 242.6 25.9L243.4 24.8C242.6 24 241.5 23.6 240.2 23.6 238.3 23.6 237.1 24.7 237.1 26.1 237.1 29.2 242.1 28.1 242.1 29.9 242.1 30.5 241.6 31.1 240.4 31.1 239.2 31.1 238.2 30.5 237.7 29.9L236.8 31.1C237.6 31.9 238.7 32.4 240.3 32.4ZM248.7 32.4C251 32.4 252 31.2 252 29.8 252 26.6 247.1 27.6 247.1 26 247.1 25.3 247.6 24.9 248.5 24.9 249.4 24.9 250.3 25.2 251 25.9L251.8 24.8C251 24 250 23.6 248.6 23.6 246.8 23.6 245.5 24.7 245.5 26.1 245.5 29.2 250.5 28.1 250.5 29.9 250.5 30.5 250 31.1 248.8 31.1 247.6 31.1 246.7 30.5 246.1 29.9L245.2 31.1C246 31.9 247.2 32.4 248.7 32.4Z" fill="#4A4A4A"/><rect fill="#DBDBDB" x="15" y="94.1" width="314.5" height="47.2"/><polygon fill="#525252" transform="translate(301.452575, 119.844873) rotate(180.000000) translate(-301.452575, -119.844873) " points="301.5 111.2 310.1 128.5 292.8 128.5"/><path d="M21.9 74.6L21.9 72.4C19.3 72.2 17.3 71.1 16.1 69.7L17.3 68C18.3 69.2 19.9 70.2 21.9 70.4L21.9 64.2C19.3 63.5 16.6 62.6 16.6 59.5 16.6 56.8 18.8 54.9 21.9 54.7L21.9 52.4 23.5 52.4 23.5 54.7C25.6 54.9 27.3 55.8 28.6 57.1L27.3 58.7C26.2 57.5 24.9 56.9 23.5 56.7L23.5 62.3C26.1 63 28.9 64 28.9 67.4 28.9 69.7 27.5 72.1 23.5 72.4L23.5 74.6 21.9 74.6ZM26.7 67.5C26.7 65.8 25.3 65.1 23.5 64.6L23.5 70.5C25.9 70.2 26.7 68.7 26.7 67.5ZM18.8 59.3C18.8 60.7 20.2 61.3 21.9 61.9L21.9 56.6C20.1 56.8 18.8 57.8 18.8 59.3ZM36.9 72.1L36.9 55 35 55 30.7 59.4 32 60.7 34.7 57.8 34.7 72.1 36.9 72.1ZM45.8 72.4C43.6 72.4 42.1 71.5 41 70.3L42.1 68.7C43 69.7 44 70.5 45.8 70.5 49.2 70.5 50.6 67 50.6 63.7 50.6 63.5 50.6 63.3 50.6 63.1 49.8 64.2 47.9 65.7 45.7 65.7 42.7 65.7 40.1 63.9 40.1 60.3 40.1 57.3 42.4 54.7 46.1 54.7 50.9 54.7 52.7 58.9 52.7 63.5 52.7 68.1 50.6 72.4 45.8 72.4ZM46.2 63.9C47.9 63.9 49.6 62.8 50.5 61.3 50.3 59.2 49.2 56.6 46.2 56.6 43.6 56.6 42.3 58.6 42.3 60.2 42.3 62.7 44 63.9 46.2 63.9ZM57 72.3C57.7 72.3 58.4 71.7 58.4 70.9 58.4 70.1 57.7 69.5 57 69.5 56.2 69.5 55.6 70.1 55.6 70.9 55.6 71.7 56.2 72.3 57 72.3ZM66.9 72.4C64.7 72.4 63.2 71.5 62.1 70.3L63.2 68.7C64.1 69.7 65.1 70.5 66.9 70.5 70.3 70.5 71.7 67 71.7 63.7 71.7 63.5 71.7 63.3 71.6 63.1 70.9 64.2 69 65.7 66.8 65.7 63.7 65.7 61.2 63.9 61.2 60.3 61.2 57.3 63.5 54.7 67.2 54.7 72 54.7 73.8 58.9 73.8 63.5 73.8 68.1 71.6 72.4 66.9 72.4ZM67.3 63.9C69 63.9 70.7 62.8 71.6 61.3 71.4 59.2 70.3 56.6 67.3 56.6 64.7 56.6 63.4 58.6 63.4 60.2 63.4 62.7 65.1 63.9 67.3 63.9ZM82 72.4C79.8 72.4 78.3 71.5 77.3 70.3L78.3 68.7C79.2 69.7 80.2 70.5 82 70.5 85.5 70.5 86.8 67 86.8 63.7 86.8 63.5 86.8 63.3 86.8 63.1 86.1 64.2 84.2 65.7 82 65.7 78.9 65.7 76.4 63.9 76.4 60.3 76.4 57.3 78.6 54.7 82.4 54.7 87.1 54.7 89 58.9 89 63.5 89 68.1 86.8 72.4 82 72.4ZM82.5 63.9C84.2 63.9 85.8 62.8 86.8 61.3 86.6 59.2 85.4 56.6 82.4 56.6 79.8 56.6 78.5 58.6 78.5 60.2 78.5 62.7 80.3 63.9 82.5 63.9ZM103.8 66.7L103.8 65 97.7 65 97.7 66.7 103.8 66.7ZM118.2 74.6L118.2 72.4C115.6 72.2 113.6 71.1 112.4 69.7L113.6 68C114.6 69.2 116.2 70.2 118.2 70.4L118.2 64.2C115.6 63.5 112.9 62.6 112.9 59.5 112.9 56.8 115.1 54.9 118.2 54.7L118.2 52.4 119.8 52.4 119.8 54.7C121.9 54.9 123.6 55.8 124.8 57.1L123.6 58.7C122.5 57.5 121.2 56.9 119.8 56.7L119.8 62.3C122.4 63 125.2 64 125.2 67.4 125.2 69.7 123.7 72.1 119.8 72.4L119.8 74.6 118.2 74.6ZM123 67.5C123 65.8 121.6 65.1 119.8 64.6L119.8 70.5C122.2 70.2 123 68.7 123 67.5ZM115.1 59.3C115.1 60.7 116.5 61.3 118.2 61.9L118.2 56.6C116.4 56.8 115.1 57.8 115.1 59.3ZM134.2 72.4C137.6 72.4 140.3 70.2 140.3 66.7 140.3 63.2 137.7 61.3 134.8 61.3 133.1 61.3 131.7 62 130.8 62.8L130.8 56.9 139.2 56.9 139.2 55 128.7 55 128.7 64.2 130.3 64.7C131.4 63.6 132.7 63.1 134.2 63.1 136.5 63.1 138.1 64.6 138.1 66.8 138.1 68.9 136.5 70.5 134.2 70.5 132.1 70.5 130.6 69.7 129.5 68.2L128.2 69.6C129.4 71.3 131.3 72.4 134.2 72.4ZM148.4 72.4C152.2 72.4 154.5 70.3 154.5 67.5 154.5 64.7 152.1 63.4 150.5 63.2 152.1 63 154.2 61.7 154.2 59.2 154.2 56.4 151.7 54.7 148.4 54.7 145.8 54.7 143.8 55.8 142.6 57.3L143.8 58.7C145 57.3 146.4 56.6 148.3 56.6 150.3 56.6 152.1 57.6 152.1 59.5 152.1 61.5 150.3 62.3 148.1 62.3 147.4 62.3 146.6 62.3 146.3 62.3L146.3 64.3C146.6 64.2 147.4 64.2 148.1 64.2 150.6 64.2 152.4 65.1 152.4 67.3 152.4 69.2 150.9 70.5 148.4 70.5 146.3 70.5 144.6 69.6 143.6 68.2L142.3 69.6C143.4 71.1 145.5 72.4 148.4 72.4ZM158.8 72.3C159.6 72.3 160.2 71.7 160.2 70.9 160.2 70.1 159.6 69.5 158.8 69.5 158.1 69.5 157.4 70.1 157.4 70.9 157.4 71.7 158.1 72.3 158.8 72.3ZM168.7 72.4C166.5 72.4 165 71.5 164 70.3L165 68.7C165.9 69.7 166.9 70.5 168.7 70.5 172.2 70.5 173.5 67 173.5 63.7 173.5 63.5 173.5 63.3 173.5 63.1 172.8 64.2 170.9 65.7 168.7 65.7 165.6 65.7 163.1 63.9 163.1 60.3 163.1 57.3 165.3 54.7 169.1 54.7 173.8 54.7 175.7 58.9 175.7 63.5 175.7 68.1 173.5 72.4 168.7 72.4ZM169.2 63.9C170.9 63.9 172.5 62.8 173.5 61.3 173.2 59.2 172.1 56.6 169.1 56.6 166.5 56.6 165.2 58.6 165.2 60.2 165.2 62.7 167 63.9 169.2 63.9ZM184.4 72.4C181 72.4 178.3 70.7 178.3 67.7 178.3 65.5 180.3 63.9 182.4 63.2 180.4 62.7 178.6 61.4 178.6 59.1 178.6 56.1 181.6 54.7 184.4 54.7 187.3 54.7 190.3 56.1 190.3 59.1 190.3 61.4 188.5 62.7 186.5 63.2 188.6 63.9 190.6 65.5 190.6 67.7 190.6 70.6 187.8 72.4 184.4 72.4ZM184.4 62.4C185.5 62.2 188.2 61.5 188.2 59.4 188.2 57.7 186.5 56.6 184.4 56.6 182.4 56.6 180.7 57.7 180.7 59.4 180.7 61.5 183.4 62.2 184.4 62.4ZM184.4 70.5C186.5 70.5 188.4 69.4 188.4 67.5 188.4 65.3 185.5 64.3 184.4 64.2 183.4 64.3 180.5 65.3 180.5 67.5 180.5 69.4 182.3 70.5 184.4 70.5Z" fill="#525252"/><rect fill="#0BA2B0" x="15" y="158.3" width="314.5" height="49.3"/><path d="M124.5 189.8L116.8 189.8 116.8 175.8 124.2 175.8C126.9 175.8 128.3 177.5 128.3 179.3 128.3 181.1 127.2 182.3 125.9 182.6 127.4 182.8 128.6 184.3 128.6 186 128.6 188.1 127.2 189.8 124.5 189.8ZM123.6 181.4C124.6 181.4 125.2 180.8 125.2 179.9 125.2 179 124.6 178.4 123.6 178.4L119.8 178.4 119.8 181.4 123.6 181.4ZM123.7 187.2C124.8 187.2 125.5 186.6 125.5 185.6 125.5 184.7 124.9 184 123.7 184L119.8 184 119.8 187.2 123.7 187.2ZM138.9 190.1C143.2 190.1 145.3 187.7 145.3 184.2L145.3 175.8 142.2 175.8 142.2 184.1C142.2 186.1 141.1 187.4 138.9 187.4 136.7 187.4 135.6 186.1 135.6 184.1L135.6 175.8 132.6 175.8 132.6 184.2C132.6 187.7 134.6 190.1 138.9 190.1ZM156.7 189.8L156.7 184.1 162.1 175.8 158.7 175.8 155.2 181.4 151.8 175.8 148.3 175.8 153.7 184.1 153.7 189.8 156.7 189.8ZM185 189.8L185 175.8 182 175.8 182 184.6 175.5 175.8 172.4 175.8 172.4 189.8 175.4 189.8 175.4 180.7 182.1 189.8 185 189.8ZM196.2 190.1C191.9 190.1 188.8 187.1 188.8 182.8 188.8 178.6 191.9 175.5 196.2 175.5 200.4 175.5 203.6 178.6 203.6 182.8 203.6 187.1 200.4 190.1 196.2 190.1ZM196.2 187.4C198.8 187.4 200.5 185.4 200.5 182.8 200.5 180.2 198.8 178.2 196.2 178.2 193.6 178.2 191.9 180.2 191.9 182.8 191.9 185.4 193.6 187.4 196.2 187.4ZM220.9 189.8L225 175.8 221.6 175.8 219.1 185.9 216.5 175.8 214.1 175.8 211.5 185.9 209 175.8 205.6 175.8 209.7 189.8 212.8 189.8 215.3 180.2 217.8 189.8 220.9 189.8Z" fill="#FFFFFF"/><path d="M328.4 271.8L329.4 270.8 328.4 270.8 328.4 271.8ZM16 270.8L328.4 270.8 328.4 223.4 16 223.4 16 270.8ZM15 222.4L329.4 222.4 329.4 271.8 15 271.8 15 222.4Z" fill="#0BA2B0" fill-rule="nonzero"/><path d="M70.5 254.4C74.3 254.4 76.2 252.4 76.2 249.9 76.2 244.6 68.1 246.1 68.1 243.9 68.1 243.1 68.8 242.5 70.1 242.5 71.5 242.5 73 243 74.2 244L75.8 241.8C74.4 240.5 72.6 239.8 70.4 239.8 67 239.8 65 241.8 65 244.1 65 249.4 73.1 247.7 73.1 250.2 73.1 251 72.3 251.7 70.7 251.7 68.7 251.7 67.2 250.8 66.2 249.8L64.5 252.2C65.9 253.5 67.8 254.4 70.5 254.4ZM93.2 254.1L89.8 254.1 88.9 251.8 82.9 251.8 82 254.1 78.6 254.1 84 240.1 87.8 240.1 93.2 254.1ZM88.1 249.1L85.9 243.1 83.7 249.1 88.1 249.1ZM103.3 254.1L108.8 240.1 105.4 240.1 101.5 250.9 97.6 240.1 94.2 240.1 99.6 254.1 103.3 254.1ZM122.1 254.1L122.1 251.5 115.2 251.5 115.2 248.3 122 248.3 122 245.7 115.2 245.7 115.2 242.7 122.1 242.7 122.1 240.1 112.2 240.1 112.2 254.1 122.1 254.1ZM140.4 254.1L140.4 242.7 144.5 242.7 144.5 240.1 133.3 240.1 133.3 242.7 137.4 242.7 137.4 254.1 140.4 254.1ZM154.7 254.4C150.4 254.4 147.3 251.4 147.3 247.1 147.3 242.9 150.4 239.8 154.7 239.8 158.9 239.8 162 242.9 162 247.1 162 251.4 158.9 254.4 154.7 254.4ZM154.7 251.7C157.3 251.7 159 249.7 159 247.1 159 244.5 157.3 242.5 154.7 242.5 152.1 242.5 150.4 244.5 150.4 247.1 150.4 249.7 152.1 251.7 154.7 251.7ZM187.8 254.1L191.8 240.1 188.4 240.1 185.9 250.2 183.3 240.1 180.9 240.1 178.3 250.2 175.8 240.1 172.4 240.1 176.5 254.1 179.7 254.1 182.1 244.5 184.6 254.1 187.8 254.1ZM198.3 254.1L198.3 240.1 195.3 240.1 195.3 254.1 198.3 254.1ZM208.2 254.4C212 254.4 213.8 252.4 213.8 249.9 213.8 244.6 205.8 246.1 205.8 243.9 205.8 243.1 206.5 242.5 207.7 242.5 209.2 242.5 210.7 243 211.8 244L213.5 241.8C212.1 240.5 210.3 239.8 208 239.8 204.7 239.8 202.7 241.8 202.7 244.1 202.7 249.4 210.8 247.7 210.8 250.2 210.8 251 210 251.7 208.3 251.7 206.4 251.7 204.8 250.8 203.9 249.8L202.2 252.2C203.5 253.5 205.5 254.4 208.2 254.4ZM230.6 254.1L230.6 240.1 227.6 240.1 227.6 245.6 221 245.6 221 240.1 218 240.1 218 254.1 221 254.1 221 248.2 227.6 248.2 227.6 254.1 230.6 254.1ZM244.3 254.1L244.3 251.5 238.4 251.5 238.4 240.1 235.4 240.1 235.4 254.1 244.3 254.1ZM251.5 254.1L251.5 240.1 248.5 240.1 248.5 254.1 251.5 254.1ZM261.4 254.4C265.2 254.4 267 252.4 267 249.9 267 244.6 258.9 246.1 258.9 243.9 258.9 243.1 259.7 242.5 260.9 242.5 262.4 242.5 263.9 243 265 244L266.7 241.8C265.3 240.5 263.4 239.8 261.2 239.8 257.9 239.8 255.9 241.8 255.9 244.1 255.9 249.4 264 247.7 264 250.2 264 251 263.2 251.7 261.5 251.7 259.6 251.7 258 250.8 257 249.8L255.4 252.2C256.7 253.5 258.7 254.4 261.4 254.4ZM277.4 254.1L277.4 242.7 281.5 242.7 281.5 240.1 270.3 240.1 270.3 242.7 274.4 242.7 274.4 254.1 277.4 254.1Z" fill="#0BA2B0"/><path d="M32.8 123.2C35.8 123.2 36.9 121.5 36.9 119.8 36.9 115.6 30.2 117.1 30.2 114.6 30.2 113.5 31.2 112.8 32.5 112.8 33.8 112.8 35 113.2 35.8 114.1L36.7 113.1C35.7 112.1 34.4 111.5 32.7 111.5 30.4 111.5 28.8 112.8 28.8 114.6 28.8 118.7 35.5 117 35.5 119.9 35.5 120.8 34.8 121.9 32.8 121.9 31.2 121.9 30 121.1 29.3 120.3L28.4 121.4C29.4 122.4 30.8 123.2 32.8 123.2ZM42.6 123.2C40.2 123.2 38.5 121.4 38.5 118.9 38.5 116.5 40.2 114.6 42.5 114.6 45 114.6 46.4 116.5 46.4 119L46.4 119.3 39.8 119.3C39.9 120.8 41 122.1 42.7 122.1 43.7 122.1 44.6 121.7 45.3 121.1L45.9 121.9C45.1 122.7 44 123.2 42.6 123.2ZM45.2 118.3C45.1 117.1 44.3 115.6 42.5 115.6 40.7 115.6 39.9 117.1 39.8 118.3L45.2 118.3ZM49.7 123L49.7 111.7 48.5 111.7 48.5 123 49.7 123ZM55.9 123.2C53.5 123.2 51.8 121.4 51.8 118.9 51.8 116.5 53.5 114.6 55.8 114.6 58.3 114.6 59.7 116.5 59.7 119L59.7 119.3 53.1 119.3C53.2 120.8 54.3 122.1 56.1 122.1 57 122.1 57.9 121.7 58.6 121.1L59.2 121.9C58.4 122.7 57.3 123.2 55.9 123.2ZM58.5 118.3C58.4 117.1 57.6 115.6 55.8 115.6 54 115.6 53.2 117.1 53.1 118.3L58.5 118.3ZM65.4 123.2C66.8 123.2 67.7 122.5 68.3 121.7L67.5 121C67 121.7 66.3 122 65.4 122 63.7 122 62.6 120.7 62.6 118.9 62.6 117.1 63.7 115.7 65.4 115.7 66.3 115.7 67 116 67.5 116.8L68.3 116C67.7 115.2 66.8 114.6 65.4 114.6 62.9 114.6 61.3 116.5 61.3 118.9 61.3 121.3 62.9 123.2 65.4 123.2ZM72.2 123.2C72.9 123.2 73.4 122.9 73.7 122.6L73.3 121.7C73.2 121.9 72.8 122 72.5 122 71.9 122 71.7 121.6 71.7 121L71.7 115.9 73.3 115.9 73.3 114.8 71.7 114.8 71.7 112.6 70.4 112.6 70.4 114.8 69 114.8 69 115.9 70.4 115.9 70.4 121.2C70.4 122.5 71 123.2 72.2 123.2Z" fill="#525252"/><polygon fill="#525252" fill-rule="nonzero" points="306.3 55.6 322.9 72.3 324.4 70.7 307.8 54.1"/><polygon fill="#525252" fill-rule="nonzero" points="322.9 54.1 306.3 70.7 307.8 72.3 324.4 55.6"/></g></svg>