<svg xmlns="http://www.w3.org/2000/svg" width="16" height="22" viewBox="0 0 16 22" version="1.1"><title>angellist</title><desc>Created with Sketch Beta.</desc><g stroke="none" stroke-width="1" fill="none" fill-rule="evenodd"><g transform="translate(-418.000000, -139.000000)" fill="#221F20"><g transform="translate(263.000000, 59.000000)"><g transform="translate(0.000000, 80.000000)"><path d="M166.8 9.1C167.4 7.3 168 5.8 168.3 4.6 168.7 3.4 168.9 2.7 168.9 2.4 168.9 2.1 168.8 1.9 168.7 1.7 168.6 1.5 168.4 1.5 168.2 1.5 167.9 1.5 167.6 1.7 167.3 2.2 167 2.6 166.7 3.4 166.4 4.4L164.9 8.8 166.8 9.1ZM164.7 13.2C164.3 13.2 163.9 13.1 163.5 13.1 163.1 13 162.8 12.9 162.4 12.8 162.6 13.1 162.7 13.4 162.8 13.7 163 14 163.1 14.4 163.1 14.7 163.4 14.4 163.6 14.1 163.9 13.8 164.2 13.6 164.5 13.4 164.7 13.2L164.7 13.2ZM163 8.6L161.4 3.9C161 2.7 160.7 1.9 160.4 1.5 160.2 1.2 159.9 1 159.7 1 159.5 1 159.3 1.1 159.2 1.2 159 1.4 159 1.6 159 1.9 159 2.4 159.1 3.2 159.5 4.3 159.8 5.5 160.4 7 161.1 8.8 161.1 8.7 161.2 8.6 161.3 8.6 161.4 8.5 161.6 8.5 161.8 8.5 161.8 8.5 162 8.5 162.1 8.5 162.3 8.5 162.6 8.6 163 8.6L163 8.6ZM161.6 15.9C161.7 15.9 161.9 15.8 162 15.7 162.2 15.5 162.2 15.4 162.2 15.2 162.2 15 162.1 14.5 161.8 13.8 161.5 13.1 161.2 12.4 160.8 11.8 160.5 11.3 160.2 10.9 159.9 10.6 159.6 10.4 159.3 10.2 159.1 10.2 158.9 10.2 158.6 10.4 158.4 10.6 158.1 10.9 158 11.2 158 11.4 158 11.6 158.1 12 158.4 12.5 158.6 13 158.9 13.5 159.4 14 159.8 14.6 160.2 15.1 160.6 15.4 161 15.7 161.3 15.9 161.6 15.9L161.6 15.9ZM157 15.5C157.2 15.7 157.4 16 157.6 16.3 158.3 17.2 158.9 17.7 159.5 17.7 159.6 17.7 159.8 17.6 160 17.5 160.1 17.4 160.2 17.3 160.2 17.1 160.2 17 160.1 16.7 159.9 16.4 159.7 16 159.4 15.6 159.1 15.2 158.7 14.7 158.3 14.3 158.1 14 157.8 13.8 157.6 13.7 157.4 13.7 157.1 13.7 156.7 13.9 156.4 14.3 156.1 14.6 156 15.1 156 15.6 156 16 156.1 16.5 156.3 17 156.5 17.5 156.8 18 157.2 18.5 157.8 19.3 158.5 19.9 159.4 20.3 160.3 20.8 161.3 21 162.3 21 164.3 21 166 20.3 167.3 18.8 168.6 17.3 169.3 15.5 169.3 13.3 169.3 12.6 169.2 12.1 169.1 11.7 169 11.3 168.8 11 168.6 10.8 168.2 10.5 167.4 10.2 166.2 9.9 165 9.6 163.8 9.5 162.5 9.5 162.1 9.5 161.8 9.5 161.7 9.7 161.5 9.8 161.5 10 161.5 10.3 161.5 11 161.8 11.5 162.6 11.8 163.4 12.1 164.6 12.2 166.3 12.2L167 12.2C167.1 12.2 167.2 12.3 167.3 12.4 167.4 12.5 167.4 12.6 167.5 12.9 167.3 13 166.9 13.2 166.4 13.4 165.9 13.6 165.5 13.8 165.2 14 164.6 14.5 164.1 15 163.7 15.6 163.4 16.2 163.2 16.8 163.2 17.3 163.2 17.7 163.3 18.1 163.4 18.5 163.6 19 163.6 19.3 163.6 19.4L163.6 19.5 163.6 19.6C163.2 19.6 162.8 19.4 162.6 18.9 162.3 18.4 162.2 17.7 162.2 16.9L162.2 16.8C162.1 16.8 162 16.9 161.9 16.9 161.9 17 161.8 17 161.7 17 161.6 17 161.5 17 161.4 16.9 161.4 16.9 161.3 16.9 161.2 16.9 161.2 17 161.2 17.1 161.2 17.2 161.2 17.3 161.3 17.4 161.3 17.5 161.3 17.8 161.1 18.1 160.8 18.4 160.5 18.7 160.2 18.8 159.8 18.8 159.1 18.8 158.5 18.5 157.8 17.9 157.2 17.3 156.9 16.7 156.9 16.1 156.9 16 156.9 15.9 156.9 15.8 156.9 15.7 157 15.6 157 15.5L157 15.5ZM167.8 9.4C168.8 9.6 169.4 9.9 169.8 10.5 170.1 11.1 170.3 12.1 170.3 13.3 170.3 15.9 169.6 18 168 19.6 166.5 21.2 164.6 22 162.2 22 161.2 22 160.3 21.8 159.4 21.5 158.6 21.2 157.8 20.7 157.2 20.1 156.5 19.4 155.9 18.7 155.5 18 155.2 17.2 155 16.5 155 15.7 155 14.8 155.2 14.2 155.6 13.7 155.9 13.2 156.5 12.9 157.3 12.7 157.2 12.4 157.1 12.1 157 11.8 156.9 11.6 156.9 11.4 156.9 11.3 156.9 10.8 157.1 10.4 157.6 9.9 158.1 9.4 158.5 9.2 159 9.2 159.1 9.2 159.3 9.2 159.5 9.3 159.7 9.3 160 9.4 160.2 9.6 159.5 7.4 158.9 5.7 158.5 4.5 158.2 3.3 158 2.5 158 2 158 1.4 158.2 0.9 158.5 0.6 158.8 0.2 159.3 0 159.8 0 160.8 0 162 2.1 163.4 6.3 163.7 7.1 163.8 7.6 164 8 164.1 7.7 164.2 7.3 164.4 6.7 165.9 2.5 167.1 0.4 168.2 0.4 168.7 0.4 169.1 0.6 169.4 0.9 169.7 1.3 169.9 1.7 169.9 2.3 169.9 2.8 169.7 3.6 169.4 4.8 169 5.9 168.5 7.5 167.8 9.4L167.8 9.4Z"/></g></g></g></g></svg>