<svg xmlns="http://www.w3.org/2000/svg" width="599" height="97" viewBox="0 0 599 97" version="1.1"><title>Previous font sizes.</title><desc>This image shows Brit + Co's existing font sizes laid out on a scale.</desc><g stroke="none" stroke-width="1" fill="none" fill-rule="evenodd"><path d="M0.3 59L597 59" stroke="#DCE8FA" stroke-width="2" stroke-linecap="square"/><text font-family="inherit" font-size="22" font-weight="300" line-spacing="32" fill="#202020"><tspan x="4.3" y="22">12</tspan></text><text font-family="inherit" font-size="22" font-weight="300" line-spacing="32" fill="#202020"><tspan x="46.1" y="102">14</tspan></text><text font-family="inherit" font-size="22" font-weight="300" line-spacing="32" fill="#202020"><tspan x="66" y="22">15</tspan></text><text font-family="inherit" font-size="22" font-weight="300" line-spacing="32" fill="#202020"><tspan x="87.5" y="102">16</tspan></text><text font-family="inherit" font-size="22" font-weight="300" line-spacing="32" fill="#202020"><tspan x="107.2" y="22">17</tspan></text><text font-family="inherit" font-size="22" font-weight="300" line-spacing="32" fill="#202020"><tspan x="126.4" y="102">18</tspan></text><text font-family="inherit" font-size="22" font-weight="300" line-spacing="32" fill="#202020"><tspan x="167.1" y="22">20</tspan></text><text font-family="inherit" font-size="22" font-weight="300" line-spacing="32" fill="#202020"><tspan x="208.1" y="102">22</tspan></text><text font-family="inherit" font-size="22" font-weight="300" line-spacing="32" fill="#202020"><tspan x="247.5" y="22">24</tspan></text><text font-family="inherit" font-size="22" font-weight="300" line-spacing="32" fill="#202020"><tspan x="286.3" y="102">26</tspan></text><text font-family="inherit" font-size="22" font-weight="300" line-spacing="32" fill="#202020"><tspan x="310.1" y="22">27</tspan></text><text font-family="inherit" font-size="22" font-weight="300" line-spacing="32" fill="#202020"><tspan x="408.3" y="22">32</tspan></text><text font-family="inherit" font-size="22" font-weight="300" line-spacing="32" fill="#202020"><tspan x="450.2" y="102">34</tspan></text><text font-family="inherit" font-size="22" font-weight="300" line-spacing="32" fill="#202020"><tspan x="570.9" y="22">40</tspan></text><circle fill="#008EFE" cx="17" cy="58" r="6"/><circle fill="#008EFE" cx="57" cy="58" r="6"/><circle fill="#008EFE" cx="77" cy="58" r="6"/><circle fill="#008EFE" cx="98" cy="58" r="6"/><circle fill="#008EFE" cx="118" cy="58" r="6"/><circle fill="#008EFE" cx="138" cy="58" r="6"/><circle fill="#008EFE" cx="178" cy="58" r="6"/><circle fill="#008EFE" cx="219" cy="58" r="6"/><circle fill="#008EFE" cx="259" cy="58" r="6"/><circle fill="#008EFE" cx="299" cy="58" r="6"/><circle fill="#008EFE" cx="319" cy="58" r="6"/><circle fill="#008EFE" cx="420" cy="58" r="6"/><circle fill="#008EFE" cx="461" cy="58" r="6"/><circle fill="#008EFE" cx="583" cy="58" r="6"/></g></svg>