<svg xmlns="http://www.w3.org/2000/svg" width="548" height="176" viewBox="0 0 548 176" version="1.1"><title>callout-panel</title><desc>Created with Sketch Beta.</desc><g stroke="none" stroke-width="1" fill="none" fill-rule="evenodd"><g transform="translate(-324.000000, -4701.000000)"><g transform="translate(324.000000, 4701.000000)"><rect fill="#FDF1FF" x="0" y="0" width="547" height="176"/><rect fill="#DC004B" opacity="0.5" x="296.3" y="17.2" width="251" height="140.5"/><path d="M14.6 124.9L14.6 157.2 236.8 157.2 236.8 124.9 14.6 124.9ZM13.9 124.3L237.4 124.3 237.4 157.8 13.9 157.8 13.9 124.3ZM88 144.4L86.8 144.4 86.8 138.7 84.8 138.7 84.8 137.6 90.1 137.6 90.1 138.7 88 138.7 88 144.4ZM96.7 144.4L95.4 144.4 94.9 143.1 91.8 143.1 91.3 144.4 89.9 144.4 92.6 137.6 94.1 137.6 96.7 144.4ZM94.5 142L93.3 138.8 92.1 142 94.5 142ZM103.2 144.4L100.2 140.8 102.9 137.6 101.5 137.6 98.8 140.8 98.8 137.6 97.6 137.6 97.6 144.4 98.8 144.4 98.8 142.2 99.4 141.5 101.7 144.4 103.2 144.4ZM108.8 144.4L108.8 143.4 105.3 143.4 105.3 141.5 108.7 141.5 108.7 140.4 105.3 140.4 105.3 138.7 108.8 138.7 108.8 137.6 104.1 137.6 104.1 144.4 108.8 144.4ZM115.8 144.4L115.8 138.7 117.8 138.7 117.8 137.6 112.5 137.6 112.5 138.7 114.6 138.7 114.6 144.4 115.8 144.4ZM124.9 144.4L124.9 137.6 123.7 137.6 123.7 140.4 120.2 140.4 120.2 137.6 119 137.6 119 144.4 120.2 144.4 120.2 141.4 123.7 141.4 123.7 144.4 124.9 144.4ZM131.2 144.4L131.2 143.4 127.7 143.4 127.7 141.5 131.1 141.5 131.1 140.4 127.7 140.4 127.7 138.7 131.2 138.7 131.2 137.6 126.5 137.6 126.5 144.4 131.2 144.4ZM138.7 144.5C140 144.5 140.9 143.8 141.4 143L140.4 142.5C140 143 139.4 143.5 138.7 143.5 137.3 143.5 136.3 142.4 136.3 141 136.3 139.6 137.3 138.6 138.7 138.6 139.4 138.6 140 139 140.4 139.6L141.4 139C140.9 138.2 140 137.5 138.7 137.5 136.7 137.5 135.1 138.9 135.1 141 135.1 143.1 136.7 144.5 138.7 144.5ZM146.6 144.4L146.6 143.4 143.6 143.4 143.6 137.6 142.4 137.6 142.4 144.4 146.6 144.4ZM153.9 144.4L152.6 144.4 152.1 143.1 149 143.1 148.5 144.4 147.1 144.4 149.8 137.6 151.3 137.6 153.9 144.4ZM151.7 142L150.5 138.8 149.3 142 151.7 142ZM157.1 144.5C158.9 144.5 159.7 143.5 159.7 142.4 159.7 139.9 155.7 140.7 155.7 139.4 155.7 138.9 156.2 138.6 156.9 138.6 157.6 138.6 158.3 138.8 158.8 139.4L159.5 138.5C158.9 137.9 158 137.5 157 137.5 155.5 137.5 154.5 138.4 154.5 139.5 154.5 142 158.5 141.1 158.5 142.5 158.5 143 158.1 143.5 157.1 143.5 156.2 143.5 155.4 143 155 142.5L154.3 143.4C154.9 144.1 155.8 144.5 157.1 144.5ZM163.3 144.5C165.1 144.5 165.9 143.5 165.9 142.4 165.9 139.9 162 140.7 162 139.4 162 138.9 162.4 138.6 163.1 138.6 163.8 138.6 164.5 138.8 165.1 139.4L165.7 138.5C165.1 137.9 164.3 137.5 163.2 137.5 161.7 137.5 160.7 138.4 160.7 139.5 160.7 142 164.7 141.1 164.7 142.5 164.7 143 164.3 143.5 163.3 143.5 162.4 143.5 161.6 143 161.2 142.5L160.5 143.4C161.1 144.1 162 144.5 163.3 144.5ZM17.7 56.9C15.8 56.9 14.4 55.4 14.4 53.5 14.4 51.6 15.8 50.1 17.7 50.1 19.6 50.1 20.9 51.6 20.9 53.5 20.9 55.4 19.6 56.9 17.7 56.9ZM17.7 56.1C19.1 56.1 20.1 55 20.1 53.5 20.1 52 19.1 50.8 17.7 50.8 16.2 50.8 15.3 52 15.3 53.5 15.3 55 16.2 56.1 17.7 56.1ZM26.2 56.8L26.2 52 25.5 52 25.5 55.5C25.2 55.9 24.7 56.2 24.1 56.2 23.5 56.2 23.1 56 23.1 55.1L23.1 52 22.3 52 22.3 55.4C22.3 56.4 22.8 56.9 23.8 56.9 24.5 56.9 25.2 56.5 25.5 56.1L25.5 56.8 26.2 56.8ZM28.6 56.8L28.6 53.4C28.8 53 29.4 52.7 29.9 52.7 30 52.7 30.1 52.7 30.2 52.7L30.2 51.9C29.5 51.9 29 52.3 28.6 52.8L28.6 52 27.9 52 27.9 56.8 28.6 56.8ZM40.4 56.8L40.4 53.3C40.4 52.4 39.9 51.9 39.1 51.9 38.4 51.9 37.7 52.4 37.5 52.8 37.3 52.3 36.9 51.9 36.2 51.9 35.5 51.9 34.9 52.4 34.7 52.7L34.7 52 33.9 52 33.9 56.8 34.7 56.8 34.7 53.3C34.9 52.9 35.4 52.6 35.9 52.6 36.5 52.6 36.8 52.9 36.8 53.5L36.8 56.8 37.5 56.8 37.5 53.3C37.8 52.9 38.3 52.6 38.8 52.6 39.4 52.6 39.6 52.9 39.6 53.5L39.6 56.8 40.4 56.8ZM44.1 56.9C42.6 56.9 41.7 55.8 41.7 54.4 41.7 53 42.6 51.9 44.1 51.9 45.5 51.9 46.4 53 46.4 54.4 46.4 55.8 45.5 56.9 44.1 56.9ZM44.1 56.2C45.1 56.2 45.6 55.4 45.6 54.4 45.6 53.4 45.1 52.6 44.1 52.6 43.1 52.6 42.5 53.4 42.5 54.4 42.5 55.4 43.1 56.2 44.1 56.2ZM49 56.9C49.4 56.9 49.6 56.7 49.8 56.6L49.6 56C49.5 56.1 49.3 56.2 49.1 56.2 48.8 56.2 48.6 56 48.6 55.6L48.6 52.7 49.6 52.7 49.6 52 48.6 52 48.6 50.7 47.9 50.7 47.9 52 47.1 52 47.1 52.7 47.9 52.7 47.9 55.8C47.9 56.5 48.2 56.9 49 56.9ZM54.7 56.8L54.7 53.4C54.7 52.4 54.2 51.9 53.2 51.9 52.5 51.9 51.8 52.3 51.5 52.7L51.5 50.2 50.8 50.2 50.8 56.8 51.5 56.8 51.5 53.3C51.8 52.9 52.3 52.6 52.9 52.6 53.6 52.6 54 52.8 54 53.6L54 56.8 54.7 56.8ZM58.5 56.9C57.1 56.9 56.1 55.9 56.1 54.4 56.1 53 57 51.9 58.4 51.9 59.8 51.9 60.7 53 60.7 54.4L60.7 54.6 56.8 54.6C56.9 55.5 57.5 56.3 58.5 56.3 59.1 56.3 59.6 56 60 55.7L60.4 56.1C59.9 56.6 59.2 56.9 58.5 56.9ZM59.9 54.1C59.9 53.4 59.5 52.5 58.4 52.5 57.4 52.5 56.9 53.4 56.8 54.1L59.9 54.1ZM62.7 56.8L62.7 53.4C62.9 53 63.6 52.7 64 52.7 64.1 52.7 64.2 52.7 64.3 52.7L64.3 51.9C63.7 51.9 63.1 52.3 62.7 52.8L62.7 52 62 52 62 56.8 62.7 56.8ZM67.3 54.7L67.3 54.1 64.9 54.1 64.9 54.7 67.3 54.7ZM72.6 56.8L71.9 56.8 71.9 56C71.5 56.5 71 56.9 70.3 56.9 69.1 56.9 68.2 55.9 68.2 54.4 68.2 52.9 69.1 51.9 70.3 51.9 70.9 51.9 71.5 52.2 71.9 52.7L71.9 50.2 72.6 50.2 72.6 56.8ZM70.5 56.2C71.1 56.2 71.6 55.9 71.9 55.5L71.9 53.3C71.6 52.9 71.1 52.6 70.5 52.6 69.5 52.6 69 53.3 69 54.4 69 55.4 69.5 56.2 70.5 56.2ZM77.9 56.8L77.2 56.8 77.2 56.2C76.8 56.6 76.3 56.9 75.6 56.9 74.8 56.9 74 56.3 74 55.3 74 54.2 74.8 53.7 75.6 53.7 76.3 53.7 76.8 54 77.2 54.4L77.2 53.5C77.2 52.9 76.7 52.5 76 52.5 75.4 52.5 75 52.7 74.6 53.2L74.2 52.7C74.7 52.2 75.3 51.9 76.1 51.9 77.1 51.9 77.9 52.4 77.9 53.5L77.9 56.8ZM75.9 56.3C76.4 56.3 76.9 56.1 77.2 55.8L77.2 54.9C76.9 54.5 76.4 54.3 75.9 54.3 75.2 54.3 74.7 54.7 74.7 55.3 74.7 55.9 75.2 56.3 75.9 56.3ZM83.5 56.8L83.5 52 82.8 52 82.8 55.5C82.5 55.9 81.9 56.2 81.4 56.2 80.7 56.2 80.3 56 80.3 55.1L80.3 52 79.6 52 79.6 55.4C79.6 56.4 80.1 56.9 81.1 56.9 81.8 56.9 82.4 56.5 82.8 56.1L82.8 56.8 83.5 56.8ZM87 58.7C86.2 58.7 85.7 58.5 85.1 58L85.5 57.4C85.9 57.9 86.3 58.1 87 58.1 87.8 58.1 88.5 57.7 88.5 56.7L88.5 56C88.2 56.4 87.6 56.8 86.9 56.8 85.7 56.8 84.8 55.9 84.8 54.4 84.8 52.8 85.7 51.9 86.9 51.9 87.6 51.9 88.2 52.2 88.5 52.7L88.5 52 89.3 52 89.3 56.7C89.3 58.2 88.2 58.7 87 58.7ZM87.1 56.2C87.7 56.2 88.3 55.8 88.5 55.4L88.5 53.3C88.3 52.9 87.7 52.6 87.1 52.6 86.2 52.6 85.6 53.3 85.6 54.4 85.6 55.4 86.2 56.2 87.1 56.2ZM94.8 56.8L94.8 53.4C94.8 52.4 94.3 51.9 93.3 51.9 92.6 51.9 92 52.3 91.6 52.7L91.6 50.2 90.9 50.2 90.9 56.8 91.6 56.8 91.6 53.3C91.9 52.9 92.5 52.6 93 52.6 93.7 52.6 94.1 52.8 94.1 53.6L94.1 56.8 94.8 56.8ZM97.7 56.9C98.1 56.9 98.3 56.7 98.5 56.6L98.3 56C98.2 56.1 98 56.2 97.8 56.2 97.5 56.2 97.3 56 97.3 55.6L97.3 52.7 98.3 52.7 98.3 52 97.3 52 97.3 50.7 96.6 50.7 96.6 52 95.8 52 95.8 52.7 96.6 52.7 96.6 55.8C96.6 56.5 97 56.9 97.7 56.9ZM101.6 56.9C100.2 56.9 99.2 55.9 99.2 54.4 99.2 53 100.2 51.9 101.5 51.9 103 51.9 103.8 53 103.8 54.4L103.8 54.6 100 54.6C100 55.5 100.7 56.3 101.7 56.3 102.2 56.3 102.8 56 103.2 55.7L103.5 56.1C103 56.6 102.4 56.9 101.6 56.9ZM103.1 54.1C103.1 53.4 102.6 52.5 101.5 52.5 100.5 52.5 100 53.4 100 54.1L103.1 54.1ZM105.9 56.8L105.9 53.4C106.1 53 106.7 52.7 107.2 52.7 107.3 52.7 107.4 52.7 107.5 52.7L107.5 51.9C106.8 51.9 106.3 52.3 105.9 52.8L105.9 52 105.1 52 105.1 56.8 105.9 56.8ZM115.4 56.8L114.6 56.8 114.6 56C114.3 56.5 113.7 56.9 113 56.9 111.8 56.9 110.9 55.9 110.9 54.4 110.9 52.9 111.8 51.9 113 51.9 113.7 51.9 114.3 52.2 114.6 52.7L114.6 50.2 115.4 50.2 115.4 56.8ZM113.2 56.2C113.8 56.2 114.4 55.9 114.6 55.5L114.6 53.3C114.4 52.9 113.8 52.6 113.2 52.6 112.3 52.6 111.7 53.3 111.7 54.4 111.7 55.4 112.3 56.2 113.2 56.2ZM120.9 56.8L120.9 52 120.2 52 120.2 55.5C119.9 55.9 119.4 56.2 118.8 56.2 118.1 56.2 117.7 56 117.7 55.1L117.7 52 117 52 117 55.4C117 56.4 117.5 56.9 118.5 56.9 119.2 56.9 119.8 56.5 120.2 56.1L120.2 56.8 120.9 56.8ZM124.6 56.9C123.2 56.9 122.3 55.8 122.3 54.4 122.3 53 123.2 51.9 124.6 51.9 126 51.9 126.9 53 126.9 54.4 126.9 55.8 126 56.9 124.6 56.9ZM124.6 56.2C125.6 56.2 126.2 55.4 126.2 54.4 126.2 53.4 125.6 52.6 124.6 52.6 123.6 52.6 123 53.4 123 54.4 123 55.4 123.6 56.2 124.6 56.2ZM131.9 56.8L131.9 52.7 132.9 52.7 132.9 52 131.9 52 131.9 51.7C131.9 51.1 132.2 50.7 132.7 50.7 132.9 50.7 133.1 50.8 133.3 51L133.6 50.5C133.3 50.2 132.9 50.1 132.6 50.1 131.7 50.1 131.2 50.7 131.2 51.7L131.2 52 130.4 52 130.4 52.7 131.2 52.7 131.2 56.8 131.9 56.8ZM134.6 56.8L134.6 53.4C134.9 53 135.5 52.7 135.9 52.7 136 52.7 136.1 52.7 136.2 52.7L136.2 51.9C135.6 51.9 135 52.3 134.6 52.8L134.6 52 133.9 52 133.9 56.8 134.6 56.8ZM139.4 56.9C137.9 56.9 137 55.8 137 54.4 137 53 137.9 51.9 139.4 51.9 140.8 51.9 141.7 53 141.7 54.4 141.7 55.8 140.8 56.9 139.4 56.9ZM139.4 56.2C140.4 56.2 140.9 55.4 140.9 54.4 140.9 53.4 140.4 52.6 139.4 52.6 138.3 52.6 137.8 53.4 137.8 54.4 137.8 55.4 138.3 56.2 139.4 56.2ZM149.5 56.8L149.5 53.3C149.5 52.4 149 51.9 148.2 51.9 147.5 51.9 146.8 52.4 146.6 52.8 146.4 52.3 146 51.9 145.3 51.9 144.6 51.9 144 52.4 143.8 52.7L143.8 52 143 52 143 56.8 143.8 56.8 143.8 53.3C144 52.9 144.5 52.6 145 52.6 145.6 52.6 145.9 52.9 145.9 53.5L145.9 56.8 146.6 56.8 146.6 53.3C146.9 52.9 147.4 52.6 147.9 52.6 148.5 52.6 148.8 52.9 148.8 53.5L148.8 56.8 149.5 56.8ZM158.8 56.8L155.8 53.3 158.5 50.2 157.5 50.2 154.6 53.6 154.6 50.2 153.8 50.2 153.8 56.8 154.6 56.8 154.6 54.6 155.3 53.8 157.8 56.8 158.8 56.8ZM163.8 56.8L163.8 53.4C163.8 52.4 163.2 51.9 162.3 51.9 161.5 51.9 160.9 52.3 160.6 52.7L160.6 52 159.8 52 159.8 56.8 160.6 56.8 160.6 53.3C160.8 52.9 161.4 52.6 162 52.6 162.6 52.6 163 52.8 163 53.7L163 56.8 163.8 56.8ZM167.5 56.9C166 56.9 165.1 55.8 165.1 54.4 165.1 53 166 51.9 167.5 51.9 168.9 51.9 169.8 53 169.8 54.4 169.8 55.8 168.9 56.9 167.5 56.9ZM167.5 56.2C168.5 56.2 169 55.4 169 54.4 169 53.4 168.5 52.6 167.5 52.6 166.4 52.6 165.9 53.4 165.9 54.4 165.9 55.4 166.4 56.2 167.5 56.2ZM172.3 56.9C172.8 56.9 173 56.7 173.2 56.6L173 56C172.9 56.1 172.7 56.2 172.5 56.2 172.2 56.2 172 56 172 55.6L172 52.7 173 52.7 173 52 172 52 172 50.7 171.3 50.7 171.3 52 170.5 52 170.5 52.7 171.3 52.7 171.3 55.8C171.3 56.5 171.6 56.9 172.3 56.9ZM175.4 56.9C175.8 56.9 176.1 56.7 176.2 56.6L176 56C175.9 56.1 175.7 56.2 175.5 56.2 175.2 56.2 175.1 56 175.1 55.6L175.1 52.7 176 52.7 176 52 175.1 52 175.1 50.7 174.3 50.7 174.3 52 173.5 52 173.5 52.7 174.3 52.7 174.3 55.8C174.3 56.5 174.7 56.9 175.4 56.9ZM176.9 58.6C177.1 58.6 177.3 58.7 177.5 58.7 178.1 58.7 178.6 58.4 178.9 57.7L181.2 52 180.4 52 178.9 55.9 177.3 52 176.5 52 178.5 56.8 178.2 57.5C178 57.9 177.8 58 177.4 58 177.3 58 177.2 58 177 57.9L176.9 58.6ZM188 56.9C189 56.9 189.9 56.4 190.5 55.7L190.5 53.4 187.5 53.4 187.5 54.1 189.7 54.1 189.7 55.4C189.4 55.8 188.7 56.1 188 56.1 186.5 56.1 185.4 55 185.4 53.5 185.4 51.9 186.5 50.8 188 50.8 188.7 50.8 189.4 51.2 189.8 51.7L190.5 51.3C189.9 50.6 189.1 50.1 188 50.1 186.1 50.1 184.6 51.5 184.6 53.5 184.6 55.5 186.1 56.9 188 56.9ZM195.7 56.8L194.9 56.8 194.9 56.2C194.5 56.6 194 56.9 193.4 56.9 192.6 56.9 191.7 56.3 191.7 55.3 191.7 54.2 192.5 53.7 193.4 53.7 194 53.7 194.5 54 194.9 54.4L194.9 53.5C194.9 52.9 194.4 52.5 193.7 52.5 193.2 52.5 192.7 52.7 192.3 53.2L191.9 52.7C192.4 52.2 193 51.9 193.8 51.9 194.8 51.9 195.7 52.4 195.7 53.5L195.7 56.8ZM193.6 56.3C194.1 56.3 194.6 56.1 194.9 55.8L194.9 54.9C194.6 54.5 194.1 54.3 193.6 54.3 192.9 54.3 192.5 54.7 192.5 55.3 192.5 55.9 192.9 56.3 193.6 56.3ZM198 56.8L198 50.2 197.3 50.2 197.3 56.8 198 56.8ZM207.2 56.8L208.7 52 207.9 52 206.7 55.8 205.5 52 204.9 52 203.6 55.8 202.5 52 201.7 52 203.2 56.8 203.9 56.8 205.2 53 206.4 56.8 207.2 56.8ZM210 51.3C210.3 51.3 210.5 51.1 210.5 50.9 210.5 50.6 210.3 50.4 210 50.4 209.8 50.4 209.5 50.6 209.5 50.9 209.5 51.1 209.8 51.3 210 51.3ZM210.4 56.8L210.4 52 209.7 52 209.7 56.8 210.4 56.8ZM212.7 56.8L212.7 50.2 212 50.2 212 56.8 212.7 56.8ZM215.1 56.8L215.1 50.2 214.4 50.2 214.4 56.8 215.1 56.8ZM220.6 56.9C221 56.9 221.3 56.7 221.5 56.6L221.3 56C221.2 56.1 221 56.2 220.8 56.2 220.5 56.2 220.3 56 220.3 55.6L220.3 52.7 221.3 52.7 221.3 52 220.3 52 220.3 50.7 219.6 50.7 219.6 52 218.8 52 218.8 52.7 219.6 52.7 219.6 55.8C219.6 56.5 219.9 56.9 220.6 56.9ZM224.6 56.9C223.2 56.9 222.2 55.9 222.2 54.4 222.2 53 223.1 51.9 224.5 51.9 225.9 51.9 226.8 53 226.8 54.4L226.8 54.6 222.9 54.6C223 55.5 223.6 56.3 224.6 56.3 225.2 56.3 225.7 56 226.1 55.7L226.5 56.1C226 56.6 225.3 56.9 224.6 56.9ZM226 54.1C226 53.4 225.6 52.5 224.5 52.5 223.5 52.5 223 53.4 222.9 54.1L226 54.1ZM231.8 56.8L231.1 56.8 231.1 56.2C230.7 56.6 230.1 56.9 229.5 56.9 228.7 56.9 227.8 56.3 227.8 55.3 227.8 54.2 228.7 53.7 229.5 53.7 230.1 53.7 230.7 54 231.1 54.4L231.1 53.5C231.1 52.9 230.5 52.5 229.9 52.5 229.3 52.5 228.8 52.7 228.4 53.2L228.1 52.7C228.6 52.2 229.2 51.9 230 51.9 231 51.9 231.8 52.4 231.8 53.5L231.8 56.8ZM229.8 56.3C230.3 56.3 230.8 56.1 231.1 55.8L231.1 54.9C230.8 54.5 230.3 54.3 229.8 54.3 229.1 54.3 228.6 54.7 228.6 55.3 228.6 55.9 229.1 56.3 229.8 56.3ZM235.5 56.9C236.4 56.9 236.9 56.5 237.2 56L236.8 55.6C236.4 56 236 56.2 235.5 56.2 234.5 56.2 233.9 55.4 233.9 54.4 233.9 53.3 234.5 52.6 235.5 52.6 236 52.6 236.4 52.7 236.8 53.2L237.2 52.7C236.9 52.3 236.4 51.9 235.5 51.9 234.1 51.9 233.1 53 233.1 54.4 233.1 55.8 234.1 56.9 235.5 56.9ZM242.4 56.8L242.4 53.4C242.4 52.4 241.8 51.9 240.9 51.9 240.1 51.9 239.5 52.3 239.2 52.7L239.2 50.2 238.4 50.2 238.4 56.8 239.2 56.8 239.2 53.3C239.4 52.9 240 52.6 240.6 52.6 241.2 52.6 241.6 52.8 241.6 53.6L241.6 56.8 242.4 56.8ZM246.4 58.6C246.5 58.6 246.8 58.7 246.9 58.7 247.6 58.7 248.1 58.4 248.3 57.7L250.7 52 249.9 52 248.3 55.9 246.8 52 246 52 247.9 56.8 247.6 57.5C247.5 57.9 247.2 58 246.9 58 246.8 58 246.6 58 246.5 57.9L246.4 58.6ZM253.7 56.9C252.2 56.9 251.3 55.8 251.3 54.4 251.3 53 252.2 51.9 253.7 51.9 255.1 51.9 256 53 256 54.4 256 55.8 255.1 56.9 253.7 56.9ZM253.7 56.2C254.7 56.2 255.3 55.4 255.3 54.4 255.3 53.4 254.7 52.6 253.7 52.6 252.7 52.6 252.1 53.4 252.1 54.4 252.1 55.4 252.7 56.2 253.7 56.2ZM261.3 56.8L261.3 52 260.6 52 260.6 55.5C260.3 55.9 259.7 56.2 259.2 56.2 258.5 56.2 258.1 56 258.1 55.1L258.1 52 257.4 52 257.4 55.4C257.4 56.4 257.9 56.9 258.9 56.9 259.6 56.9 260.2 56.5 260.6 56.1L260.6 56.8 261.3 56.8ZM15.9 73C16.3 73 16.6 72.8 16.8 72.7L16.5 72.1C16.4 72.2 16.3 72.3 16 72.3 15.7 72.3 15.6 72 15.6 71.7L15.6 68.8 16.5 68.8 16.5 68.1 15.6 68.1 15.6 66.8 14.8 66.8 14.8 68.1 14 68.1 14 68.8 14.8 68.8 14.8 71.9C14.8 72.6 15.2 73 15.9 73ZM21.6 72.8L21.6 69.5C21.6 68.5 21.1 68 20.1 68 19.4 68 18.8 68.4 18.5 68.8L18.5 66.3 17.7 66.3 17.7 72.8 18.5 72.8 18.5 69.4C18.7 69 19.3 68.7 19.8 68.7 20.5 68.7 20.9 68.9 20.9 69.7L20.9 72.8 21.6 72.8ZM24 72.8L24 69.5C24.2 69.1 24.8 68.7 25.3 68.7 25.4 68.7 25.5 68.7 25.6 68.8L25.6 68C24.9 68 24.4 68.4 24 68.9L24 68.1 23.3 68.1 23.3 72.8 24 72.8ZM28.8 73C27.4 73 26.4 72 26.4 70.5 26.4 69.1 27.4 68 28.7 68 30.1 68 31 69.1 31 70.5L31 70.7 27.2 70.7C27.2 71.6 27.8 72.4 28.8 72.4 29.4 72.4 29.9 72.1 30.3 71.7L30.7 72.2C30.2 72.7 29.6 73 28.8 73ZM30.2 70.2C30.2 69.5 29.8 68.6 28.7 68.6 27.7 68.6 27.2 69.5 27.1 70.2L30.2 70.2ZM34.5 73C33 73 32 72 32 70.5 32 69.1 33 68 34.4 68 35.8 68 36.6 69.1 36.6 70.5L36.6 70.7 32.8 70.7C32.9 71.6 33.5 72.4 34.5 72.4 35.1 72.4 35.6 72.1 36 71.7L36.3 72.2C35.9 72.7 35.2 73 34.5 73ZM35.9 70.2C35.9 69.5 35.4 68.6 34.4 68.6 33.3 68.6 32.8 69.5 32.8 70.2L35.9 70.2ZM44.8 72.8L44.1 72.8 44.1 72.1C43.7 72.6 43.2 73 42.5 73 41.3 73 40.4 72 40.4 70.5 40.4 69 41.3 68 42.5 68 43.1 68 43.7 68.3 44.1 68.8L44.1 66.3 44.8 66.3 44.8 72.8ZM42.7 72.3C43.3 72.3 43.8 72 44.1 71.5L44.1 69.4C43.8 69 43.3 68.7 42.7 68.7 41.7 68.7 41.1 69.4 41.1 70.5 41.1 71.5 41.7 72.3 42.7 72.3ZM46.8 67.4C47.1 67.4 47.3 67.2 47.3 66.9 47.3 66.7 47.1 66.4 46.8 66.4 46.5 66.4 46.3 66.7 46.3 66.9 46.3 67.2 46.5 67.4 46.8 67.4ZM47.2 72.8L47.2 68.1 46.4 68.1 46.4 72.8 47.2 72.8ZM49.7 72.8L49 72.8 49 68.8 48.2 68.8 48.2 68.1 49 68.1 49 67.7C49 66.8 49.5 66.2 50.4 66.2 50.8 66.2 51.1 66.3 51.4 66.6L51.1 67C50.9 66.9 50.7 66.8 50.5 66.8 50 66.8 49.7 67.1 49.7 67.7L49.7 68.1 50.7 68.1 50.7 68.8 49.7 68.8 49.7 72.8ZM52.5 72.8L51.8 72.8 51.8 68.8 51 68.8 51 68.1 51.8 68.1 51.8 67.7C51.8 66.8 52.3 66.2 53.2 66.2 53.5 66.2 53.9 66.3 54.2 66.6L53.8 67C53.7 66.9 53.5 66.8 53.3 66.8 52.8 66.8 52.5 67.1 52.5 67.7L52.5 68.1 53.5 68.1 53.5 68.8 52.5 68.8 52.5 72.8ZM56.6 73C55.2 73 54.2 72 54.2 70.5 54.2 69.1 55.2 68 56.6 68 58 68 58.8 69.1 58.8 70.5L58.8 70.7 55 70.7C55.1 71.6 55.7 72.4 56.7 72.4 57.2 72.4 57.8 72.1 58.2 71.7L58.5 72.2C58 72.7 57.4 73 56.6 73ZM58.1 70.2C58.1 69.5 57.6 68.6 56.5 68.6 55.5 68.6 55 69.5 55 70.2L58.1 70.2ZM60.9 72.8L60.9 69.5C61.1 69.1 61.7 68.7 62.2 68.7 62.3 68.7 62.4 68.7 62.5 68.8L62.5 68C61.8 68 61.3 68.4 60.9 68.9L60.9 68.1 60.2 68.1 60.2 72.8 60.9 72.8ZM65.7 73C64.3 73 63.3 72 63.3 70.5 63.3 69.1 64.2 68 65.6 68 67 68 67.9 69.1 67.9 70.5L67.9 70.7 64.1 70.7C64.1 71.6 64.7 72.4 65.7 72.4 66.3 72.4 66.8 72.1 67.2 71.7L67.6 72.2C67.1 72.7 66.5 73 65.7 73ZM67.1 70.2C67.1 69.5 66.7 68.6 65.6 68.6 64.6 68.6 64.1 69.5 64 70.2L67.1 70.2ZM73.1 72.8L73.1 69.5C73.1 68.5 72.6 68 71.6 68 70.9 68 70.3 68.4 69.9 68.8L69.9 68.1 69.2 68.1 69.2 72.8 69.9 72.8 69.9 69.4C70.2 69 70.8 68.7 71.3 68.7 72 68.7 72.4 68.9 72.4 69.7L72.4 72.8 73.1 72.8ZM76 73C76.4 73 76.7 72.8 76.8 72.7L76.6 72.1C76.5 72.2 76.3 72.3 76.1 72.3 75.8 72.3 75.7 72 75.7 71.7L75.7 68.8 76.6 68.8 76.6 68.1 75.7 68.1 75.7 66.8 74.9 66.8 74.9 68.1 74.1 68.1 74.1 68.8 74.9 68.8 74.9 71.9C74.9 72.6 75.3 73 76 73ZM84.6 72.8L83.9 72.8 83.9 72.1C83.6 72.6 83 73 82.3 73 81.1 73 80.2 72 80.2 70.5 80.2 69 81.1 68 82.3 68 82.9 68 83.5 68.3 83.9 68.8L83.9 66.3 84.6 66.3 84.6 72.8ZM82.5 72.3C83.1 72.3 83.6 72 83.9 71.5L83.9 69.4C83.6 69 83.1 68.7 82.5 68.7 81.5 68.7 81 69.4 81 70.5 81 71.5 81.5 72.3 82.5 72.3ZM88.4 73C87 73 86 72 86 70.5 86 69.1 87 68 88.3 68 89.7 68 90.6 69.1 90.6 70.5L90.6 70.7 86.8 70.7C86.8 71.6 87.4 72.4 88.5 72.4 89 72.4 89.5 72.1 89.9 71.7L90.3 72.2C89.8 72.7 89.2 73 88.4 73ZM89.9 70.2C89.9 69.5 89.4 68.6 88.3 68.6 87.3 68.6 86.8 69.5 86.8 70.2L89.9 70.2ZM94 73C94.9 73 95.4 72.6 95.7 72.1L95.3 71.7C94.9 72.1 94.5 72.3 94 72.3 93 72.3 92.4 71.5 92.4 70.5 92.4 69.4 93 68.7 94 68.7 94.5 68.7 94.9 68.8 95.3 69.3L95.7 68.8C95.4 68.3 94.9 68 94 68 92.6 68 91.6 69.1 91.6 70.5 91.6 71.9 92.6 73 94 73ZM99 73C97.6 73 96.7 71.8 96.7 70.5 96.7 69.1 97.6 68 99 68 100.4 68 101.3 69.1 101.3 70.5 101.3 71.8 100.4 73 99 73ZM99 72.3C100 72.3 100.6 71.4 100.6 70.5 100.6 69.5 100 68.7 99 68.7 98 68.7 97.4 69.5 97.4 70.5 97.4 71.4 98 72.3 99 72.3ZM103.4 72.8L103.4 69.5C103.6 69.1 104.2 68.7 104.7 68.7 104.8 68.7 104.9 68.7 105 68.8L105 68C104.3 68 103.8 68.4 103.4 68.9L103.4 68.1 102.7 68.1 102.7 72.8 103.4 72.8ZM109.8 72.8L109 72.8 109 72.3C108.6 72.7 108.1 73 107.5 73 106.7 73 105.8 72.4 105.8 71.4 105.8 70.3 106.6 69.8 107.5 69.8 108.1 69.8 108.6 70 109 70.5L109 69.6C109 69 108.5 68.6 107.8 68.6 107.3 68.6 106.8 68.8 106.4 69.3L106 68.8C106.5 68.2 107.1 68 107.9 68 108.9 68 109.8 68.4 109.8 69.6L109.8 72.8ZM107.7 72.4C108.2 72.4 108.7 72.2 109 71.8L109 70.9C108.7 70.6 108.2 70.4 107.7 70.4 107 70.4 106.6 70.8 106.6 71.4 106.6 72 107 72.4 107.7 72.4ZM112.6 73C113 73 113.3 72.8 113.5 72.7L113.2 72.1C113.1 72.2 113 72.3 112.7 72.3 112.4 72.3 112.3 72 112.3 71.7L112.3 68.8 113.2 68.8 113.2 68.1 112.3 68.1 112.3 66.8 111.5 66.8 111.5 68.1 110.7 68.1 110.7 68.8 111.5 68.8 111.5 71.9C111.5 72.6 111.9 73 112.6 73ZM114.8 67.4C115.1 67.4 115.3 67.2 115.3 66.9 115.3 66.7 115.1 66.4 114.8 66.4 114.5 66.4 114.3 66.7 114.3 66.9 114.3 67.2 114.5 67.4 114.8 67.4ZM115.1 72.8L115.1 68.1 114.4 68.1 114.4 72.8 115.1 72.8ZM118.8 72.8L120.8 68.1 120 68.1 118.4 72 116.9 68.1 116.1 68.1 118 72.8 118.8 72.8ZM123.9 73C122.4 73 121.4 72 121.4 70.5 121.4 69.1 122.4 68 123.8 68 125.2 68 126 69.1 126 70.5L126 70.7 122.2 70.7C122.3 71.6 122.9 72.4 123.9 72.4 124.5 72.4 125 72.1 125.4 71.7L125.7 72.2C125.3 72.7 124.6 73 123.9 73ZM125.3 70.2C125.3 69.5 124.8 68.6 123.8 68.6 122.8 68.6 122.3 69.5 122.2 70.2L125.3 70.2ZM134.2 72.8L132.1 70.3 134.2 68.1 133.3 68.1 130.8 70.6 130.8 66.3 130.1 66.3 130.1 72.8 130.8 72.8 130.8 71.5 131.6 70.7 133.3 72.8 134.2 72.8ZM139.2 72.8L139.2 69.5C139.2 68.5 138.7 68 137.7 68 137 68 136.3 68.4 136 68.8L136 68.1 135.2 68.1 135.2 72.8 136 72.8 136 69.4C136.3 69 136.8 68.7 137.4 68.7 138 68.7 138.5 68.9 138.5 69.7L138.5 72.8 139.2 72.8ZM142.9 73C141.4 73 140.5 71.8 140.5 70.5 140.5 69.1 141.4 68 142.9 68 144.3 68 145.2 69.1 145.2 70.5 145.2 71.8 144.3 73 142.9 73ZM142.9 72.3C143.9 72.3 144.4 71.4 144.4 70.5 144.4 69.5 143.9 68.7 142.9 68.7 141.9 68.7 141.3 69.5 141.3 70.5 141.3 71.4 141.9 72.3 142.9 72.3ZM147.8 73C148.2 73 148.4 72.8 148.6 72.7L148.4 72.1C148.3 72.2 148.1 72.3 147.9 72.3 147.6 72.3 147.4 72 147.4 71.7L147.4 68.8 148.4 68.8 148.4 68.1 147.4 68.1 147.4 66.8 146.7 66.8 146.7 68.1 145.9 68.1 145.9 68.8 146.7 68.8 146.7 71.9C146.7 72.6 147.1 73 147.8 73ZM151.1 73C152.3 73 152.9 72.3 152.9 71.5 152.9 69.7 150 70.4 150 69.3 150 68.9 150.4 68.6 151.1 68.6 151.7 68.6 152.2 68.8 152.5 69.2L152.8 68.7C152.4 68.3 151.9 68 151.1 68 149.9 68 149.3 68.6 149.3 69.4 149.3 71.1 152.2 70.4 152.2 71.5 152.2 72 151.8 72.4 151.1 72.4 150.5 72.4 149.9 72 149.6 71.7L149.2 72.2C149.7 72.7 150.3 73 151.1 73ZM158.9 70.8L158.9 70.1 156.5 70.1 156.5 70.8 158.9 70.8ZM166.4 72.8L165.7 72.8 165.7 72.3C165.3 72.7 164.8 73 164.1 73 163.3 73 162.5 72.4 162.5 71.4 162.5 70.3 163.3 69.8 164.1 69.8 164.8 69.8 165.3 70 165.7 70.5L165.7 69.6C165.7 69 165.2 68.6 164.5 68.6 163.9 68.6 163.5 68.8 163.1 69.3L162.7 68.8C163.2 68.2 163.8 68 164.6 68 165.6 68 166.4 68.4 166.4 69.6L166.4 72.8ZM164.4 72.4C164.9 72.4 165.4 72.2 165.7 71.8L165.7 70.9C165.4 70.6 164.9 70.4 164.4 70.4 163.7 70.4 163.2 70.8 163.2 71.4 163.2 72 163.7 72.4 164.4 72.4ZM172.3 73C173.5 73 174.1 72.3 174.1 71.5 174.1 69.7 171.2 70.4 171.2 69.3 171.2 68.9 171.6 68.6 172.2 68.6 172.9 68.6 173.4 68.8 173.6 69.2L174 68.7C173.6 68.3 173 68 172.2 68 171.1 68 170.5 68.6 170.5 69.4 170.5 71.1 173.4 70.4 173.4 71.5 173.4 72 173 72.4 172.3 72.4 171.6 72.4 171 72 170.7 71.7L170.4 72.2C170.8 72.7 171.5 73 172.3 73ZM175.8 67.4C176.1 67.4 176.3 67.2 176.3 66.9 176.3 66.7 176.1 66.4 175.8 66.4 175.6 66.4 175.3 66.7 175.3 66.9 175.3 67.2 175.6 67.4 175.8 67.4ZM176.2 72.8L176.2 68.1 175.5 68.1 175.5 72.8 176.2 72.8ZM184.3 72.8L184.3 69.4C184.3 68.5 183.8 68 182.9 68 182.3 68 181.6 68.4 181.3 68.9 181.2 68.4 180.8 68 180.1 68 179.4 68 178.8 68.5 178.5 68.8L178.5 68.1 177.8 68.1 177.8 72.8 178.5 72.8 178.5 69.4C178.8 69 179.3 68.7 179.8 68.7 180.4 68.7 180.7 69 180.7 69.6L180.7 72.8 181.4 72.8 181.4 69.4C181.6 69 182.2 68.7 182.7 68.7 183.3 68.7 183.5 69 183.5 69.6L183.5 72.8 184.3 72.8ZM188.2 73C187.6 73 187 72.6 186.6 72.1L186.6 74.6 185.9 74.6 185.9 68.1 186.6 68.1 186.6 68.8C187 68.3 187.5 68 188.2 68 189.5 68 190.3 68.9 190.3 70.5 190.3 72 189.5 73 188.2 73ZM188 72.3C189 72.3 189.5 71.5 189.5 70.5 189.5 69.4 189 68.7 188 68.7 187.4 68.7 186.9 69 186.6 69.4L186.6 71.5C186.9 72 187.4 72.3 188 72.3ZM192.4 72.8L192.4 66.3 191.6 66.3 191.6 72.8 192.4 72.8ZM196.1 73C194.7 73 193.7 72 193.7 70.5 193.7 69.1 194.7 68 196 68 197.5 68 198.3 69.1 198.3 70.5L198.3 70.7 194.5 70.7C194.6 71.6 195.2 72.4 196.2 72.4 196.7 72.4 197.3 72.1 197.7 71.7L198 72.2C197.5 72.7 196.9 73 196.1 73ZM197.6 70.2C197.6 69.5 197.1 68.6 196 68.6 195 68.6 194.5 69.5 194.5 70.2L197.6 70.2ZM206.5 72.8L204.4 70.3 206.5 68.1 205.6 68.1 203.1 70.6 203.1 66.3 202.3 66.3 202.3 72.8 203.1 72.8 203.1 71.5 203.9 70.7 205.6 72.8 206.5 72.8ZM211.4 72.8L211.4 69.5C211.4 68.5 210.9 68 209.9 68 209.2 68 208.6 68.4 208.3 68.8L208.3 68.1 207.5 68.1 207.5 72.8 208.3 72.8 208.3 69.4C208.5 69 209.1 68.7 209.7 68.7 210.3 68.7 210.7 68.9 210.7 69.7L210.7 72.8 211.4 72.8ZM215.1 73C213.7 73 212.8 71.8 212.8 70.5 212.8 69.1 213.7 68 215.1 68 216.6 68 217.5 69.1 217.5 70.5 217.5 71.8 216.6 73 215.1 73ZM215.1 72.3C216.1 72.3 216.7 71.4 216.7 70.5 216.7 69.5 216.1 68.7 215.1 68.7 214.1 68.7 213.6 69.5 213.6 70.5 213.6 71.4 214.1 72.3 215.1 72.3ZM220 73C220.4 73 220.7 72.8 220.9 72.7L220.7 72.1C220.6 72.2 220.4 72.3 220.2 72.3 219.9 72.3 219.7 72 219.7 71.7L219.7 68.8 220.7 68.8 220.7 68.1 219.7 68.1 219.7 66.8 219 66.8 219 68.1 218.2 68.1 218.2 68.8 219 68.8 219 71.9C219 72.6 219.3 73 220 73ZM222.8 72.6C222.8 72.1 222.6 71.9 222.2 71.9 221.9 71.9 221.7 72.1 221.7 72.4 221.7 72.7 221.9 72.9 222.2 72.9 222.2 72.9 222.3 72.9 222.3 72.9 222.3 73.2 222 73.6 221.7 73.8L222 74.1C222.5 73.8 222.8 73.2 222.8 72.6ZM230.6 72.8L229.9 72.8 229.9 72.3C229.5 72.7 229 73 228.3 73 227.5 73 226.7 72.4 226.7 71.4 226.7 70.3 227.5 69.8 228.3 69.8 229 69.8 229.5 70 229.9 70.5L229.9 69.6C229.9 69 229.4 68.6 228.7 68.6 228.1 68.6 227.7 68.8 227.3 69.3L226.9 68.8C227.4 68.2 228 68 228.8 68 229.8 68 230.6 68.4 230.6 69.6L230.6 72.8ZM228.6 72.4C229.1 72.4 229.6 72.2 229.9 71.8L229.9 70.9C229.6 70.6 229.1 70.4 228.6 70.4 227.9 70.4 227.4 70.8 227.4 71.4 227.4 72 227.9 72.4 228.6 72.4ZM236.2 72.8L236.2 69.5C236.2 68.5 235.7 68 234.7 68 234 68 233.3 68.4 233 68.8L233 68.1 232.3 68.1 232.3 72.8 233 72.8 233 69.4C233.3 69 233.8 68.7 234.4 68.7 235 68.7 235.5 68.9 235.5 69.7L235.5 72.8 236.2 72.8ZM15.1 83.5C15.3 83.5 15.5 83.3 15.5 83 15.5 82.8 15.3 82.5 15.1 82.5 14.8 82.5 14.6 82.8 14.6 83 14.6 83.3 14.8 83.5 15.1 83.5ZM15.4 88.9L15.4 84.2 14.7 84.2 14.7 88.9 15.4 88.9ZM21 88.9L21 85.6C21 84.6 20.4 84.1 19.5 84.1 18.7 84.1 18.1 84.5 17.8 84.9L17.8 84.2 17 84.2 17 88.9 17.8 88.9 17.8 85.5C18.1 85.1 18.6 84.7 19.2 84.7 19.8 84.7 20.2 85 20.2 85.8L20.2 88.9 21 88.9ZM23.8 89C24.2 89 24.5 88.9 24.7 88.7L24.4 88.2C24.4 88.3 24.2 88.4 23.9 88.4 23.6 88.4 23.5 88.1 23.5 87.8L23.5 84.8 24.4 84.8 24.4 84.2 23.5 84.2 23.5 82.9 22.7 82.9 22.7 84.2 22 84.2 22 84.8 22.7 84.8 22.7 87.9C22.7 88.6 23.1 89 23.8 89ZM27.8 89C26.4 89 25.3 88 25.3 86.6 25.3 85.2 26.3 84.1 27.7 84.1 29.1 84.1 29.9 85.2 29.9 86.6L29.9 86.8 26.1 86.8C26.2 87.7 26.8 88.4 27.8 88.4 28.4 88.4 28.9 88.2 29.3 87.8L29.6 88.3C29.2 88.8 28.5 89 27.8 89ZM29.2 86.3C29.2 85.6 28.7 84.7 27.7 84.7 26.7 84.7 26.2 85.5 26.1 86.3L29.2 86.3ZM32 88.9L32 85.6C32.2 85.2 32.8 84.8 33.3 84.8 33.4 84.8 33.5 84.8 33.6 84.8L33.6 84.1C32.9 84.1 32.4 84.5 32 85L32 84.2 31.3 84.2 31.3 88.9 32 88.9ZM41.1 88.9L41.1 85.5C41.1 84.6 40.6 84.1 39.8 84.1 39.1 84.1 38.5 84.5 38.2 85 38.1 84.5 37.6 84.1 36.9 84.1 36.2 84.1 35.6 84.6 35.4 84.9L35.4 84.2 34.7 84.2 34.7 88.9 35.4 88.9 35.4 85.5C35.7 85.1 36.2 84.7 36.6 84.7 37.3 84.7 37.5 85.1 37.5 85.7L37.5 88.9 38.2 88.9 38.2 85.5C38.5 85.1 39 84.7 39.5 84.7 40.1 84.7 40.4 85.1 40.4 85.7L40.4 88.9 41.1 88.9ZM44.9 89C43.5 89 42.5 88 42.5 86.6 42.5 85.2 43.4 84.1 44.8 84.1 46.2 84.1 47.1 85.2 47.1 86.6L47.1 86.8 43.2 86.8C43.3 87.7 43.9 88.4 44.9 88.4 45.5 88.4 46 88.2 46.4 87.8L46.8 88.3C46.3 88.8 45.6 89 44.9 89ZM46.3 86.3C46.3 85.6 45.8 84.7 44.8 84.7 43.8 84.7 43.3 85.5 43.2 86.3L46.3 86.3ZM52.6 88.9L51.8 88.9 51.8 88.2C51.5 88.7 50.9 89 50.2 89 49 89 48.1 88.1 48.1 86.6 48.1 85.1 49 84.1 50.2 84.1 50.9 84.1 51.4 84.4 51.8 84.9L51.8 82.4 52.6 82.4 52.6 88.9ZM50.4 88.4C51 88.4 51.6 88 51.8 87.6L51.8 85.5C51.6 85.1 51 84.7 50.4 84.7 49.4 84.7 48.9 85.5 48.9 86.6 48.9 87.6 49.4 88.4 50.4 88.4ZM54.5 83.5C54.8 83.5 55 83.3 55 83 55 82.8 54.8 82.5 54.5 82.5 54.3 82.5 54 82.8 54 83 54 83.3 54.3 83.5 54.5 83.5ZM54.9 88.9L54.9 84.2 54.2 84.2 54.2 88.9 54.9 88.9ZM60.2 88.9L59.5 88.9 59.5 88.4C59.1 88.8 58.6 89 57.9 89 57.1 89 56.3 88.5 56.3 87.5 56.3 86.4 57.1 85.9 57.9 85.9 58.6 85.9 59.1 86.1 59.5 86.6L59.5 85.7C59.5 85.1 59 84.7 58.3 84.7 57.7 84.7 57.3 84.9 56.8 85.4L56.5 84.9C57 84.3 57.6 84.1 58.4 84.1 59.4 84.1 60.2 84.5 60.2 85.7L60.2 88.9ZM58.2 88.5C58.7 88.5 59.2 88.3 59.5 87.9L59.5 87C59.2 86.6 58.7 86.5 58.2 86.5 57.5 86.5 57 86.9 57 87.5 57 88.1 57.5 88.5 58.2 88.5ZM63 89C63.5 89 63.7 88.9 63.9 88.7L63.7 88.2C63.6 88.3 63.4 88.4 63.2 88.4 62.9 88.4 62.7 88.1 62.7 87.8L62.7 84.8 63.7 84.8 63.7 84.2 62.7 84.2 62.7 82.9 62 82.9 62 84.2 61.2 84.2 61.2 84.8 62 84.8 62 87.9C62 88.6 62.3 89 63 89ZM67 89C65.6 89 64.6 88 64.6 86.6 64.6 85.2 65.6 84.1 66.9 84.1 68.4 84.1 69.2 85.2 69.2 86.6L69.2 86.8 65.4 86.8C65.4 87.7 66.1 88.4 67.1 88.4 67.6 88.4 68.2 88.2 68.5 87.8L68.9 88.3C68.4 88.8 67.8 89 67 89ZM68.5 86.3C68.5 85.6 68 84.7 66.9 84.7 65.9 84.7 65.4 85.5 65.4 86.3L68.5 86.3ZM77.4 88.9L75.3 86.3 77.4 84.2 76.4 84.2 74 86.7 74 82.4 73.2 82.4 73.2 88.9 74 88.9 74 87.6 74.8 86.8 76.4 88.9 77.4 88.9ZM82.3 88.9L82.3 85.6C82.3 84.6 81.8 84.1 80.8 84.1 80.1 84.1 79.5 84.5 79.1 84.9L79.1 84.2 78.4 84.2 78.4 88.9 79.1 88.9 79.1 85.5C79.4 85.1 80 84.7 80.5 84.7 81.2 84.7 81.6 85 81.6 85.8L81.6 88.9 82.3 88.9ZM86 89C84.6 89 83.7 87.9 83.7 86.6 83.7 85.2 84.6 84.1 86 84.1 87.5 84.1 88.4 85.2 88.4 86.6 88.4 87.9 87.5 89 86 89ZM86 88.4C87 88.4 87.6 87.5 87.6 86.6 87.6 85.6 87 84.7 86 84.7 85 84.7 84.5 85.6 84.5 86.6 84.5 87.5 85 88.4 86 88.4ZM90.9 89C91.3 89 91.6 88.9 91.8 88.7L91.6 88.2C91.5 88.3 91.3 88.4 91.1 88.4 90.8 88.4 90.6 88.1 90.6 87.8L90.6 84.8 91.6 84.8 91.6 84.2 90.6 84.2 90.6 82.9 89.9 82.9 89.9 84.2 89.1 84.2 89.1 84.8 89.9 84.8 89.9 87.9C89.9 88.6 90.2 89 90.9 89ZM99.1 88.9L98.4 88.9 98.4 88.4C98 88.8 97.5 89 96.8 89 96 89 95.2 88.5 95.2 87.5 95.2 86.4 96 85.9 96.8 85.9 97.5 85.9 98 86.1 98.4 86.6L98.4 85.7C98.4 85.1 97.9 84.7 97.2 84.7 96.6 84.7 96.2 84.9 95.7 85.4L95.4 84.9C95.9 84.3 96.5 84.1 97.3 84.1 98.3 84.1 99.1 84.5 99.1 85.7L99.1 88.9ZM97.1 88.5C97.6 88.5 98.1 88.3 98.4 87.9L98.4 87C98.1 86.6 97.6 86.5 97.1 86.5 96.4 86.5 95.9 86.9 95.9 87.5 95.9 88.1 96.4 88.5 97.1 88.5ZM104.7 88.9L104.7 85.6C104.7 84.6 104.2 84.1 103.2 84.1 102.5 84.1 101.8 84.5 101.5 84.9L101.5 84.2 100.8 84.2 100.8 88.9 101.5 88.9 101.5 85.5C101.8 85.1 102.3 84.7 102.9 84.7 103.5 84.7 104 85 104 85.8L104 88.9 104.7 88.9ZM110.5 88.9L109.7 88.9 109.7 88.2C109.4 88.7 108.8 89 108.1 89 106.9 89 106 88.1 106 86.6 106 85.1 106.9 84.1 108.1 84.1 108.8 84.1 109.4 84.4 109.7 84.9L109.7 82.4 110.5 82.4 110.5 88.9ZM108.3 88.4C108.9 88.4 109.5 88 109.7 87.6L109.7 85.5C109.5 85.1 108.9 84.7 108.3 84.7 107.4 84.7 106.8 85.5 106.8 86.6 106.8 87.6 107.4 88.4 108.3 88.4ZM118.5 88.9L117.7 88.9 117.7 88.4C117.4 88.8 116.8 89 116.2 89 115.4 89 114.5 88.5 114.5 87.5 114.5 86.4 115.4 85.9 116.2 85.9 116.8 85.9 117.4 86.1 117.7 86.6L117.7 85.7C117.7 85.1 117.2 84.7 116.5 84.7 116 84.7 115.5 84.9 115.1 85.4L114.7 84.9C115.3 84.3 115.9 84.1 116.6 84.1 117.6 84.1 118.5 84.5 118.5 85.7L118.5 88.9ZM116.4 88.5C116.9 88.5 117.4 88.3 117.7 87.9L117.7 87C117.4 86.6 116.9 86.5 116.4 86.5 115.7 86.5 115.3 86.9 115.3 87.5 115.3 88.1 115.7 88.5 116.4 88.5ZM124 88.9L124 85.6C124 84.6 123.5 84.1 122.5 84.1 121.8 84.1 121.2 84.5 120.8 84.9L120.8 84.2 120.1 84.2 120.1 88.9 120.8 88.9 120.8 85.5C121.1 85.1 121.7 84.7 122.2 84.7 122.9 84.7 123.3 85 123.3 85.8L123.3 88.9 124 88.9ZM128.7 83.5C129 83.5 129.2 83.3 129.2 83 129.2 82.8 129 82.5 128.7 82.5 128.4 82.5 128.2 82.8 128.2 83 128.2 83.3 128.4 83.5 128.7 83.5ZM129.1 88.9L129.1 84.2 128.3 84.2 128.3 88.9 129.1 88.9ZM134.6 88.9L134.6 85.6C134.6 84.6 134.1 84.1 133.1 84.1 132.4 84.1 131.8 84.5 131.4 84.9L131.4 84.2 130.7 84.2 130.7 88.9 131.4 88.9 131.4 85.5C131.7 85.1 132.2 84.7 132.8 84.7 133.5 84.7 133.9 85 133.9 85.8L133.9 88.9 134.6 88.9ZM137.5 89C137.9 89 138.1 88.9 138.3 88.7L138.1 88.2C138 88.3 137.8 88.4 137.6 88.4 137.3 88.4 137.1 88.1 137.1 87.8L137.1 84.8 138.1 84.8 138.1 84.2 137.1 84.2 137.1 82.9 136.4 82.9 136.4 84.2 135.6 84.2 135.6 84.8 136.4 84.8 136.4 87.9C136.4 88.6 136.7 89 137.5 89ZM140 88.9L140 85.6C140.2 85.2 140.8 84.8 141.3 84.8 141.4 84.8 141.5 84.8 141.6 84.8L141.6 84.1C140.9 84.1 140.4 84.5 140 85L140 84.2 139.3 84.2 139.3 88.9 140 88.9ZM143 83.5C143.3 83.5 143.5 83.3 143.5 83 143.5 82.8 143.3 82.5 143 82.5 142.8 82.5 142.5 82.8 142.5 83 142.5 83.3 142.8 83.5 143 83.5ZM143.4 88.9L143.4 84.2 142.7 84.2 142.7 88.9 143.4 88.9ZM147.1 89C148 89 148.5 88.7 148.8 88.2L148.3 87.8C148 88.2 147.6 88.4 147.1 88.4 146.1 88.4 145.5 87.6 145.5 86.6 145.5 85.5 146.1 84.7 147.1 84.7 147.6 84.7 148 84.9 148.3 85.3L148.8 84.9C148.5 84.4 148 84.1 147.1 84.1 145.7 84.1 144.7 85.2 144.7 86.6 144.7 88 145.7 89 147.1 89ZM153.7 88.9L153 88.9 153 88.4C152.6 88.8 152 89 151.4 89 150.6 89 149.8 88.5 149.8 87.5 149.8 86.4 150.6 85.9 151.4 85.9 152.1 85.9 152.6 86.1 153 86.6L153 85.7C153 85.1 152.5 84.7 151.8 84.7 151.2 84.7 150.8 84.9 150.3 85.4L150 84.9C150.5 84.3 151.1 84.1 151.9 84.1 152.9 84.1 153.7 84.5 153.7 85.7L153.7 88.9ZM151.7 88.5C152.2 88.5 152.7 88.3 153 87.9L153 87C152.7 86.6 152.2 86.5 151.7 86.5 151 86.5 150.5 86.9 150.5 87.5 150.5 88.1 151 88.5 151.7 88.5ZM156.5 89C157 89 157.2 88.9 157.4 88.7L157.2 88.2C157.1 88.3 156.9 88.4 156.7 88.4 156.4 88.4 156.2 88.1 156.2 87.8L156.2 84.8 157.2 84.8 157.2 84.2 156.2 84.2 156.2 82.9 155.5 82.9 155.5 84.2 154.7 84.2 154.7 84.8 155.5 84.8 155.5 87.9C155.5 88.6 155.8 89 156.5 89ZM160.5 89C159.1 89 158.1 88 158.1 86.6 158.1 85.2 159.1 84.1 160.4 84.1 161.9 84.1 162.7 85.2 162.7 86.6L162.7 86.8 158.9 86.8C158.9 87.7 159.6 88.4 160.6 88.4 161.1 88.4 161.7 88.2 162 87.8L162.4 88.3C161.9 88.8 161.3 89 160.5 89ZM162 86.3C162 85.6 161.5 84.7 160.4 84.7 159.4 84.7 158.9 85.5 158.9 86.3L162 86.3ZM170.9 88.9L168.8 86.3 170.9 84.2 169.9 84.2 167.5 86.7 167.5 82.4 166.7 82.4 166.7 88.9 167.5 88.9 167.5 87.6 168.2 86.8 169.9 88.9 170.9 88.9ZM175.8 88.9L175.8 85.6C175.8 84.6 175.3 84.1 174.3 84.1 173.6 84.1 173 84.5 172.6 84.9L172.6 84.2 171.9 84.2 171.9 88.9 172.6 88.9 172.6 85.5C172.9 85.1 173.5 84.7 174 84.7 174.7 84.7 175.1 85 175.1 85.8L175.1 88.9 175.8 88.9ZM179.5 89C178.1 89 177.2 87.9 177.2 86.6 177.2 85.2 178.1 84.1 179.5 84.1 181 84.1 181.9 85.2 181.9 86.6 181.9 87.9 181 89 179.5 89ZM179.5 88.4C180.5 88.4 181.1 87.5 181.1 86.6 181.1 85.6 180.5 84.7 179.5 84.7 178.5 84.7 178 85.6 178 86.6 178 87.5 178.5 88.4 179.5 88.4ZM184.4 89C184.8 89 185.1 88.9 185.3 88.7L185.1 88.2C185 88.3 184.8 88.4 184.6 88.4 184.3 88.4 184.1 88.1 184.1 87.8L184.1 84.8 185.1 84.8 185.1 84.2 184.1 84.2 184.1 82.9 183.4 82.9 183.4 84.2 182.6 84.2 182.6 84.8 183.4 84.8 183.4 87.9C183.4 88.6 183.7 89 184.4 89ZM190.8 86.9L190.8 86.2 188.5 86.2 188.5 86.9 190.8 86.9ZM196.8 89C195.4 89 194.4 88 194.4 86.6 194.4 85.2 195.4 84.1 196.8 84.1 198.2 84.1 199 85.2 199 86.6L199 86.8 195.2 86.8C195.3 87.7 195.9 88.4 196.9 88.4 197.5 88.4 198 88.2 198.4 87.8L198.7 88.3C198.2 88.8 197.6 89 196.8 89ZM198.3 86.3C198.3 85.6 197.8 84.7 196.7 84.7 195.7 84.7 195.2 85.5 195.2 86.3L198.3 86.3ZM204.1 88.9L203.3 88.9 203.3 88.4C202.9 88.8 202.4 89 201.8 89 201 89 200.1 88.5 200.1 87.5 200.1 86.4 201 85.9 201.8 85.9 202.4 85.9 202.9 86.1 203.3 86.6L203.3 85.7C203.3 85.1 202.8 84.7 202.1 84.7 201.6 84.7 201.1 84.9 200.7 85.4L200.3 84.9C200.8 84.3 201.5 84.1 202.2 84.1 203.2 84.1 204.1 84.5 204.1 85.7L204.1 88.9ZM202 88.5C202.5 88.5 203 88.3 203.3 87.9L203.3 87C203 86.6 202.5 86.5 202 86.5 201.3 86.5 200.9 86.9 200.9 87.5 200.9 88.1 201.3 88.5 202 88.5ZM207.8 89C208.6 89 209.1 88.7 209.5 88.2L209 87.8C208.7 88.2 208.3 88.4 207.8 88.4 206.8 88.4 206.2 87.6 206.2 86.6 206.2 85.5 206.8 84.7 207.8 84.7 208.3 84.7 208.7 84.9 209 85.3L209.5 84.9C209.1 84.4 208.6 84.1 207.8 84.1 206.4 84.1 205.4 85.2 205.4 86.6 205.4 88 206.4 89 207.8 89ZM214.6 88.9L214.6 85.6C214.6 84.6 214.1 84.1 213.1 84.1 212.4 84.1 211.8 84.5 211.4 84.9L211.4 82.4 210.7 82.4 210.7 88.9 211.4 88.9 211.4 85.5C211.7 85.1 212.3 84.7 212.8 84.7 213.5 84.7 213.9 85 213.9 85.8L213.9 88.9 214.6 88.9ZM222.6 88.9L221.9 88.9 221.9 88.4C221.5 88.8 221 89 220.3 89 219.5 89 218.7 88.5 218.7 87.5 218.7 86.4 219.5 85.9 220.3 85.9 221 85.9 221.5 86.1 221.9 86.6L221.9 85.7C221.9 85.1 221.4 84.7 220.7 84.7 220.1 84.7 219.7 84.9 219.2 85.4L218.9 84.9C219.4 84.3 220 84.1 220.8 84.1 221.8 84.1 222.6 84.5 222.6 85.7L222.6 88.9ZM220.6 88.5C221.1 88.5 221.6 88.3 221.9 87.9L221.9 87C221.6 86.6 221.1 86.5 220.6 86.5 219.9 86.5 219.4 86.9 219.4 87.5 219.4 88.1 219.9 88.5 220.6 88.5ZM228.4 88.9L227.7 88.9 227.7 88.2C227.3 88.7 226.8 89 226.1 89 224.9 89 224 88.1 224 86.6 224 85.1 224.9 84.1 226.1 84.1 226.7 84.1 227.3 84.4 227.7 84.9L227.7 82.4 228.4 82.4 228.4 88.9ZM226.3 88.4C226.9 88.4 227.4 88 227.7 87.6L227.7 85.5C227.4 85.1 226.9 84.7 226.3 84.7 225.3 84.7 224.7 85.5 224.7 86.6 224.7 87.6 225.3 88.4 226.3 88.4ZM234.2 88.9L233.5 88.9 233.5 88.2C233.1 88.7 232.5 89 231.9 89 230.6 89 229.8 88.1 229.8 86.6 229.8 85.1 230.6 84.1 231.9 84.1 232.5 84.1 233.1 84.4 233.5 84.9L233.5 82.4 234.2 82.4 234.2 88.9ZM232.1 88.4C232.6 88.4 233.2 88 233.5 87.6L233.5 85.5C233.2 85.1 232.6 84.7 232.1 84.7 231.1 84.7 230.5 85.5 230.5 86.6 230.5 87.6 231.1 88.4 232.1 88.4ZM236.2 83.5C236.5 83.5 236.7 83.3 236.7 83 236.7 82.8 236.5 82.5 236.2 82.5 235.9 82.5 235.7 82.8 235.7 83 235.7 83.3 235.9 83.5 236.2 83.5ZM236.6 88.9L236.6 84.2 235.8 84.2 235.8 88.9 236.6 88.9ZM242.1 88.9L242.1 85.6C242.1 84.6 241.6 84.1 240.6 84.1 239.9 84.1 239.2 84.5 238.9 84.9L238.9 84.2 238.2 84.2 238.2 88.9 238.9 88.9 238.9 85.5C239.2 85.1 239.7 84.7 240.3 84.7 240.9 84.7 241.4 85 241.4 85.8L241.4 88.9 242.1 88.9ZM245.6 90.8C244.8 90.8 244.3 90.7 243.7 90.1L244.1 89.6C244.5 90.1 245 90.2 245.6 90.2 246.4 90.2 247.2 89.9 247.2 88.9L247.2 88.1C246.8 88.6 246.2 89 245.6 89 244.3 89 243.5 88.1 243.5 86.5 243.5 85 244.3 84.1 245.6 84.1 246.2 84.1 246.8 84.4 247.2 84.9L247.2 84.2 247.9 84.2 247.9 88.9C247.9 90.4 246.8 90.8 245.6 90.8ZM245.7 88.3C246.3 88.3 246.9 88 247.2 87.6L247.2 85.5C246.9 85.1 246.3 84.7 245.7 84.7 244.8 84.7 244.2 85.5 244.2 86.5 244.2 87.6 244.8 88.3 245.7 88.3ZM254.3 89C252.8 89 251.9 87.9 251.9 86.6 251.9 85.2 252.8 84.1 254.3 84.1 255.7 84.1 256.6 85.2 256.6 86.6 256.6 87.9 255.7 89 254.3 89ZM254.3 88.4C255.3 88.4 255.8 87.5 255.8 86.6 255.8 85.6 255.3 84.7 254.3 84.7 253.3 84.7 252.7 85.6 252.7 86.6 252.7 87.5 253.3 88.4 254.3 88.4ZM261.9 88.9L261.9 85.6C261.9 84.6 261.4 84.1 260.4 84.1 259.7 84.1 259 84.5 258.7 84.9L258.7 84.2 257.9 84.2 257.9 88.9 258.7 88.9 258.7 85.5C259 85.1 259.5 84.7 260.1 84.7 260.7 84.7 261.1 85 261.1 85.8L261.1 88.9 261.9 88.9ZM267.4 89C267.8 89 268.1 88.9 268.3 88.7L268 88.2C268 88.3 267.8 88.4 267.5 88.4 267.2 88.4 267.1 88.1 267.1 87.8L267.1 84.8 268 84.8 268 84.2 267.1 84.2 267.1 82.9 266.3 82.9 266.3 84.2 265.6 84.2 265.6 84.8 266.3 84.8 266.3 87.9C266.3 88.6 266.7 89 267.4 89ZM271.3 89C269.8 89 268.9 87.9 268.9 86.6 268.9 85.2 269.8 84.1 271.3 84.1 272.7 84.1 273.6 85.2 273.6 86.6 273.6 87.9 272.7 89 271.3 89ZM271.3 88.4C272.3 88.4 272.9 87.5 272.9 86.6 272.9 85.6 272.3 84.7 271.3 84.7 270.3 84.7 269.7 85.6 269.7 86.6 269.7 87.5 270.3 88.4 271.3 88.4ZM15.9 105.1C16.3 105.1 16.6 105 16.8 104.8L16.5 104.3C16.4 104.4 16.3 104.5 16 104.5 15.7 104.5 15.6 104.2 15.6 103.9L15.6 100.9 16.5 100.9 16.5 100.3 15.6 100.3 15.6 99 14.8 99 14.8 100.3 14 100.3 14 100.9 14.8 100.9 14.8 104C14.8 104.7 15.2 105.1 15.9 105.1ZM21.6 105L21.6 101.7C21.6 100.7 21.1 100.2 20.1 100.2 19.4 100.2 18.8 100.6 18.5 101L18.5 98.5 17.7 98.5 17.7 105 18.5 105 18.5 101.6C18.7 101.2 19.3 100.8 19.8 100.8 20.5 100.8 20.9 101.1 20.9 101.9L20.9 105 21.6 105ZM25.4 105.1C24 105.1 23 104.1 23 102.6 23 101.3 24 100.2 25.3 100.2 26.8 100.2 27.6 101.3 27.6 102.7L27.6 102.9 23.8 102.9C23.8 103.8 24.4 104.5 25.5 104.5 26 104.5 26.6 104.3 26.9 103.9L27.3 104.4C26.8 104.9 26.2 105.1 25.4 105.1ZM26.9 102.3C26.9 101.6 26.4 100.8 25.3 100.8 24.3 100.8 23.8 101.6 23.8 102.3L26.9 102.3ZM32.3 105L32.3 98.5 31.6 98.5 31.6 105 32.3 105ZM37.7 105L36.9 105 36.9 104.5C36.5 104.9 36 105.1 35.4 105.1 34.6 105.1 33.7 104.6 33.7 103.6 33.7 102.5 34.6 102 35.4 102 36 102 36.5 102.2 36.9 102.6L36.9 101.8C36.9 101.2 36.4 100.8 35.7 100.8 35.2 100.8 34.7 101 34.3 101.5L33.9 101C34.4 100.4 35.1 100.2 35.8 100.2 36.8 100.2 37.7 100.6 37.7 101.8L37.7 105ZM35.6 104.6C36.1 104.6 36.6 104.4 36.9 104L36.9 103.1C36.6 102.7 36.1 102.5 35.6 102.5 34.9 102.5 34.5 103 34.5 103.6 34.5 104.2 34.9 104.6 35.6 104.6ZM40.8 105.1C42 105.1 42.6 104.5 42.6 103.7 42.6 101.9 39.7 102.5 39.7 101.5 39.7 101.1 40.1 100.8 40.8 100.8 41.4 100.8 41.9 101 42.2 101.4L42.5 100.9C42.1 100.5 41.6 100.2 40.8 100.2 39.6 100.2 39 100.8 39 101.5 39 103.3 41.9 102.6 41.9 103.7 41.9 104.2 41.5 104.5 40.8 104.5 40.2 104.5 39.6 104.2 39.3 103.9L38.9 104.4C39.4 104.9 40 105.1 40.8 105.1ZM45.2 105.1C45.6 105.1 45.9 105 46.1 104.8L45.9 104.3C45.8 104.4 45.6 104.5 45.4 104.5 45 104.5 44.9 104.2 44.9 103.9L44.9 100.9 45.8 100.9 45.8 100.3 44.9 100.3 44.9 99 44.1 99 44.1 100.3 43.4 100.3 43.4 100.9 44.1 100.9 44.1 104C44.1 104.7 44.5 105.1 45.2 105.1ZM50.9 105.1C51.3 105.1 51.6 105 51.8 104.8L51.6 104.3C51.5 104.4 51.3 104.5 51.1 104.5 50.8 104.5 50.6 104.2 50.6 103.9L50.6 100.9 51.6 100.9 51.6 100.3 50.6 100.3 50.6 99 49.9 99 49.9 100.3 49.1 100.3 49.1 100.9 49.9 100.9 49.9 104C49.9 104.7 50.2 105.1 50.9 105.1ZM54.8 105.1C53.4 105.1 52.5 104 52.5 102.6 52.5 101.3 53.4 100.2 54.8 100.2 56.2 100.2 57.1 101.3 57.1 102.6 57.1 104 56.2 105.1 54.8 105.1ZM54.8 104.5C55.8 104.5 56.4 103.6 56.4 102.6 56.4 101.7 55.8 100.8 54.8 100.8 53.8 100.8 53.2 101.7 53.2 102.6 53.2 103.6 53.8 104.5 54.8 104.5ZM63.3 105.1C64.1 105.1 64.6 104.8 65 104.3L64.5 103.9C64.2 104.3 63.8 104.5 63.3 104.5 62.3 104.5 61.7 103.7 61.7 102.6 61.7 101.6 62.3 100.8 63.3 100.8 63.8 100.8 64.2 101 64.5 101.4L65 101C64.6 100.5 64.1 100.2 63.3 100.2 61.9 100.2 60.9 101.2 60.9 102.6 60.9 104 61.9 105.1 63.3 105.1ZM66.9 105L66.9 101.7C67.1 101.3 67.7 100.9 68.2 100.9 68.3 100.9 68.4 100.9 68.5 100.9L68.5 100.2C67.8 100.2 67.3 100.6 66.9 101L66.9 100.3 66.2 100.3 66.2 105 66.9 105ZM71.7 105.1C70.3 105.1 69.3 104.1 69.3 102.6 69.3 101.3 70.3 100.2 71.6 100.2 73.1 100.2 73.9 101.3 73.9 102.7L73.9 102.9 70.1 102.9C70.1 103.8 70.7 104.5 71.8 104.5 72.3 104.5 72.9 104.3 73.2 103.9L73.6 104.4C73.1 104.9 72.5 105.1 71.7 105.1ZM73.2 102.3C73.2 101.6 72.7 100.8 71.6 100.8 70.6 100.8 70.1 101.6 70.1 102.3L73.2 102.3ZM78.9 105L78.2 105 78.2 104.5C77.8 104.9 77.3 105.1 76.6 105.1 75.8 105.1 75 104.6 75 103.6 75 102.5 75.8 102 76.6 102 77.3 102 77.8 102.2 78.2 102.6L78.2 101.8C78.2 101.2 77.7 100.8 77 100.8 76.4 100.8 76 101 75.5 101.5L75.2 101C75.7 100.4 76.3 100.2 77.1 100.2 78.1 100.2 78.9 100.6 78.9 101.8L78.9 105ZM76.9 104.6C77.4 104.6 77.9 104.4 78.2 104L78.2 103.1C77.9 102.7 77.4 102.5 76.9 102.5 76.2 102.5 75.7 103 75.7 103.6 75.7 104.2 76.2 104.6 76.9 104.6ZM81.8 105.1C82.2 105.1 82.4 105 82.6 104.8L82.4 104.3C82.3 104.4 82.1 104.5 81.9 104.5 81.6 104.5 81.4 104.2 81.4 103.9L81.4 100.9 82.4 100.9 82.4 100.3 81.4 100.3 81.4 99 80.7 99 80.7 100.3 79.9 100.3 79.9 100.9 80.7 100.9 80.7 104C80.7 104.7 81 105.1 81.8 105.1ZM85.7 105.1C84.3 105.1 83.3 104.1 83.3 102.6 83.3 101.3 84.3 100.2 85.6 100.2 87.1 100.2 87.9 101.3 87.9 102.7L87.9 102.9 84.1 102.9C84.1 103.8 84.8 104.5 85.8 104.5 86.3 104.5 86.9 104.3 87.3 103.9L87.6 104.4C87.1 104.9 86.5 105.1 85.7 105.1ZM87.2 102.3C87.2 101.6 86.7 100.8 85.6 100.8 84.6 100.8 84.1 101.6 84.1 102.3L87.2 102.3ZM91.7 106.9C91.8 106.9 92 106.9 92.2 106.9 92.8 106.9 93.3 106.7 93.6 106L96 100.3 95.2 100.3 93.6 104.2 92 100.3 91.2 100.3 93.2 105.1 92.9 105.8C92.7 106.2 92.5 106.3 92.2 106.3 92.1 106.3 91.9 106.3 91.8 106.2L91.7 106.9ZM98.9 105.1C97.5 105.1 96.6 104 96.6 102.6 96.6 101.3 97.5 100.2 98.9 100.2 100.4 100.2 101.3 101.3 101.3 102.6 101.3 104 100.4 105.1 98.9 105.1ZM98.9 104.5C100 104.5 100.5 103.6 100.5 102.6 100.5 101.7 100 100.8 98.9 100.8 97.9 100.8 97.4 101.7 97.4 102.6 97.4 103.6 97.9 104.5 98.9 104.5ZM106.6 105L106.6 100.3 105.8 100.3 105.8 103.8C105.5 104.1 105 104.5 104.4 104.5 103.8 104.5 103.4 104.2 103.4 103.4L103.4 100.3 102.6 100.3 102.6 103.6C102.6 104.6 103.1 105.1 104.1 105.1 104.8 105.1 105.5 104.8 105.8 104.4L105.8 105 106.6 105ZM108.9 105L108.9 101.7C109.1 101.3 109.7 100.9 110.2 100.9 110.3 100.9 110.4 100.9 110.5 100.9L110.5 100.2C109.8 100.2 109.3 100.6 108.9 101L108.9 100.3 108.2 100.3 108.2 105 108.9 105ZM116.3 105.1C114.9 105.1 114 104 114 102.6 114 101.3 114.9 100.2 116.3 100.2 117.7 100.2 118.6 101.3 118.6 102.6 118.6 104 117.7 105.1 116.3 105.1ZM116.3 104.5C117.3 104.5 117.9 103.6 117.9 102.6 117.9 101.7 117.3 100.8 116.3 100.8 115.3 100.8 114.7 101.7 114.7 102.6 114.7 103.6 115.3 104.5 116.3 104.5ZM124.8 105L126.3 100.3 125.6 100.3 124.4 104.1 123.2 100.3 122.5 100.3 121.3 104.1 120.1 100.3 119.4 100.3 120.9 105 121.6 105 122.9 101.2 124.1 105 124.8 105ZM131.3 105L131.3 101.7C131.3 100.7 130.7 100.2 129.8 100.2 129 100.2 128.4 100.6 128.1 101L128.1 100.3 127.3 100.3 127.3 105 128.1 105 128.1 101.6C128.4 101.2 128.9 100.8 129.5 100.8 130.1 100.8 130.5 101.1 130.5 101.9L130.5 105 131.3 105ZM139.7 105L139 105 139 104.3C138.6 104.8 138.1 105.1 137.4 105.1 136.2 105.1 135.3 104.2 135.3 102.7 135.3 101.1 136.2 100.2 137.4 100.2 138 100.2 138.6 100.5 139 101L139 98.5 139.7 98.5 139.7 105ZM137.6 104.5C138.2 104.5 138.7 104.1 139 103.7L139 101.6C138.7 101.2 138.2 100.8 137.6 100.8 136.6 100.8 136.1 101.6 136.1 102.7 136.1 103.7 136.6 104.5 137.6 104.5ZM143.5 105.1C142.1 105.1 141.1 104.1 141.1 102.6 141.1 101.3 142.1 100.2 143.4 100.2 144.8 100.2 145.7 101.3 145.7 102.7L145.7 102.9 141.9 102.9C141.9 103.8 142.5 104.5 143.6 104.5 144.1 104.5 144.6 104.3 145 103.9L145.4 104.4C144.9 104.9 144.3 105.1 143.5 105.1ZM145 102.3C144.9 101.6 144.5 100.8 143.4 100.8 142.4 100.8 141.9 101.6 141.9 102.3L145 102.3ZM148.5 105.1C149.7 105.1 150.4 104.5 150.4 103.7 150.4 101.9 147.5 102.5 147.5 101.5 147.5 101.1 147.9 100.8 148.5 100.8 149.1 100.8 149.6 101 149.9 101.4L150.3 100.9C149.9 100.5 149.3 100.2 148.5 100.2 147.4 100.2 146.7 100.8 146.7 101.5 146.7 103.3 149.7 102.6 149.7 103.7 149.7 104.2 149.3 104.5 148.5 104.5 147.9 104.5 147.3 104.2 147 103.9L146.6 104.4C147.1 104.9 147.7 105.1 148.5 105.1ZM152.1 99.6C152.4 99.6 152.6 99.4 152.6 99.1 152.6 98.8 152.4 98.6 152.1 98.6 151.8 98.6 151.6 98.8 151.6 99.1 151.6 99.4 151.8 99.6 152.1 99.6ZM152.5 105L152.5 100.3 151.7 100.3 151.7 105 152.5 105ZM156 106.9C155.2 106.9 154.6 106.8 154.1 106.2L154.4 105.7C154.8 106.2 155.3 106.3 156 106.3 156.8 106.3 157.5 105.9 157.5 104.9L157.5 104.2C157.2 104.7 156.6 105.1 155.9 105.1 154.7 105.1 153.8 104.2 153.8 102.6 153.8 101.1 154.7 100.2 155.9 100.2 156.5 100.2 157.1 100.5 157.5 101L157.5 100.3 158.2 100.3 158.2 104.9C158.2 106.4 157.1 106.9 156 106.9ZM156.1 104.4C156.7 104.4 157.2 104.1 157.5 103.7L157.5 101.6C157.2 101.2 156.7 100.8 156.1 100.8 155.1 100.8 154.6 101.6 154.6 102.6 154.6 103.7 155.1 104.4 156.1 104.4ZM163.8 105L163.8 101.7C163.8 100.7 163.3 100.2 162.3 100.2 161.6 100.2 160.9 100.6 160.6 101L160.6 100.3 159.9 100.3 159.9 105 160.6 105 160.6 101.6C160.9 101.2 161.4 100.8 162 100.8 162.6 100.8 163.1 101.1 163.1 101.9L163.1 105 163.8 105ZM167.6 105.1C166.1 105.1 165.1 104.1 165.1 102.6 165.1 101.3 166.1 100.2 167.5 100.2 168.9 100.2 169.7 101.3 169.7 102.7L169.7 102.9 165.9 102.9C166 103.8 166.6 104.5 167.6 104.5 168.2 104.5 168.7 104.3 169.1 103.9L169.4 104.4C169 104.9 168.3 105.1 167.6 105.1ZM169 102.3C169 101.6 168.5 100.8 167.5 100.8 166.5 100.8 166 101.6 165.9 102.3L169 102.3ZM171.8 105L171.8 101.7C172 101.3 172.6 100.9 173.1 100.9 173.2 100.9 173.3 100.9 173.4 100.9L173.4 100.2C172.7 100.2 172.2 100.6 171.8 101L171.8 100.3 171.1 100.3 171.1 105 171.8 105ZM176.4 103L176.4 102.3 174 102.3 174 103 176.4 103ZM182.4 105L183.9 100.3 183.1 100.3 182 104.1 180.7 100.3 180.1 100.3 178.8 104.1 177.7 100.3 176.9 100.3 178.4 105 179.2 105 180.4 101.2 181.6 105 182.4 105ZM187 105.1C185.5 105.1 184.6 104 184.6 102.6 184.6 101.3 185.5 100.2 187 100.2 188.4 100.2 189.3 101.3 189.3 102.6 189.3 104 188.4 105.1 187 105.1ZM187 104.5C188 104.5 188.5 103.6 188.5 102.6 188.5 101.7 188 100.8 187 100.8 185.9 100.8 185.4 101.7 185.4 102.6 185.4 103.6 185.9 104.5 187 104.5ZM191.4 105L191.4 101.7C191.6 101.3 192.2 100.9 192.7 100.9 192.8 100.9 192.9 100.9 192.9 100.9L192.9 100.2C192.3 100.2 191.8 100.6 191.4 101L191.4 100.3 190.6 100.3 190.6 105 191.4 105ZM195.2 105.1C195.6 105.1 195.9 105 196.1 104.8L195.9 104.3C195.8 104.4 195.6 104.5 195.4 104.5 195.1 104.5 194.9 104.2 194.9 103.9L194.9 100.9 195.9 100.9 195.9 100.3 194.9 100.3 194.9 99 194.2 99 194.2 100.3 193.4 100.3 193.4 100.9 194.2 100.9 194.2 104C194.2 104.7 194.5 105.1 195.2 105.1ZM201 105L201 101.7C201 100.7 200.5 100.2 199.5 100.2 198.8 100.2 198.1 100.6 197.8 101L197.8 98.5 197.1 98.5 197.1 105 197.8 105 197.8 101.6C198.1 101.2 198.6 100.8 199.2 100.8 199.8 100.8 200.2 101.1 200.2 101.9L200.2 105 201 105ZM202.3 106.9C202.5 106.9 202.7 106.9 202.9 106.9 203.5 106.9 204 106.7 204.3 106L206.6 100.3 205.8 100.3 204.3 104.2 202.7 100.3 201.9 100.3 203.9 105.1 203.6 105.8C203.4 106.2 203.2 106.3 202.9 106.3 202.7 106.3 202.6 106.3 202.5 106.2L202.3 106.9ZM210.6 99.6C210.9 99.6 211.1 99.4 211.1 99.1 211.1 98.8 210.9 98.6 210.6 98.6 210.3 98.6 210.1 98.8 210.1 99.1 210.1 99.4 210.3 99.6 210.6 99.6ZM209.6 106.9C210.5 106.9 211 106.4 211 105.5L211 100.3 210.2 100.3 210.2 105.5C210.2 106.1 209.9 106.3 209.5 106.3 209.2 106.3 209 106.2 208.8 106L208.5 106.6C208.8 106.8 209.1 106.9 209.6 106.9ZM214.7 105.1C213.3 105.1 212.3 104.1 212.3 102.6 212.3 101.3 213.3 100.2 214.6 100.2 216.1 100.2 216.9 101.3 216.9 102.7L216.9 102.9 213.1 102.9C213.2 103.8 213.8 104.5 214.8 104.5 215.3 104.5 215.9 104.3 216.3 103.9L216.6 104.4C216.1 104.9 215.5 105.1 214.7 105.1ZM216.2 102.3C216.2 101.6 215.7 100.8 214.6 100.8 213.6 100.8 213.1 101.6 213.1 102.3L216.2 102.3ZM223.1 105L224.6 100.3 223.8 100.3 222.7 104.1 221.4 100.3 220.8 100.3 219.6 104.1 218.4 100.3 217.6 100.3 219.1 105 219.9 105 221.1 101.2 222.3 105 223.1 105ZM227.7 105.1C226.3 105.1 225.3 104.1 225.3 102.6 225.3 101.3 226.3 100.2 227.7 100.2 229.1 100.2 229.9 101.3 229.9 102.7L229.9 102.9 226.1 102.9C226.2 103.8 226.8 104.5 227.8 104.5 228.3 104.5 228.9 104.3 229.3 103.9L229.6 104.4C229.1 104.9 228.5 105.1 227.7 105.1ZM229.2 102.3C229.2 101.6 228.7 100.8 227.6 100.8 226.6 100.8 226.1 101.6 226.1 102.3L229.2 102.3ZM232 105L232 98.5 231.3 98.5 231.3 105 232 105ZM234.3 105L234.3 101.7C234.6 101.3 235.2 100.9 235.6 100.9 235.7 100.9 235.8 100.9 235.9 100.9L235.9 100.2C235.3 100.2 234.7 100.6 234.3 101L234.3 100.3 233.6 100.3 233.6 105 234.3 105ZM236.7 106.9C236.9 106.9 237.1 106.9 237.3 106.9 237.9 106.9 238.4 106.7 238.7 106L241 100.3 240.2 100.3 238.7 104.2 237.1 100.3 236.3 100.3 238.3 105.1 238 105.8C237.8 106.2 237.6 106.3 237.2 106.3 237.1 106.3 237 106.3 236.8 106.2L236.7 106.9ZM242.6 103.2L242.8 98.5 241.9 98.5 242 103.2 242.6 103.2ZM242.3 105.1C242.6 105.1 242.9 104.9 242.9 104.6 242.9 104.3 242.6 104 242.3 104 242 104 241.8 104.3 241.8 104.6 241.8 104.9 242 105.1 242.3 105.1ZM22.5 31.2L22.5 23.7 20.6 23.7 18.6 28.9 16.6 23.7 14.7 23.7 14.7 31.2 16 31.2 16 25.4 18.3 31.2 18.9 31.2 21.2 25.4 21.2 31.2 22.5 31.2ZM31.5 31.2L30 31.2 29.5 29.8 26 29.8 25.5 31.2 24 31.2 26.9 23.7 28.6 23.7 31.5 31.2ZM29.1 28.6L27.8 25.1 26.4 28.6 29.1 28.6ZM39.1 31.2L35.8 27.3 38.9 23.7 37.2 23.7 34.3 27.3 34.3 23.7 33 23.7 33 31.2 34.3 31.2 34.3 28.8 35 28.1 37.5 31.2 39.1 31.2ZM45.8 31.2L45.8 30.1 42 30.1 42 28 45.7 28 45.7 26.8 42 26.8 42 24.9 45.8 24.9 45.8 23.7 40.7 23.7 40.7 31.2 45.8 31.2ZM54.8 31.2L54.8 28.1 57.7 23.7 56.2 23.7 54.2 26.9 52.1 23.7 50.6 23.7 53.5 28.1 53.5 31.2 54.8 31.2ZM62.3 31.3C60 31.3 58.5 29.7 58.5 27.5 58.5 25.3 60 23.6 62.3 23.6 64.5 23.6 66.1 25.3 66.1 27.5 66.1 29.7 64.5 31.3 62.3 31.3ZM62.3 30.2C63.8 30.2 64.8 29 64.8 27.5 64.8 25.9 63.8 24.8 62.3 24.8 60.8 24.8 59.8 25.9 59.8 27.5 59.8 29 60.8 30.2 62.3 30.2ZM71.3 31.3C73.5 31.3 74.5 30.1 74.5 28.3L74.5 23.7 73.2 23.7 73.2 28.2C73.2 29.4 72.5 30.2 71.3 30.2 70 30.2 69.4 29.4 69.4 28.2L69.4 23.7 68.1 23.7 68.1 28.3C68.1 30.1 69.1 31.3 71.3 31.3ZM82.6 31.2L81.1 31.2 79.4 28.4 78.1 28.4 78.1 31.2 76.8 31.2 76.8 23.7 80.1 23.7C81.6 23.7 82.5 24.7 82.5 26.1 82.5 27.4 81.7 28.1 80.8 28.3L82.6 31.2ZM79.9 27.3C80.7 27.3 81.2 26.8 81.2 26.1 81.2 25.4 80.7 24.9 79.9 24.9L78.1 24.9 78.1 27.3 79.9 27.3ZM89.4 31.2L88.1 31.2 88.1 23.7 91.4 23.7C93 23.7 93.9 24.8 93.9 26.1 93.9 27.4 93 28.4 91.4 28.4L89.4 28.4 89.4 31.2ZM91.2 27.3C92 27.3 92.5 26.8 92.5 26.1 92.5 25.4 92 24.9 91.2 24.9L89.4 24.9 89.4 27.3 91.2 27.3ZM101.4 31.2L99.9 31.2 98.3 28.4 97 28.4 97 31.2 95.7 31.2 95.7 23.7 98.9 23.7C100.4 23.7 101.4 24.7 101.4 26.1 101.4 27.4 100.5 28.1 99.6 28.3L101.4 31.2ZM98.8 27.3C99.5 27.3 100 26.8 100 26.1 100 25.4 99.5 24.9 98.8 24.9L97 24.9 97 27.3 98.8 27.3ZM106.9 31.3C104.6 31.3 103.1 29.7 103.1 27.5 103.1 25.3 104.6 23.6 106.9 23.6 109.1 23.6 110.7 25.3 110.7 27.5 110.7 29.7 109.1 31.3 106.9 31.3ZM106.9 30.2C108.4 30.2 109.4 29 109.4 27.5 109.4 25.9 108.4 24.8 106.9 24.8 105.4 24.8 104.4 25.9 104.4 27.5 104.4 29 105.4 30.2 106.9 30.2ZM113.7 31.3C115.2 31.3 116.2 30.5 116.2 28.8L116.2 23.7 114.9 23.7 114.9 28.8C114.9 29.6 114.4 30.2 113.6 30.2 113 30.2 112.6 29.9 112.3 29.6L111.7 30.6C112.3 31.1 112.9 31.3 113.7 31.3ZM123.6 31.2L123.6 30.1 119.8 30.1 119.8 28 123.6 28 123.6 26.8 119.8 26.8 119.8 24.9 123.6 24.9 123.6 23.7 118.5 23.7 118.5 31.2 123.6 31.2ZM129.3 31.3C130.8 31.3 131.7 30.6 132.3 29.7L131.2 29.1C130.8 29.7 130.1 30.2 129.3 30.2 127.8 30.2 126.7 29 126.7 27.5 126.7 25.9 127.8 24.8 129.3 24.8 130.1 24.8 130.8 25.2 131.2 25.9L132.3 25.3C131.7 24.4 130.8 23.6 129.3 23.6 127.1 23.6 125.4 25.2 125.4 27.5 125.4 29.8 127.1 31.3 129.3 31.3ZM137.1 31.2L137.1 24.9 139.4 24.9 139.4 23.7 133.5 23.7 133.5 24.9 135.8 24.9 135.8 31.2 137.1 31.2ZM149.9 31.2L149.9 30.1 146.1 30.1 146.1 28 149.8 28 149.8 26.8 146.1 26.8 146.1 24.9 149.9 24.9 149.9 23.7 144.8 23.7 144.8 31.2 149.9 31.2ZM155.7 31.2L158.6 23.7 157.1 23.7 154.9 29.8 152.6 23.7 151.1 23.7 154.1 31.2 155.7 31.2ZM165.3 31.2L165.3 30.1 161.5 30.1 161.5 28 165.2 28 165.2 26.8 161.5 26.8 161.5 24.9 165.3 24.9 165.3 23.7 160.1 23.7 160.1 31.2 165.3 31.2ZM173.8 31.2L173.8 23.7 172.5 23.7 172.5 28.9 168.6 23.7 167.3 23.7 167.3 31.2 168.6 31.2 168.6 25.9 172.5 31.2 173.8 31.2ZM183.4 31.2L179.6 31.2 179.6 23.7 183.3 23.7C184.7 23.7 185.4 24.6 185.4 25.7 185.4 26.6 184.8 27.2 184.1 27.4 184.9 27.5 185.6 28.3 185.6 29.2 185.6 30.4 184.8 31.2 183.4 31.2ZM183.1 26.8C183.7 26.8 184.1 26.4 184.1 25.9 184.1 25.3 183.7 24.9 183.1 24.9L181 24.9 181 26.8 183.1 26.8ZM183.1 30.1C183.8 30.1 184.2 29.7 184.2 29 184.2 28.5 183.9 28 183.1 28L181 28 181 30.1 183.1 30.1ZM192.7 31.2L192.7 30.1 188.9 30.1 188.9 28 192.6 28 192.6 26.8 188.9 26.8 188.9 24.9 192.7 24.9 192.7 23.7 187.6 23.7 187.6 31.2 192.7 31.2ZM197.9 31.2L197.9 24.9 200.1 24.9 200.1 23.7 194.3 23.7 194.3 24.9 196.5 24.9 196.5 31.2 197.9 31.2ZM205 31.2L205 24.9 207.3 24.9 207.3 23.7 201.4 23.7 201.4 24.9 203.7 24.9 203.7 31.2 205 31.2ZM214.2 31.2L214.2 30.1 210.4 30.1 210.4 28 214.1 28 214.1 26.8 210.4 26.8 210.4 24.9 214.2 24.9 214.2 23.7 209.1 23.7 209.1 31.2 214.2 31.2ZM222 31.2L220.5 31.2 218.9 28.4 217.5 28.4 217.5 31.2 216.2 31.2 216.2 23.7 219.5 23.7C221 23.7 222 24.7 222 26.1 222 27.4 221.1 28.1 220.2 28.3L222 31.2ZM219.3 27.3C220.1 27.3 220.6 26.8 220.6 26.1 220.6 25.4 220.1 24.9 219.3 24.9L217.5 24.9 217.5 27.3 219.3 27.3ZM224.6 31.3C225 31.3 225.3 31 225.3 30.5 225.3 30.1 225 29.8 224.6 29.8 224.1 29.8 223.8 30.1 223.8 30.5 223.8 31 224.1 31.3 224.6 31.3Z" fill="#525252" fill-rule="nonzero"/></g></g></g></svg>