<svg xmlns="http://www.w3.org/2000/svg" xmlns:xlink="http://www.w3.org/1999/xlink" width="649" height="624" viewBox="0 0 649 624" version="1.1"><title>Group</title><desc>Created with Sketch Beta.</desc><defs><rect id="path-1" x="442" y="242" width="174.9" height="27.4"/><mask id="mask-2" maskContentUnits="userSpaceOnUse" maskUnits="objectBoundingBox" x="0" y="0" width="174.9" height="27.4" fill="white"><use xlink:href="#path-1"/></mask><path d="M102.1 419.9L422.1 419.9 422.1 564 27.1 564 27.1 420.5 27.1 389 102.1 389 102.1 419.9Z" id="path-3"/><mask id="mask-4" maskContentUnits="userSpaceOnUse" maskUnits="objectBoundingBox" x="0" y="0" width="395" height="175" fill="white"><use xlink:href="#path-3"/></mask></defs><g id="Page-5" stroke="none" stroke-width="1" fill="none" fill-rule="evenodd"><g id="Group"><rect id="Rectangle-4" fill="#FFFFFF" x="1" y="16.5" width="648" height="606.6"/><polygon id="select-dropdown" fill="#B4B4B4" transform="translate(546.790766, 176.785266) rotate(180.000000) translate(-546.790766, -176.785266) " points="546.8 172 551.6 181.6 542 181.6"/><rect id="cta-bg" fill="#E3E3E3" x="434" y="127" width="190.1" height="153.6"/><rect id="button-secondary-text" fill="#B4B4B4" x="478" y="250" width="102.4" height="11.9"/><rect id="select-bg" fill="#FFFFFF" x="442" y="170" width="174.9" height="26.2"/><rect id="button-primary" fill="#525252" x="442" y="207" width="174.9" height="27.4"/><use id="button-secondary" stroke="#B4B4B4" mask="url(#mask-2)" stroke-width="2" xlink:href="#path-1"/><polygon id="select-dropdown" fill="#B4B4B4" transform="translate(600.790766, 184.785266) rotate(180.000000) translate(-600.790766, -184.785266) " points="600.8 180 605.6 189.6 596 189.6"/><rect id="select-text" fill="#B4B4B4" x="449" y="182" width="29.8" height="4.8"/><rect id="button-text" fill="#FFFFFF" x="478" y="215" width="102.4" height="11.9"/><path d="M447.7 160.1L447.7 158.2C445.6 158.1 444 157.2 442.9 156L444 154.7C444.8 155.6 446 156.5 447.7 156.7L447.7 151.6C445.5 151 443.3 150.3 443.3 147.7 443.3 145.5 445.2 144 447.7 143.8L447.7 141.9 449 141.9 449 143.8C450.7 144 452.1 144.7 453.1 145.7L452.1 147C451.2 146.1 450.1 145.6 449 145.4L449 150C451.1 150.6 453.4 151.4 453.4 154.1 453.4 156 452.2 158 449 158.2L449 160.1 447.7 160.1ZM451.6 154.3C451.6 152.9 450.4 152.3 449 151.9L449 156.7C451 156.5 451.6 155.3 451.6 154.3ZM445.2 147.6C445.2 148.7 446.3 149.2 447.7 149.6L447.7 145.4C446.2 145.5 445.2 146.3 445.2 147.6ZM465.2 158L465.2 156.4 458.3 156.4C462.2 153.4 465.1 150.8 465.1 147.9 465.1 145.1 462.8 143.8 460.4 143.8 458.5 143.8 456.6 144.6 455.6 146L456.6 147.1C457.5 146.1 458.8 145.3 460.4 145.3 461.9 145.3 463.4 146.1 463.4 147.9 463.4 150.3 460.6 152.6 455.6 156.6L455.6 158 465.2 158ZM472.5 158.2C470.7 158.2 469.4 157.5 468.6 156.6L469.4 155.2C470.2 156.1 471 156.7 472.5 156.7 475.3 156.7 476.4 153.8 476.4 151.2 476.4 151 476.4 150.8 476.4 150.6 475.8 151.6 474.2 152.8 472.4 152.8 469.9 152.8 467.8 151.3 467.8 148.3 467.8 145.9 469.7 143.8 472.7 143.8 476.7 143.8 478.2 147.2 478.2 151 478.2 154.8 476.4 158.2 472.5 158.2ZM472.8 151.3C474.2 151.3 475.6 150.4 476.3 149.2 476.2 147.5 475.2 145.3 472.8 145.3 470.7 145.3 469.6 146.9 469.6 148.3 469.6 150.3 471 151.3 472.8 151.3ZM481.6 158.2C482.3 158.2 482.8 157.7 482.8 157.1 482.8 156.4 482.3 155.9 481.6 155.9 481 155.9 480.5 156.4 480.5 157.1 480.5 157.7 481 158.2 481.6 158.2ZM489.7 158.2C487.9 158.2 486.7 157.5 485.8 156.6L486.7 155.2C487.4 156.1 488.3 156.7 489.7 156.7 492.5 156.7 493.7 153.8 493.7 151.2 493.7 151 493.7 150.8 493.6 150.6 493 151.6 491.5 152.8 489.7 152.8 487.2 152.8 485.1 151.3 485.1 148.3 485.1 145.9 486.9 143.8 490 143.8 493.9 143.8 495.4 147.2 495.4 151 495.4 154.8 493.6 158.2 489.7 158.2ZM490.1 151.3C491.5 151.3 492.8 150.4 493.6 149.2 493.4 147.5 492.5 145.3 490.1 145.3 487.9 145.3 486.9 146.9 486.9 148.3 486.9 150.3 488.3 151.3 490.1 151.3ZM502.1 158.2C500.3 158.2 499.1 157.5 498.2 156.6L499.1 155.2C499.8 156.1 500.7 156.7 502.1 156.7 505 156.7 506.1 153.8 506.1 151.2 506.1 151 506.1 150.8 506.1 150.6 505.4 151.6 503.9 152.8 502.1 152.8 499.6 152.8 497.5 151.3 497.5 148.3 497.5 145.9 499.4 143.8 502.4 143.8 506.3 143.8 507.8 147.2 507.8 151 507.8 154.8 506.1 158.2 502.1 158.2ZM502.5 151.3C503.9 151.3 505.3 150.4 506 149.2 505.8 147.5 504.9 145.3 502.5 145.3 500.3 145.3 499.3 146.9 499.3 148.3 499.3 150.3 500.7 151.3 502.5 151.3ZM520 153.6L520 152.2 515 152.2 515 153.6 520 153.6ZM531.8 160.1L531.8 158.2C529.6 158.1 528 157.2 527 156L528 154.7C528.8 155.6 530.1 156.5 531.8 156.7L531.8 151.6C529.6 151 527.4 150.3 527.4 147.7 527.4 145.5 529.2 144 531.8 143.8L531.8 141.9 533 141.9 533 143.8C534.8 144 536.2 144.7 537.2 145.7L536.1 147C535.3 146.1 534.2 145.6 533 145.4L533 150C535.2 150.6 537.5 151.4 537.5 154.1 537.5 156 536.3 158 533 158.2L533 160.1 531.8 160.1ZM535.7 154.3C535.7 152.9 534.5 152.3 533 151.9L533 156.7C535 156.5 535.7 155.3 535.7 154.3ZM529.2 147.6C529.2 148.7 530.3 149.2 531.8 149.6L531.8 145.4C530.3 145.5 529.2 146.3 529.2 147.6ZM544.8 158.3C547.7 158.3 549.8 156.5 549.8 153.6 549.8 150.7 547.7 149.2 545.4 149.2 544 149.2 542.8 149.7 542.1 150.4L542.1 145.5 548.9 145.5 548.9 144 540.3 144 540.3 151.5 541.6 152C542.6 151.1 543.6 150.7 544.9 150.7 546.7 150.7 548.1 151.8 548.1 153.7 548.1 155.4 546.7 156.7 544.8 156.7 543.1 156.7 541.9 156 541 154.8L539.9 156C541 157.4 542.5 158.3 544.8 158.3ZM556.5 158.3C559.6 158.3 561.5 156.6 561.5 154.2 561.5 152 559.5 150.9 558.2 150.8 559.5 150.5 561.2 149.5 561.2 147.5 561.2 145.1 559.2 143.8 556.5 143.8 554.3 143.8 552.7 144.7 551.7 145.9L552.7 147C553.7 145.9 554.8 145.3 556.4 145.3 558.1 145.3 559.5 146.2 559.5 147.7 559.5 149.3 558 150 556.2 150 555.7 150 555 150 554.8 150L554.8 151.6C555 151.6 555.7 151.6 556.2 151.6 558.3 151.6 559.7 152.3 559.7 154.1 559.7 155.7 558.5 156.7 556.5 156.7 554.8 156.7 553.4 155.9 552.5 154.9L551.5 155.9C552.4 157.2 554.1 158.3 556.5 158.3ZM565 158.2C565.6 158.2 566.2 157.7 566.2 157.1 566.2 156.4 565.6 155.9 565 155.9 564.4 155.9 563.9 156.4 563.9 157.1 563.9 157.7 564.4 158.2 565 158.2ZM573.1 158.2C571.3 158.2 570.1 157.5 569.2 156.6L570.1 155.2C570.8 156.1 571.7 156.7 573.1 156.7 575.9 156.7 577.1 153.8 577.1 151.2 577.1 151 577.1 150.8 577 150.6 576.4 151.6 574.9 152.8 573.1 152.8 570.6 152.8 568.5 151.3 568.5 148.3 568.5 145.9 570.3 143.8 573.4 143.8 577.3 143.8 578.8 147.2 578.8 151 578.8 154.8 577 158.2 573.1 158.2ZM573.5 151.3C574.9 151.3 576.2 150.4 577 149.2 576.8 147.5 575.9 145.3 573.5 145.3 571.3 145.3 570.2 146.9 570.2 148.3 570.2 150.3 571.7 151.3 573.5 151.3ZM586 158.3C583.2 158.3 581 156.8 581 154.5 581 152.6 582.6 151.3 584.3 150.8 582.7 150.3 581.2 149.2 581.2 147.4 581.2 144.9 583.6 143.8 586 143.8 588.3 143.8 590.8 144.9 590.8 147.4 590.8 149.2 589.3 150.3 587.7 150.8 589.4 151.3 591 152.6 591 154.5 591 156.8 588.7 158.3 586 158.3ZM586 150.1C586.8 149.9 589 149.3 589 147.6 589 146.2 587.7 145.3 586 145.3 584.3 145.3 583 146.2 583 147.6 583 149.3 585.1 149.9 586 150.1ZM586 156.7C587.7 156.7 589.2 155.8 589.2 154.3 589.2 152.4 586.8 151.7 586 151.6 585.1 151.7 582.7 152.4 582.7 154.3 582.7 155.8 584.2 156.7 586 156.7Z" id="$29.99---$53.98" fill="#525252"/><rect id="kit-info-bg" fill="#E3E3E3" x="27.1" y="578.9" width="393.7" height="44.6"/><rect id="kit-photo" fill="#E3E3E3" x="27.1" y="128" width="393.7" height="221.3"/><polygon id="Path-2" fill="#FFFFFF" points="288.1 284.9 288.1 245.5 250.7 209.4 204.6 256 190.4 241.7 162.4 269.9 162.4 286.6"/><ellipse id="Oval" fill="#FFFFFF" cx="178.9" cy="209.5" rx="19.3" ry="19.5"/><use id="Combined-Shape" stroke="#E3E3E3" mask="url(#mask-4)" stroke-width="2" xlink:href="#path-3"/><rect id="Rectangle" fill="#E3E3E3" x="40" y="516" width="51.6" height="32.1"/><polygon id="Path-2" fill="#FFFFFF" points="74.2 539.3 74.2 533.5 69.3 528.3 63.2 535.1 61.4 533 57.7 537.1 57.7 539.5"/><ellipse id="Oval" fill="#FFFFFF" cx="59.9" cy="528.3" rx="2.5" ry="2.8"/><rect id="Rectangle" fill="#E3E3E3" x="100.7" y="516" width="51.6" height="32.1"/><polygon id="Path-2" fill="#FFFFFF" points="135.1 539.1 135.1 533.4 130.2 528.2 124.2 534.9 122.3 532.9 118.6 537 118.6 539.4"/><ellipse id="Oval" fill="#FFFFFF" cx="120.8" cy="528.2" rx="2.5" ry="2.8"/><rect id="Rectangle" fill="#E3E3E3" x="160.5" y="516" width="51.6" height="32.1"/><polygon id="Path-2" fill="#FFFFFF" points="194.9 539.1 194.9 533.4 190 528.2 183.9 534.9 182.1 532.9 178.4 537 178.4 539.4"/><ellipse id="Oval" fill="#FFFFFF" cx="180.6" cy="528.2" rx="2.5" ry="2.8"/><rect id="kit-info-photo" fill="#B4B4B4" x="37.8" y="589.6" width="111.3" height="34.1"/><path d="M86.2 623.8C86.2 620.5 84 618.1 81 618.1 78.1 618.1 75.7 620.5 75.7 623.8 75.7 623.8 86.2 623.8 86.2 623.8Z" id="Oval" fill="#FFFFFF"/><rect id="class-line-1" fill="#E3E3E3" x="40" y="433" width="308.4" height="9"/><rect id="class-line-2" fill="#E3E3E3" x="40" y="448" width="292.9" height="9"/><rect id="class-line-3" fill="#E3E3E3" x="40" y="462" width="308" height="9"/><rect id="class-line-4" fill="#E3E3E3" x="40" y="477" width="308.4" height="9"/><rect id="class-line-5" fill="#E3E3E3" x="40" y="491" width="235" height="9"/><rect id="class-tab-1" fill="#E3E3E3" x="40" y="401" width="51.6" height="9.5"/><rect id="class-tab-2" fill="#E3E3E3" x="115" y="401" width="51.6" height="9.5"/><rect id="class-tab-3" fill="#E3E3E3" x="187" y="401" width="51.6" height="9.5"/><rect id="class-info-1" fill="#E3E3E3" x="28" y="358.1" width="29.8" height="4.8"/><rect id="class-info-2" fill="#E3E3E3" x="72" y="358.1" width="29.8" height="4.8"/><rect id="class-info-3" fill="#E3E3E3" x="117" y="358.1" width="29.8" height="4.8"/><rect id="kit-info-1" fill="#B4B4B4" x="183" y="591" width="129" height="4.8"/><rect id="kit-info-2" fill="#B4B4B4" x="183" y="609" width="139.7" height="4.8"/><rect id="kit-info-3" fill="#B4B4B4" x="183" y="616" width="129" height="4.8"/><path d="M40.5 114L33.5 105.9 39.9 98.7 37.5 98.7 30.7 106.6 30.7 98.7 28.8 98.7 28.8 114 30.7 114 30.7 108.8 32.2 107.1 38.1 114 40.5 114ZM51.8 114L51.8 106.2C51.8 103.8 50.6 102.6 48.3 102.6 46.6 102.6 45.1 103.6 44.3 104.5L44.3 102.9 42.5 102.9 42.5 114 44.3 114 44.3 105.9C44.9 105 46.2 104.2 47.6 104.2 49.1 104.2 50.1 104.8 50.1 106.7L50.1 114 51.8 114ZM60.1 114.3C56.7 114.3 54.6 111.7 54.6 108.4 54.6 105.2 56.7 102.6 60.1 102.6 63.5 102.6 65.6 105.2 65.6 108.4 65.6 111.7 63.5 114.3 60.1 114.3ZM60.1 112.7C62.5 112.7 63.8 110.7 63.8 108.4 63.8 106.2 62.5 104.2 60.1 104.2 57.7 104.2 56.4 106.2 56.4 108.4 56.4 110.7 57.7 112.7 60.1 112.7ZM71.2 114.3C72.2 114.3 72.8 114 73.3 113.6L72.8 112.3C72.5 112.5 72.1 112.7 71.6 112.7 70.9 112.7 70.5 112.1 70.5 111.3L70.5 104.4 72.7 104.4 72.7 102.9 70.5 102.9 70.5 99.9 68.7 99.9 68.7 102.9 66.9 102.9 66.9 104.4 68.7 104.4 68.7 111.7C68.7 113.3 69.6 114.3 71.2 114.3ZM78 114.3C79 114.3 79.6 114 80 113.6L79.5 112.3C79.3 112.5 78.9 112.7 78.4 112.7 77.6 112.7 77.3 112.1 77.3 111.3L77.3 104.4 79.5 104.4 79.5 102.9 77.3 102.9 77.3 99.9 75.5 99.9 75.5 102.9 73.7 102.9 73.7 104.4 75.5 104.4 75.5 111.7C75.5 113.3 76.3 114.3 78 114.3ZM87 114.3C83.6 114.3 81.3 111.9 81.3 108.4 81.3 105.2 83.6 102.6 86.8 102.6 90.1 102.6 92.1 105.2 92.1 108.6L92.1 109 83.1 109C83.3 111.1 84.7 112.9 87.1 112.9 88.4 112.9 89.7 112.3 90.5 111.4L91.4 112.6C90.3 113.7 88.8 114.3 87 114.3ZM90.4 107.7C90.4 106.1 89.3 104 86.7 104 84.4 104 83.2 106 83.1 107.7L90.4 107.7ZM104.6 114L102.9 114 102.9 112.3C102.1 113.5 100.7 114.3 99.2 114.3 96.3 114.3 94.2 112.1 94.2 108.5 94.2 104.9 96.3 102.6 99.2 102.6 100.7 102.6 102 103.4 102.9 104.6L102.9 98.7 104.6 98.7 104.6 114ZM99.6 112.7C101 112.7 102.3 111.9 102.9 111L102.9 106C102.3 105 101 104.2 99.6 104.2 97.4 104.2 96 106 96 108.5 96 110.9 97.4 112.7 99.6 112.7ZM116.6 114.3C119.3 114.3 121.5 112.7 121.5 109.4L121.5 98.7 119.6 98.7 119.6 109.4C119.6 111.3 118.4 112.6 116.5 112.6 115.1 112.6 114.2 111.9 113.6 111.1L112.6 112.5C113.6 113.7 115 114.3 116.6 114.3ZM130 114.3C126.7 114.3 124.3 111.9 124.3 108.4 124.3 105.2 126.6 102.6 129.8 102.6 133.2 102.6 135.1 105.2 135.1 108.6L135.1 109 126.2 109C126.3 111.1 127.8 112.9 130.2 112.9 131.4 112.9 132.7 112.3 133.6 111.4L134.4 112.6C133.3 113.7 131.8 114.3 130 114.3ZM133.4 107.7C133.4 106.1 132.3 104 129.8 104 127.4 104 126.2 106 126.2 107.7L133.4 107.7ZM149.3 114L152.8 102.9 151 102.9 148.3 111.7 145.4 102.9 143.9 102.9 141 111.7 138.3 102.9 136.5 102.9 140 114 141.7 114 144.6 105.1 147.5 114 149.3 114ZM156.5 114L156.5 98.7 154.8 98.7 154.8 114 156.5 114ZM165 114.3C161.7 114.3 159.3 111.9 159.3 108.4 159.3 105.2 161.6 102.6 164.8 102.6 168.2 102.6 170.2 105.2 170.2 108.6L170.2 109 161.2 109C161.3 111.1 162.8 112.9 165.2 112.9 166.4 112.9 167.7 112.3 168.6 111.4L169.4 112.6C168.3 113.7 166.8 114.3 165 114.3ZM168.5 107.7C168.4 106.1 167.3 104 164.8 104 162.4 104 161.3 106 161.2 107.7L168.5 107.7ZM174.7 114L174.7 106.1C175.2 105.2 176.6 104.4 177.7 104.4 177.9 104.4 178.2 104.4 178.4 104.4L178.4 102.6C176.8 102.6 175.6 103.5 174.7 104.7L174.7 102.9 172.9 102.9 172.9 114 174.7 114ZM179.9 118.3C180.2 118.4 180.8 118.5 181.2 118.5 182.6 118.5 183.8 117.9 184.4 116.3L190 102.9 188.1 102.9 184.4 112 180.8 102.9 178.9 102.9 183.5 114.1 182.8 115.8C182.4 116.7 181.9 117 181.1 117 180.8 117 180.4 116.9 180.2 116.8L179.9 118.3ZM205.1 114.3C207.8 114.3 209.6 113 210.9 111.2L209.3 110.3C208.4 111.6 206.8 112.6 205.1 112.6 201.7 112.6 199.2 110 199.2 106.3 199.2 102.7 201.7 100.1 205.1 100.1 206.8 100.1 208.4 101 209.3 102.3L210.9 101.4C209.7 99.7 207.8 98.4 205.1 98.4 200.7 98.4 197.2 101.6 197.2 106.3 197.2 111.1 200.7 114.3 205.1 114.3ZM215 114L215 98.7 213.3 98.7 213.3 114 215 114ZM227.1 114L225.4 114 225.4 112.7C224.5 113.7 223.2 114.3 221.7 114.3 219.9 114.3 217.9 113 217.9 110.6 217.9 108.1 219.9 106.9 221.7 106.9 223.3 106.9 224.5 107.4 225.4 108.4L225.4 106.4C225.4 105 224.2 104.1 222.6 104.1 221.3 104.1 220.2 104.6 219.2 105.7L218.4 104.5C219.6 103.2 221 102.6 222.8 102.6 225.2 102.6 227.1 103.7 227.1 106.4L227.1 114ZM222.4 113C223.6 113 224.8 112.6 225.4 111.7L225.4 109.5C224.8 108.6 223.6 108.2 222.4 108.2 220.8 108.2 219.6 109.2 219.6 110.6 219.6 112 220.8 113 222.4 113ZM234.2 114.3C237 114.3 238.5 112.8 238.5 110.9 238.5 106.6 231.6 108.2 231.6 105.8 231.6 104.8 232.6 104 234.1 104 235.5 104 236.7 104.6 237.4 105.4L238.2 104.2C237.3 103.3 236 102.6 234.1 102.6 231.4 102.6 230 104.1 230 105.8 230 109.9 236.9 108.3 236.9 111 236.9 112.1 235.9 112.9 234.2 112.9 232.7 112.9 231.3 112.1 230.6 111.3L229.7 112.5C230.8 113.7 232.3 114.3 234.2 114.3ZM244.9 114.3C247.7 114.3 249.2 112.8 249.2 110.9 249.2 106.6 242.3 108.2 242.3 105.8 242.3 104.8 243.3 104 244.8 104 246.2 104 247.4 104.6 248.1 105.4L248.9 104.2C248 103.3 246.7 102.6 244.8 102.6 242.1 102.6 240.7 104.1 240.7 105.8 240.7 109.9 247.5 108.3 247.5 111 247.5 112.1 246.6 112.9 244.9 112.9 243.4 112.9 242 112.1 241.2 111.3L240.4 112.5C241.5 113.7 243 114.3 244.9 114.3Z" id="Knotted-Jewlery-Clas" fill="#202020"/><rect id="wireframe-nav" fill="#E3E3E3" x="141" y="52" width="344" height="10"/><rect id="wireframe-login" fill="#E3E3E3" x="471" y="28" width="20" height="6"/><rect id="wireframe-login" fill="#E3E3E3" x="502" y="28" width="19" height="6"/><rect id="wireframe-login" fill="#E3E3E3" x="532" y="28" width="63" height="6"/><rect id="wireframe-top-bar" fill="#B4B4B4" x="0" y="0" width="649" height="16.4"/><path d="M31.6 37.7L26.2 37.7 26.2 25.2 31.1 25.2C32.7 25.2 34 26.7 34 28.3 34 29.5 33.5 30.5 32.5 30.9L32.5 31C33.7 31 35.1 32.5 35.1 34.1 35.1 36.3 33.4 37.7 31.6 37.7ZM30.2 27.2L28.5 27.2 28.5 30.2 30.2 30.2C31 30.2 31.6 29.6 31.6 28.6 31.6 27.9 31 27.2 30.2 27.2ZM30.9 32.2L28.5 32.2 28.5 35.8 30.8 35.8C31.7 35.8 32.6 35.3 32.6 34 32.6 32.8 31.7 32.2 30.9 32.2ZM46.3 37.7L42.6 32.4 42.6 37.7 40.2 37.7 40.2 25.2 44.5 25.2C46.6 25.2 48.3 26.7 48.3 29 48.3 31 46.8 32.1 45.3 32.4 45.5 32.7 49.2 37.7 49.2 37.7L46.3 37.7 46.3 37.7 46.3 37.7ZM43.9 27.2L42.6 27.2 42.6 31 44.1 31C44.9 31 45.9 30.4 45.9 29 45.9 27.6 44.9 27.2 43.9 27.2Z" id="logo-b" fill="#B4B4B4" fill-rule="nonzero"/><polygon id="logo-i" fill="#B4B4B4" fill-rule="nonzero" points="54.3 37.7 54.3 25.2 56.7 25.2 56.7 37.7"/><polygon id="logo-t" fill="#B4B4B4" fill-rule="nonzero" points="67 27.4 67 37.7 64.6 37.7 64.6 27.4 62 27.4 62 25.2 69.5 25.2 69.5 27.4"/><path d="M94.4 37.8C91 37.8 88.4 34.9 88.4 31.5 88.4 28.1 91.1 25 94.6 25 96.1 25 97.6 25.8 97.6 25.8L97.6 28.4C97.6 28.4 96.5 27.3 94.6 27.3 92.4 27.3 90.8 29.2 90.8 31.3 90.8 33.6 92.3 35.6 94.6 35.6 95.9 35.6 96.8 35.1 97.7 34.4L97.7 36.9C97.3 37.2 96 37.8 94.4 37.8ZM107.7 37.8C104.2 37.8 101.4 34.9 101.4 31.4 101.4 27.8 104.2 25 107.7 25 111.3 25 114.2 27.9 114.2 31.4 114.2 34.9 111.2 37.8 107.7 37.8ZM107.7 27.3C105.4 27.3 103.7 29 103.7 31.4 103.7 33.7 105.4 35.5 107.7 35.5 110.1 35.5 111.8 33.7 111.8 31.4 111.8 29 110 27.3 107.7 27.3Z" id="logo-c" fill="#B4B4B4" fill-rule="nonzero"/><polygon id="logo-plus" fill="#B4B4B4" fill-rule="nonzero" points="83.6 32.7 83.6 30.3 79.9 30.3 79.9 26.7 77.5 26.7 77.5 30.3 73.8 30.3 73.8 32.7 77.5 32.7 77.5 36.4 79.9 36.4 79.9 32.7"/><path d="M0.6 44.6L647.2 44.6" id="Line" stroke="#E3E3E3" stroke-linecap="square"/></g></g></svg>