<svg xmlns="http://www.w3.org/2000/svg" width="22" height="22" viewBox="0 0 22 22" version="1.1"><title>codepen</title><desc>Created with Sketch Beta.</desc><g stroke="none" stroke-width="1" fill="none" fill-rule="evenodd"><g transform="translate(-339.000000, -139.000000)" fill-rule="nonzero" fill="#202020"><g transform="translate(263.000000, 59.000000)"><g transform="translate(0.000000, 80.000000)"><path d="M97.9 7.5C97.9 7.5 97.9 7.4 97.9 7.4 97.9 7.4 97.9 7.4 97.9 7.4 97.9 7.3 97.9 7.3 97.8 7.3 97.8 7.3 97.8 7.3 97.8 7.2 97.8 7.2 97.8 7.2 97.8 7.2 97.8 7.2 97.8 7.2 97.8 7.1 97.7 7.1 97.7 7.1 97.7 7.1 97.7 7.1 97.7 7.1 97.7 7 97.7 7 97.7 7 97.6 7 97.6 7 97.6 7 97.6 7 97.6 6.9 97.6 6.9 97.6 6.9 97.5 6.9 97.5 6.9 97.5 6.9 97.5 6.9 97.5 6.9 97.5 6.9L87.5 0.2C87.2-0.1 86.8-0.1 86.4 0.2L76.4 6.9C76.4 6.9 76.4 6.9 76.4 6.9 76.4 6.9 76.4 6.9 76.4 6.9 76.3 6.9 76.3 6.9 76.3 7 76.3 7 76.3 7 76.3 7 76.3 7 76.2 7 76.2 7 76.2 7.1 76.2 7.1 76.2 7.1 76.2 7.1 76.2 7.1 76.2 7.1 76.1 7.2 76.1 7.2 76.1 7.2 76.1 7.2 76.1 7.2 76.1 7.2 76.1 7.3 76.1 7.3 76.1 7.3 76.1 7.3 76.1 7.3 76 7.4 76 7.4 76 7.4 76 7.4 76 7.4 76 7.5 76 7.5 76 7.5 76 7.5 76 7.5 76 7.6 76 7.6 76 7.6L76 14.4C76 14.4 76 14.4 76 14.5 76 14.5 76 14.5 76 14.5 76 14.5 76 14.6 76 14.6 76 14.6 76 14.6 76.1 14.6 76.1 14.7 76.1 14.7 76.1 14.7 76.1 14.7 76.1 14.7 76.1 14.8 76.1 14.8 76.1 14.8 76.1 14.8 76.1 14.8 76.1 14.8 76.2 14.9 76.2 14.9 76.2 14.9 76.2 14.9 76.2 14.9 76.2 14.9 76.2 15 76.2 15 76.3 15 76.3 15 76.3 15 76.3 15 76.3 15 76.3 15.1 76.3 15.1 76.4 15.1 76.4 15.1 76.4 15.1 76.4 15.1 76.4 15.1 76.4 15.1 76.4 15.1L86.4 21.8C86.6 21.9 86.8 22 87 22 87.1 22 87.3 21.9 87.5 21.8L97.5 15.1C97.5 15.1 97.5 15.1 97.5 15.1 97.5 15.1 97.5 15.1 97.6 15.1 97.6 15.1 97.6 15.1 97.6 15 97.6 15 97.6 15 97.6 15 97.7 15 97.7 15 97.7 15 97.7 14.9 97.7 14.9 97.7 14.9 97.7 14.9 97.8 14.9 97.8 14.9 97.8 14.8 97.8 14.8 97.8 14.8 97.8 14.8 97.8 14.8 97.8 14.8 97.8 14.7 97.8 14.7 97.8 14.7 97.9 14.7 97.9 14.7 97.9 14.6 97.9 14.6 97.9 14.6 97.9 14.6 97.9 14.6 97.9 14.5 97.9 14.5 97.9 14.5 97.9 14.5 97.9 14.5 97.9 14.4 97.9 14.4 97.9 14.4L97.9 7.6C97.9 7.6 97.9 7.6 97.9 7.5 97.9 7.5 97.9 7.5 97.9 7.5L97.9 7.5ZM87 13.2L83.6 11 87 8.8 90.3 11 87 13.2 87 13.2ZM86 7.1L81.9 9.9 78.6 7.6 86 2.7 86 7.1 86 7.1ZM80.2 11L77.9 12.6 77.9 9.4 80.2 11 80.2 11ZM81.9 12.1L86 14.9 86 19.3 78.6 14.4 81.9 12.1 81.9 12.1ZM87.9 14.9L92 12.1 95.3 14.4 87.9 19.3 87.9 14.9 87.9 14.9ZM93.7 11L96 9.4 96 12.6 93.7 11 93.7 11ZM92 9.9L87.9 7.1 87.9 2.7 95.3 7.6 92 9.9 92 9.9Z"/></g></g></g></g></svg>