<svg xmlns="http://www.w3.org/2000/svg" width="22" height="22" viewBox="0 0 22 22" version="1.1"><title>dribbble</title><desc>Created with Sketch Beta.</desc><g stroke="none" stroke-width="1" fill="none" fill-rule="evenodd"><g transform="translate(-263.000000, -139.000000)" fill-rule="nonzero" fill="#FF7371"><g transform="translate(263.000000, 59.000000)"><g transform="translate(0.000000, 80.000000)"><path d="M10.7 21.5C4.8 21.5 0 16.7 0 10.7 0 4.8 4.8 0 10.7 0 16.6 0 21.4 4.8 21.4 10.7 21.4 16.6 16.6 21.5 10.7 21.5L10.7 21.5 10.7 21.5ZM19.7 12.2C19.4 12.1 16.9 11.3 14 11.8 15.2 15.1 15.7 17.8 15.8 18.3 17.9 16.9 19.3 14.7 19.7 12.2L19.7 12.2 19.7 12.2ZM12.3 12.2C12.3 12.2 12.3 12.2 12.3 12.2 7.1 14.1 5.3 17.6 5.1 18 6.6 19.2 8.6 19.9 10.7 19.9 12 19.9 13.2 19.7 14.3 19.2 14.1 18.4 13.6 15.6 12.3 12.2ZM3.9 16.9C4.1 16.5 6.6 12.4 11.3 10.8 11.5 10.8 11.6 10.7 11.7 10.7 11.5 10.2 11.2 9.7 11 9.2 6.4 10.5 2 10.5 1.6 10.5 1.6 10.6 1.6 10.6 1.6 10.7 1.6 13.1 2.4 15.2 3.9 16.9L3.9 16.9 3.9 16.9ZM1.8 8.9C2.2 8.9 5.9 8.9 10.2 7.7 8.7 5 7.1 2.8 6.8 2.5 4.3 3.7 2.3 6 1.8 8.9L1.8 8.9 1.8 8.9ZM8.6 1.8C8.8 2.2 10.5 4.4 12 7.2 15.2 6 16.6 4.1 16.8 3.9 15.2 2.5 13 1.6 10.7 1.6 10 1.6 9.2 1.7 8.6 1.8L8.6 1.8 8.6 1.8ZM17.8 4.9C17.6 5.2 16.1 7.2 12.7 8.6 12.9 9 13.1 9.4 13.3 9.9 13.4 10 13.4 10.2 13.5 10.4 16.5 10 19.5 10.6 19.9 10.7 19.8 8.5 19.1 6.5 17.8 4.9L17.8 4.9 17.8 4.9Z"/></g></g></g></g></svg>