<svg xmlns="http://www.w3.org/2000/svg" width="37" height="26" viewBox="0 0 37 26" version="1.1"><title>Fill 1</title><desc>Created with Sketch Beta.</desc><g stroke="none" stroke-width="1" fill="none" fill-rule="evenodd"><g transform="translate(-719.000000, -3604.000000)" fill="#202020"><g transform="translate(568.000000, 3497.000000)"><g transform="translate(0.000000, 48.000000)"><path d="M185.7 64.1C185.6 64 185.6 64 185.6 64 181.4 62.4 177.2 60.8 173 59.2 170 58 168.7 62.9 171.7 64 172.9 64.5 174.1 64.9 175.3 65.4 167.5 66.9 160.3 70.2 153.9 75.3 151.3 77.3 154.9 80.8 157.4 78.8 164.4 73.3 172.6 70.3 181.3 69.7 180.3 72.7 179.1 75.6 177.6 78.4 176.1 81.2 180.4 83.8 182 80.9 184 77 185.7 72.9 186.9 68.6 187.2 68.1 187.3 67.6 187.3 67 187.7 65.5 186.8 64.4 185.7 64.1Z" transform="translate(170.209015, 70.582187) rotate(15.000000) translate(-170.209015, -70.582187) "/></g></g></g></g></svg>