<svg xmlns="http://www.w3.org/2000/svg" width="139" height="139" viewBox="0 0 139 139" version="1.1"><title>class-page</title><desc>Created with Sketch Beta.</desc><g stroke="none" stroke-width="1" fill="none" fill-rule="evenodd"><g transform="translate(-564.000000, -3182.000000)"><g transform="translate(361.000000, 3134.000000)"><g transform="translate(203.000000, 48.000000)"><rect fill="#DCE8FA" x="0" y="0" width="138.4" height="138.4"/><rect fill="#008EF6" x="6.5" y="7.4" width="126" height="14.7"/><rect fill="#DCE8FA" x="0" y="0" width="138.4" height="10.8"/><ellipse fill="#0347C7" cx="5.2" cy="5.3" rx="1.2" ry="1.2"/><ellipse fill="#0347C7" cx="10.1" cy="5.3" rx="1.2" ry="1.2"/><ellipse fill="#0347C7" cx="15.8" cy="5.3" rx="1.2" ry="1.2"/><path d="M113.8 109.8L108.3 109.8 103.2 109.8 98.6 109.8 93.5 109.8 93.5 113.6 98.6 113.6 103.2 113.6 108.3 113.6 113.8 113.6 119.4 113.6 119.4 109.8 113.8 109.8ZM107.8 107.6L103.2 107.6 98.6 107.6 93.5 107.6 93.5 103.8 98.6 103.8 103.2 103.8 107.8 103.8 113 103.8 113 107.6 107.8 107.6ZM112.5 97.8L107.8 97.8 103.2 97.8 98.6 97.8 93.5 97.8 93.5 101.6 98.6 101.6 103.2 101.6 107.8 101.6 112.5 101.6 117.6 101.6 117.6 97.8 112.5 97.8ZM103.2 91.8L98.6 91.8 93.5 91.8 93.5 95.6 98.6 95.6 103.2 95.6 108.4 95.6 108.4 91.8 103.2 91.8ZM117.1 89.6L112.5 89.6 107.8 89.6 103.2 89.6 98.6 89.6 93.5 89.6 93.5 85.8 98.6 85.8 103.2 85.8 107.8 85.8 112.5 85.8 117.1 85.8 122.2 85.8 122.2 89.6 117.1 89.6ZM26.9 97.8L21.3 97.8 16.3 97.8 11.7 97.8 6.5 97.8 6.5 101.6 11.7 101.6 16.3 101.6 21.3 101.6 26.9 101.6 32.5 101.6 32.5 97.8 26.9 97.8ZM43.9 91.8L39.3 91.8 34.7 91.8 30.1 91.8 25.5 91.8 20.9 91.8 16.3 91.8 11.7 91.8 6.5 91.8 6.5 95.6 11.7 95.6 16.3 95.6 20.9 95.6 25.5 95.6 30.1 95.6 34.7 95.6 39.3 95.6 43.9 95.6 49 95.6 49 91.8 43.9 91.8ZM43.9 85.8L39.3 85.8 34.7 85.8 30.1 85.8 25.5 85.8 20.9 85.8 16.3 85.8 11.7 85.8 6.5 85.8 6.5 89.6 11.7 89.6 16.3 89.6 20.9 89.6 25.5 89.6 30.1 89.6 34.7 89.6 39.3 89.6 43.9 89.6 49 89.6 49 85.8 43.9 85.8ZM120.6 33.6L111.6 33.6 102.6 33.6 93.5 33.6 93.5 27.5 102.6 27.5 111.6 27.5 120.6 27.5 129.6 27.5 129.6 33.6 120.6 33.6ZM43 79.6L37.4 79.6 37.4 75.8 43 75.8 48.6 75.8 48.6 79.6 43 79.6ZM27.6 79.6L21.9 79.6 21.9 75.8 27.6 75.8 33.2 75.8 33.2 79.6 27.6 79.6ZM12.1 79.6L6.5 79.6 6.5 75.8 12.1 75.8 17.7 75.8 17.7 79.6 12.1 79.6Z" fill="#008EF6"/><rect fill="#008EF6" x="93.5" y="52.1" width="19.3" height="10.8"/><rect fill="#008EF6" x="93.5" y="120" width="38.7" height="10.8"/><path d="M94 44.1L94.8 43.6C95.1 44.3 95.6 44.8 96.3 44.9L96.3 43.1 95.8 43C95.7 43 95.6 43 95.5 42.9 95.4 42.9 95.2 42.8 95.1 42.8 94.9 42.7 94.8 42.6 94.7 42.5 94.6 42.3 94.5 42.2 94.4 42 94.3 41.8 94.3 41.6 94.3 41.4 94.3 41.1 94.3 40.9 94.5 40.6 94.6 40.4 94.8 40.2 95 40.1 95.4 39.8 95.8 39.7 96.3 39.7L96.3 38.8 97 38.8 97 39.7C97.4 39.7 97.8 39.9 98.2 40.1 98.6 40.4 98.8 40.6 99 40.9L98.2 41.5C98.1 41.3 97.9 41.2 97.7 41 97.4 40.8 97.2 40.7 97 40.7L97 42.2 97.4 42.3C97.6 42.3 97.8 42.4 97.9 42.4 98.1 42.5 98.2 42.5 98.4 42.6 98.6 42.7 98.7 42.8 98.8 42.9 98.9 43 99 43.2 99.1 43.4 99.1 43.5 99.2 43.8 99.2 44 99.2 44.2 99.1 44.5 99 44.7 98.9 45 98.7 45.2 98.5 45.3 98.2 45.6 97.6 45.8 97 45.9L97 46.6 96.3 46.6 96.3 45.8C95.7 45.8 95.3 45.6 94.9 45.3 94.4 45 94.1 44.6 94 44.1ZM95.3 41.4C95.3 41.7 95.6 42 96.2 42.1L96.3 42.1 96.3 40.6C96 40.7 95.7 40.8 95.6 40.9 95.4 41 95.3 41.2 95.3 41.4ZM97 44.9C97.3 44.9 97.6 44.8 97.8 44.7 98 44.5 98.1 44.3 98.1 44 98.1 43.8 98 43.6 97.9 43.5 97.7 43.4 97.5 43.3 97.1 43.3L97 43.2 97 44.9ZM100.1 44.1L100.9 43.6C101.3 44.3 101.7 44.8 102.4 44.9L102.4 43.1 102 43C101.8 43 101.7 43 101.6 42.9 101.5 42.9 101.3 42.8 101.2 42.8 101 42.7 100.9 42.6 100.8 42.5 100.7 42.3 100.6 42.2 100.5 42 100.4 41.8 100.4 41.6 100.4 41.4 100.4 41.1 100.4 40.9 100.6 40.6 100.7 40.4 100.9 40.2 101.1 40.1 101.5 39.8 101.9 39.7 102.4 39.7L102.4 38.8 103.1 38.8 103.1 39.7C103.5 39.7 103.9 39.9 104.3 40.1 104.7 40.4 105 40.6 105.1 40.9L104.3 41.5C104.2 41.3 104 41.2 103.8 41 103.6 40.8 103.3 40.7 103.1 40.7L103.1 42.2 103.5 42.3C103.7 42.3 103.9 42.4 104 42.4 104.2 42.5 104.3 42.5 104.5 42.6 104.7 42.7 104.8 42.8 104.9 42.9 105 43 105.1 43.2 105.2 43.4 105.2 43.5 105.3 43.8 105.3 44 105.3 44.2 105.2 44.5 105.1 44.7 105 45 104.8 45.2 104.7 45.3 104.3 45.6 103.7 45.8 103.1 45.9L103.1 46.6 102.4 46.6 102.4 45.8C101.9 45.8 101.4 45.6 101 45.3 100.5 45 100.3 44.6 100.1 44.1ZM101.4 41.4C101.4 41.7 101.7 42 102.3 42.1L102.4 42.1 102.4 40.6C102.1 40.7 101.9 40.8 101.7 40.9 101.5 41 101.4 41.2 101.4 41.4ZM103.1 44.9C103.4 44.9 103.7 44.8 103.9 44.7 104.1 44.5 104.2 44.3 104.2 44 104.2 43.8 104.1 43.6 104 43.5 103.8 43.4 103.6 43.3 103.3 43.3L103.1 43.2 103.1 44.9Z" fill="#008EF6"/><rect fill="#008EF6" x="6.5" y="28.1" width="81.2" height="45.6"/><rect fill="#008EF6" x="6.5" y="105.9" width="24.7" height="25.5"/><rect fill="#008EF6" x="61.8" y="105.9" width="25.5" height="25.5"/><rect fill="#008EF6" x="34.1" y="105.9" width="24.7" height="25.5"/></g></g></g></g></svg>