<svg xmlns="http://www.w3.org/2000/svg" width="139" height="139" viewBox="0 0 139 139" version="1.1"><title>All Kits</title><desc>Created with Sketch Beta.</desc><g stroke="none" stroke-width="1" fill="none" fill-rule="evenodd"><g transform="translate(-568.000000, -3546.000000)"><g transform="translate(568.000000, 3497.000000)"><g transform="translate(0.000000, 48.000000)"><g transform="translate(0.000000, 1.000000)"><rect fill="#FFECEC" x="0" y="0" width="139" height="139"/><rect fill="#FF7371" x="0" y="7.3" width="139" height="24.8"/><rect fill="#FF7371" x="48.8" y="38.2" width="83.9" height="24.8"/><rect fill="#FFECEC" x="0" y="0" width="139" height="10.9"/><ellipse fill="#FA4A4A" cx="5.2" cy="6" rx="1.2" ry="1.2"/><ellipse fill="#FA4A4A" cx="10.1" cy="6" rx="1.2" ry="1.2"/><ellipse fill="#FA4A4A" cx="15.8" cy="6" rx="1.2" ry="1.2"/><path d="M11.9 60.6L5.7 60.6 5.7 56.4 11.9 56.4 18.1 56.4 18.1 60.6 11.9 60.6ZM11.4 54.6L5.7 54.6 5.7 50.4 11.4 50.4 17.1 50.4 17.1 54.6 11.4 54.6ZM36.8 44.4L31.7 44.4 26.6 44.4 21.6 44.4 16.5 44.4 11.4 44.4 5.7 44.4 5.7 48.6 11.4 48.6 16.5 48.6 21.6 48.6 26.6 48.6 31.7 48.6 36.8 48.6 42.5 48.6 42.5 44.4 36.8 44.4ZM36.8 38.4L31.7 38.4 26.6 38.4 21.6 38.4 16.5 38.4 11.4 38.4 5.7 38.4 5.7 42.6 11.4 42.6 16.5 42.6 21.6 42.6 26.6 42.6 31.7 42.6 36.8 42.6 42.5 42.6 42.5 38.4 36.8 38.4ZM11.9 84.6L5.7 84.6 5.7 80.4 11.9 80.4 18.1 80.4 18.1 84.6 11.9 84.6ZM18 74.4L11.9 74.4 5.7 74.4 5.7 78.6 11.9 78.6 18 78.6 24.2 78.6 24.2 74.4 18 74.4ZM11.9 72.6L5.7 72.6 5.7 68.4 11.9 68.4 18.1 68.4 18.1 72.6 11.9 72.6ZM12 66.6L5.7 66.6 5.7 62.4 12 62.4 12 66.6ZM12 90.6L12 86.4 5.7 86.4 5.7 90.6 12 90.6ZM116.5 126.7L113 126.7 113 124.1 116.5 124.1 120.1 124.1 120.1 126.7 116.5 126.7ZM94.6 126.7L91 126.7 91 124.1 94.6 124.1 98.2 124.1 98.2 126.7 94.6 126.7ZM74.3 126.7L70.7 126.7 70.7 124.1 74.3 124.1 77.8 124.1 77.8 126.7 74.3 126.7ZM52.3 126.7L48.8 126.7 48.8 124.1 52.3 124.1 55.9 124.1 55.9 126.7 52.3 126.7ZM116.5 99.9L113 99.9 113 97.3 116.5 97.3 120.1 97.3 120.1 99.9 116.5 99.9ZM94.6 99.9L91 99.9 91 97.3 94.6 97.3 98.2 97.3 98.2 99.9 94.6 99.9ZM74.3 99.9L70.7 99.9 70.7 97.3 74.3 97.3 77.8 97.3 77.8 99.9 74.3 99.9ZM52.3 99.9L48.8 99.9 48.8 97.3 52.3 97.3 55.9 97.3 55.9 99.9 52.3 99.9ZM54.5 71.8L48.8 71.8 48.8 67.6 54.5 67.6 60.2 67.6 60.2 71.8 54.5 71.8ZM12 96.6L5.7 96.6 5.7 92.4 12 92.4 12 96.6Z" fill="#FF7371"/><rect fill="#FF7371" x="48.8" y="76.4" width="19.4" height="19.9"/><rect fill="#FF7371" x="70.7" y="76.4" width="18.6" height="19.9"/><rect fill="#FF7371" x="91" y="76.4" width="19.4" height="19.9"/><rect fill="#FF7371" x="113" y="76.4" width="19.4" height="19.9"/><rect fill="#FF7371" x="48.8" y="103.2" width="19.4" height="19.9"/><rect fill="#FF7371" x="70.7" y="103.2" width="18.6" height="19.9"/><rect fill="#FF7371" x="91" y="103.2" width="19.4" height="19.9"/><rect fill="#FF7371" x="113" y="103.2" width="19.4" height="19.9"/><rect fill="#FF7371" x="48.8" y="130.1" width="19.4" height="8.5"/><rect fill="#FF7371" x="70.7" y="130.1" width="18.6" height="8.5"/><rect fill="#FF7371" x="91" y="130.1" width="19.4" height="8.5"/><rect fill="#FF7371" x="113" y="130.1" width="19.4" height="8.5"/></g></g></g></g></g></svg>