<svg xmlns="http://www.w3.org/2000/svg" width="141" height="139" viewBox="0 0 141 139" version="1.1"><title>all-classes</title><desc>Created with Sketch Beta.</desc><g stroke="none" stroke-width="1" fill="none" fill-rule="evenodd"><g transform="translate(-361.000000, -3182.000000)"><g transform="translate(361.000000, 3134.000000)"><g transform="translate(0.000000, 48.000000)"><rect fill="#DCE8FA" x="0" y="0" width="140.4" height="138.4"/><rect fill="#008EF6" x="0" y="7.4" width="140.4" height="24.7"/><rect fill="#DCE8FA" x="0" y="0" width="140.4" height="10.8"/><ellipse fill="#0347C7" cx="5.3" cy="5.3" rx="1.2" ry="1.2"/><ellipse fill="#0347C7" cx="10.2" cy="5.3" rx="1.2" ry="1.2"/><ellipse fill="#0347C7" cx="16" cy="5.3" rx="1.2" ry="1.2"/><rect fill="#008EF6" x="116.3" y="57.1" width="19.6" height="10.8"/><path d="M60.8 53.7L55.2 53.7 50.2 53.7 45.6 53.7 40.4 53.7 40.4 57.5 45.6 57.5 50.2 57.5 55.2 57.5 60.8 57.5 66.4 57.5 66.4 53.7 60.8 53.7ZM77.8 47.7L73.2 47.7 68.6 47.7 64 47.7 59.4 47.7 54.8 47.7 50.2 47.7 45.6 47.7 40.4 47.7 40.4 51.5 45.6 51.5 50.2 51.5 54.8 51.5 59.4 51.5 64 51.5 68.6 51.5 73.2 51.5 77.8 51.5 83 51.5 83 47.7 77.8 47.7ZM116.8 43.3L117.6 42.8C117.9 43.5 118.4 43.9 119.1 44.1L119.1 42.3 118.7 42.2C118.5 42.2 118.4 42.1 118.3 42.1 118.2 42.1 118 42 117.9 41.9 117.7 41.8 117.6 41.7 117.5 41.6 117.4 41.5 117.3 41.4 117.2 41.2 117.1 41 117.1 40.8 117.1 40.6 117.1 40.3 117.1 40 117.3 39.8 117.4 39.6 117.6 39.4 117.8 39.2 118.2 39 118.6 38.9 119.1 38.8L119.1 38 119.8 38 119.8 38.9C120.2 38.9 120.6 39.1 121 39.3 121.4 39.5 121.6 39.8 121.8 40.1L121 40.7C120.9 40.5 120.7 40.3 120.5 40.2 120.3 40 120 39.9 119.8 39.8L119.8 41.4 120.2 41.5C120.4 41.5 120.6 41.5 120.7 41.6 120.9 41.6 121 41.7 121.2 41.8 121.4 41.9 121.5 42 121.6 42.1 121.7 42.2 121.8 42.4 121.9 42.5 121.9 42.7 122 42.9 122 43.2 122 43.4 121.9 43.7 121.8 43.9 121.7 44.1 121.5 44.3 121.3 44.5 121 44.8 120.4 45 119.8 45L119.8 45.8 119.1 45.8 119.1 45C118.6 44.9 118.1 44.8 117.7 44.5 117.2 44.2 116.9 43.8 116.8 43.3ZM118.1 40.5C118.1 40.9 118.4 41.1 119 41.2L119.1 41.3 119.1 39.8C118.8 39.8 118.6 39.9 118.4 40.1 118.2 40.2 118.1 40.3 118.1 40.5ZM119.8 44.1C120.1 44.1 120.4 44 120.6 43.8 120.8 43.7 120.9 43.5 120.9 43.2 120.9 43 120.8 42.8 120.7 42.7 120.5 42.6 120.3 42.5 120 42.4L119.8 42.4 119.8 44.1ZM122.9 43.3L123.8 42.8C124.1 43.5 124.5 43.9 125.2 44.1L125.2 42.3 124.8 42.2C124.6 42.2 124.5 42.1 124.4 42.1 124.3 42.1 124.2 42 124 41.9 123.8 41.8 123.7 41.7 123.6 41.6 123.5 41.5 123.4 41.4 123.3 41.2 123.2 41 123.2 40.8 123.2 40.6 123.2 40.3 123.3 40 123.4 39.8 123.5 39.6 123.7 39.4 123.9 39.2 124.3 39 124.7 38.9 125.2 38.8L125.2 38 125.9 38 125.9 38.9C126.3 38.9 126.8 39.1 127.1 39.3 127.5 39.5 127.8 39.8 127.9 40.1L127.1 40.7C127 40.5 126.8 40.3 126.6 40.2 126.4 40 126.1 39.9 125.9 39.8L125.9 41.4 126.3 41.5C126.5 41.5 126.7 41.5 126.8 41.6 127 41.6 127.2 41.7 127.3 41.8 127.5 41.9 127.6 42 127.7 42.1 127.8 42.2 127.9 42.4 128 42.5 128 42.7 128.1 42.9 128.1 43.2 128.1 43.4 128 43.7 127.9 43.9 127.8 44.1 127.6 44.3 127.5 44.5 127.1 44.8 126.6 45 125.9 45L125.9 45.8 125.2 45.8 125.2 45C124.7 44.9 124.2 44.8 123.8 44.5 123.4 44.2 123.1 43.8 122.9 43.3ZM124.2 40.5C124.2 40.9 124.5 41.1 125.1 41.2L125.2 41.3 125.2 39.8C124.9 39.8 124.7 39.9 124.5 40.1 124.3 40.2 124.2 40.3 124.2 40.5ZM125.9 44.1C126.2 44.1 126.5 44 126.7 43.8 126.9 43.7 127 43.5 127 43.2 127 43 127 42.8 126.8 42.7 126.6 42.6 126.4 42.5 126.1 42.4L125.9 42.4 125.9 44.1Z" fill="#008EF6"/><rect fill="#008EF6" x="6.6" y="38.1" width="29.8" height="29.4"/><path d="M93.6 38.5L84.8 38.5 75.9 38.5 67.1 38.5 58.2 38.5 49.4 38.5 40.4 38.5 40.4 44.6 49.4 44.6 58.2 44.6 67.1 44.6 75.9 44.6 84.8 44.6 93.6 44.6 102.6 44.6 102.6 38.5 93.6 38.5Z" fill="#008EF6"/><rect fill="#008EF6" x="116.3" y="92.7" width="19.6" height="10.8"/><path d="M60.8 89.3L55.2 89.3 50.2 89.3 45.6 89.3 40.4 89.3 40.4 93.1 45.6 93.1 50.2 93.1 55.2 93.1 60.8 93.1 66.4 93.1 66.4 89.3 60.8 89.3ZM77.8 83.3L73.2 83.3 68.6 83.3 64 83.3 59.4 83.3 54.8 83.3 50.2 83.3 45.6 83.3 40.4 83.3 40.4 87.1 45.6 87.1 50.2 87.1 54.8 87.1 59.4 87.1 64 87.1 68.6 87.1 73.2 87.1 77.8 87.1 83 87.1 83 83.3 77.8 83.3ZM116.8 78.9L117.6 78.3C117.9 79.1 118.4 79.5 119.1 79.7L119.1 77.8 118.7 77.8C118.5 77.7 118.4 77.7 118.3 77.7 118.2 77.6 118 77.6 117.9 77.5 117.7 77.4 117.6 77.3 117.5 77.2 117.4 77.1 117.3 76.9 117.2 76.8 117.1 76.6 117.1 76.4 117.1 76.1 117.1 75.9 117.1 75.6 117.3 75.4 117.4 75.1 117.6 74.9 117.8 74.8 118.2 74.6 118.6 74.5 119.1 74.4L119.1 73.6 119.8 73.6 119.8 74.4C120.2 74.5 120.6 74.6 121 74.9 121.4 75.1 121.6 75.4 121.8 75.7L121 76.3C120.9 76.1 120.7 75.9 120.5 75.7 120.3 75.6 120 75.5 119.8 75.4L119.8 77 120.2 77C120.4 77.1 120.6 77.1 120.7 77.2 120.9 77.2 121 77.3 121.2 77.4 121.4 77.5 121.5 77.6 121.6 77.7 121.7 77.8 121.8 77.9 121.9 78.1 121.9 78.3 122 78.5 122 78.7 122 79 121.9 79.2 121.8 79.5 121.7 79.7 121.5 79.9 121.3 80.1 121 80.4 120.4 80.6 119.8 80.6L119.8 81.3 119.1 81.3 119.1 80.6C118.6 80.5 118.1 80.3 117.7 80 117.2 79.7 116.9 79.4 116.8 78.9ZM118.1 76.1C118.1 76.5 118.4 76.7 119 76.8L119.1 76.8 119.1 75.4C118.8 75.4 118.6 75.5 118.4 75.6 118.2 75.8 118.1 75.9 118.1 76.1ZM119.8 79.7C120.1 79.7 120.4 79.6 120.6 79.4 120.8 79.3 120.9 79 120.9 78.7 120.9 78.6 120.8 78.4 120.7 78.3 120.5 78.2 120.3 78.1 120 78L119.8 78 119.8 79.7ZM122.9 78.9L123.8 78.3C124.1 79.1 124.5 79.5 125.2 79.7L125.2 77.8 124.8 77.8C124.6 77.7 124.5 77.7 124.4 77.7 124.3 77.6 124.2 77.6 124 77.5 123.8 77.4 123.7 77.3 123.6 77.2 123.5 77.1 123.4 76.9 123.3 76.8 123.2 76.6 123.2 76.4 123.2 76.1 123.2 75.9 123.3 75.6 123.4 75.4 123.5 75.1 123.7 74.9 123.9 74.8 124.3 74.6 124.7 74.5 125.2 74.4L125.2 73.6 125.9 73.6 125.9 74.4C126.3 74.5 126.8 74.6 127.1 74.9 127.5 75.1 127.8 75.4 127.9 75.7L127.1 76.3C127 76.1 126.8 75.9 126.6 75.7 126.4 75.6 126.1 75.5 125.9 75.4L125.9 77 126.3 77C126.5 77.1 126.7 77.1 126.8 77.2 127 77.2 127.2 77.3 127.3 77.4 127.5 77.5 127.6 77.6 127.7 77.7 127.8 77.8 127.9 77.9 128 78.1 128 78.3 128.1 78.5 128.1 78.7 128.1 79 128 79.2 127.9 79.5 127.8 79.7 127.6 79.9 127.5 80.1 127.1 80.4 126.6 80.6 125.9 80.6L125.9 81.3 125.2 81.3 125.2 80.6C124.7 80.5 124.2 80.3 123.8 80 123.4 79.7 123.1 79.4 122.9 78.9ZM124.2 76.1C124.2 76.5 124.5 76.7 125.1 76.8L125.2 76.8 125.2 75.4C124.9 75.4 124.7 75.5 124.5 75.6 124.3 75.8 124.2 75.9 124.2 76.1ZM125.9 79.7C126.2 79.7 126.5 79.6 126.7 79.4 126.9 79.3 127 79 127 78.7 127 78.6 127 78.4 126.8 78.3 126.6 78.2 126.4 78.1 126.1 78L125.9 78 125.9 79.7Z" fill="#008EF6"/><rect fill="#008EF6" x="6.6" y="73.6" width="29.8" height="29.4"/><path d="M93.6 74.1L84.8 74.1 75.9 74.1 67.1 74.1 58.2 74.1 49.4 74.1 40.4 74.1 40.4 80.2 49.4 80.2 58.2 80.2 67.1 80.2 75.9 80.2 84.8 80.2 93.6 80.2 102.6 80.2 102.6 74.1 93.6 74.1Z" fill="#008EF6"/><rect fill="#008EF6" x="116.3" y="128.2" width="19.6" height="10"/><path d="M60.8 124.9L55.2 124.9 50.2 124.9 45.6 124.9 40.4 124.9 40.4 128.7 45.6 128.7 50.2 128.7 55.2 128.7 60.8 128.7 66.4 128.7 66.4 124.9 60.8 124.9ZM77.8 118.9L73.2 118.9 68.6 118.9 64 118.9 59.4 118.9 54.8 118.9 50.2 118.9 45.6 118.9 40.4 118.9 40.4 122.7 45.6 122.7 50.2 122.7 54.8 122.7 59.4 122.7 64 122.7 68.6 122.7 73.2 122.7 77.8 122.7 83 122.7 83 118.9 77.8 118.9ZM116.8 114.5L117.6 113.9C117.9 114.7 118.4 115.1 119.1 115.2L119.1 113.4 118.7 113.3C118.5 113.3 118.4 113.3 118.3 113.3 118.2 113.2 118 113.2 117.9 113.1 117.7 113 117.6 112.9 117.5 112.8 117.4 112.7 117.3 112.5 117.2 112.3 117.1 112.2 117.1 112 117.1 111.7 117.1 111.4 117.1 111.2 117.3 110.9 117.4 110.7 117.6 110.5 117.8 110.4 118.2 110.2 118.6 110 119.1 110L119.1 109.1 119.8 109.1 119.8 110C120.2 110.1 120.6 110.2 121 110.4 121.4 110.7 121.6 110.9 121.8 111.3L121 111.9C120.9 111.7 120.7 111.5 120.5 111.3 120.3 111.2 120 111 119.8 111L119.8 112.5 120.2 112.6C120.4 112.7 120.6 112.7 120.7 112.7 120.9 112.8 121 112.9 121.2 112.9 121.4 113 121.5 113.1 121.6 113.2 121.7 113.4 121.8 113.5 121.9 113.7 121.9 113.9 122 114.1 122 114.3 122 114.6 121.9 114.8 121.8 115.1 121.7 115.3 121.5 115.5 121.3 115.7 121 116 120.4 116.2 119.8 116.2L119.8 116.9 119.1 116.9 119.1 116.2C118.6 116.1 118.1 115.9 117.7 115.6 117.2 115.3 116.9 114.9 116.8 114.5ZM118.1 111.7C118.1 112 118.4 112.3 119 112.4L119.1 112.4 119.1 111C118.8 111 118.6 111.1 118.4 111.2 118.2 111.3 118.1 111.5 118.1 111.7ZM119.8 115.3C120.1 115.2 120.4 115.2 120.6 115 120.8 114.8 120.9 114.6 120.9 114.3 120.9 114.1 120.8 114 120.7 113.9 120.5 113.7 120.3 113.7 120 113.6L119.8 113.6 119.8 115.3ZM122.9 114.5L123.8 113.9C124.1 114.7 124.5 115.1 125.2 115.2L125.2 113.4 124.8 113.3C124.6 113.3 124.5 113.3 124.4 113.3 124.3 113.2 124.2 113.2 124 113.1 123.8 113 123.7 112.9 123.6 112.8 123.5 112.7 123.4 112.5 123.3 112.3 123.2 112.2 123.2 112 123.2 111.7 123.2 111.4 123.3 111.2 123.4 110.9 123.5 110.7 123.7 110.5 123.9 110.4 124.3 110.2 124.7 110 125.2 110L125.2 109.1 125.9 109.1 125.9 110C126.3 110.1 126.8 110.2 127.1 110.4 127.5 110.7 127.8 110.9 127.9 111.3L127.1 111.9C127 111.7 126.8 111.5 126.6 111.3 126.4 111.2 126.1 111 125.9 111L125.9 112.5 126.3 112.6C126.5 112.7 126.7 112.7 126.8 112.7 127 112.8 127.2 112.9 127.3 112.9 127.5 113 127.6 113.1 127.7 113.2 127.8 113.4 127.9 113.5 128 113.7 128 113.9 128.1 114.1 128.1 114.3 128.1 114.6 128 114.8 127.9 115.1 127.8 115.3 127.6 115.5 127.5 115.7 127.1 116 126.6 116.2 125.9 116.2L125.9 116.9 125.2 116.9 125.2 116.2C124.7 116.1 124.2 115.9 123.8 115.6 123.4 115.3 123.1 114.9 122.9 114.5ZM124.2 111.7C124.2 112 124.5 112.3 125.1 112.4L125.2 112.4 125.2 111C124.9 111 124.7 111.1 124.5 111.2 124.3 111.3 124.2 111.5 124.2 111.7ZM125.9 115.3C126.2 115.2 126.5 115.2 126.7 115 126.9 114.8 127 114.6 127 114.3 127 114.1 127 114 126.8 113.9 126.6 113.7 126.4 113.7 126.1 113.6L125.9 113.6 125.9 115.3Z" fill="#008EF6"/><rect fill="#008EF6" x="6.6" y="109.2" width="29.8" height="28.6"/><path d="M93.6 109.6L84.8 109.6 75.9 109.6 67.1 109.6 58.2 109.6 49.4 109.6 40.4 109.6 40.4 115.7 49.4 115.7 58.2 115.7 67.1 115.7 75.9 115.7 84.8 115.7 93.6 115.7 102.6 115.7 102.6 109.6 93.6 109.6Z" fill="#008EF6"/></g></g></g></g></svg>