<svg xmlns="http://www.w3.org/2000/svg" width="139" height="139" viewBox="0 0 139 139" version="1.1"><title>kit-page</title><desc>Created with Sketch Beta.</desc><g stroke="none" stroke-width="1" fill="none" fill-rule="evenodd"><g transform="translate(-767.000000, -3182.000000)"><g transform="translate(361.000000, 3134.000000)"><g transform="translate(406.000000, 48.000000)"><rect fill="#FFECEC" x="0" y="0" width="138.4" height="138.4"/><rect fill="#FF7371" x="6.5" y="14.9" width="53.4" height="53.3"/><rect fill="#FF7371" x="48" y="72" width="10.8" height="10.8"/><rect fill="#FF7371" x="65.8" y="42.2" width="19.3" height="10.8"/><rect fill="#FF7371" x="34.1" y="72" width="10.8" height="10.8"/><rect fill="#FF7371" x="20.3" y="72" width="10.8" height="10.8"/><rect fill="#FF7371" x="20.3" y="85.2" width="10.8" height="10.8"/><rect fill="#FF7371" x="6.5" y="72" width="10.8" height="10.8"/><rect fill="#FF7371" x="6.5" y="85.2" width="10.8" height="10.8"/><path d="M86.2 86.2L80.7 86.2 75.6 86.2 71 86.2 65.8 86.2 65.8 90 71 90 75.6 90 80.7 90 86.2 90 91.8 90 91.8 86.2 86.2 86.2ZM103.2 80.2L98.6 80.2 94 80.2 89.4 80.2 84.8 80.2 80.2 80.2 75.6 80.2 71 80.2 65.8 80.2 65.8 84 71 84 75.6 84 80.2 84 84.8 84 89.4 84 94 84 98.6 84 103.2 84 108.4 84 108.4 80.2 103.2 80.2ZM103.2 74.2L98.6 74.2 94 74.2 89.4 74.2 84.8 74.2 80.2 74.2 75.6 74.2 71 74.2 65.8 74.2 65.8 78 71 78 75.6 78 80.2 78 84.8 78 89.4 78 94 78 98.6 78 103.2 78 108.4 78 108.4 74.2 103.2 74.2ZM123.6 61.8L119 61.8 113.8 61.8 113.8 65.6 119 65.6 123.6 65.6 128.7 65.6 128.7 61.8 123.6 61.8ZM99.6 61.8L95 61.8 89.8 61.8 89.8 65.6 95 65.6 99.6 65.6 104.7 65.6 104.7 61.8 99.6 61.8ZM75.6 61.8L71 61.8 65.8 61.8 65.8 65.6 71 65.6 75.6 65.6 80.8 65.6 80.8 61.8 75.6 61.8ZM119 15.3L110.2 15.3 101.4 15.3 92.5 15.3 83.7 15.3 74.8 15.3 65.8 15.3 65.8 21.4 74.8 21.4 83.7 21.4 92.5 21.4 101.4 21.4 110.2 21.4 119 21.4 128 21.4 128 15.3 119 15.3ZM66.3 34.2L67.2 33.7C67.5 34.4 68 34.8 68.6 35L68.6 33.2 68.2 33.1C68.1 33.1 68 33 67.8 33 67.7 33 67.6 32.9 67.4 32.8 67.3 32.7 67.1 32.6 67 32.5 66.9 32.4 66.8 32.3 66.7 32.1 66.7 31.9 66.6 31.7 66.6 31.5 66.6 31.2 66.7 30.9 66.8 30.7 67 30.5 67.1 30.3 67.4 30.1 67.7 29.9 68.1 29.8 68.6 29.7L68.6 28.9 69.3 28.9 69.3 29.8C69.8 29.8 70.2 30 70.6 30.2 70.9 30.4 71.2 30.7 71.4 31L70.6 31.6C70.4 31.4 70.3 31.2 70 31.1 69.8 30.9 69.6 30.8 69.3 30.7L69.3 32.3 69.7 32.4C69.9 32.4 70.1 32.4 70.3 32.5 70.4 32.5 70.6 32.6 70.8 32.7 70.9 32.8 71.1 32.9 71.2 33 71.3 33.1 71.3 33.3 71.4 33.4 71.5 33.6 71.5 33.8 71.5 34.1 71.5 34.3 71.5 34.6 71.3 34.8 71.2 35 71.1 35.2 70.9 35.4 70.5 35.7 70 35.9 69.3 35.9L69.3 36.7 68.6 36.7 68.6 35.9C68.1 35.8 67.6 35.7 67.2 35.4 66.8 35.1 66.5 34.7 66.3 34.2ZM67.7 31.4C67.7 31.8 68 32 68.6 32.1L68.6 32.2 68.6 30.7C68.3 30.7 68.1 30.8 67.9 31 67.8 31.1 67.7 31.2 67.7 31.4ZM69.3 35C69.7 35 70 34.9 70.2 34.7 70.4 34.6 70.5 34.4 70.5 34.1 70.5 33.9 70.4 33.7 70.2 33.6 70.1 33.5 69.8 33.4 69.5 33.3L69.3 33.3 69.3 35ZM72.5 34.2L73.3 33.7C73.6 34.4 74.1 34.8 74.7 35L74.7 33.2 74.3 33.1C74.2 33.1 74.1 33 74 33 73.8 33 73.7 32.9 73.6 32.8 73.4 32.7 73.3 32.6 73.2 32.5 73 32.4 72.9 32.3 72.9 32.1 72.8 31.9 72.7 31.7 72.7 31.5 72.7 31.2 72.8 30.9 72.9 30.7 73.1 30.5 73.3 30.3 73.5 30.1 73.8 29.9 74.2 29.8 74.7 29.7L74.7 28.9 75.4 28.9 75.4 29.8C75.9 29.8 76.3 30 76.7 30.2 77 30.4 77.3 30.7 77.5 31L76.7 31.6C76.6 31.4 76.4 31.2 76.2 31.1 75.9 30.9 75.7 30.8 75.4 30.7L75.4 32.3 75.9 32.4C76.1 32.4 76.2 32.4 76.4 32.5 76.5 32.5 76.7 32.6 76.9 32.7 77 32.8 77.2 32.9 77.3 33 77.4 33.1 77.5 33.3 77.5 33.4 77.6 33.6 77.6 33.8 77.6 34.1 77.6 34.3 77.6 34.6 77.5 34.8 77.3 35 77.2 35.2 77 35.4 76.6 35.7 76.1 35.9 75.4 35.9L75.4 36.7 74.7 36.7 74.7 35.9C74.2 35.8 73.8 35.7 73.3 35.4 72.9 35.1 72.6 34.7 72.5 34.2ZM73.8 31.4C73.8 31.8 74.1 32 74.7 32.1L74.7 32.2 74.7 30.7C74.5 30.7 74.2 30.8 74.1 31 73.9 31.1 73.8 31.2 73.8 31.4ZM75.4 35C75.8 35 76.1 34.9 76.3 34.7 76.5 34.6 76.6 34.4 76.6 34.1 76.6 33.9 76.5 33.7 76.4 33.6 76.2 33.5 75.9 33.4 75.6 33.3L75.4 33.3 75.4 35Z" fill="#FF7371"/><rect fill="#FF7371" x="6.5" y="102.6" width="29.4" height="29.4"/><rect fill="#FF7371" x="39" y="102.6" width="29.4" height="29.4"/><rect fill="#FF7371" x="71.5" y="102.6" width="29.4" height="29.4"/><rect fill="#FF7371" x="104.2" y="102.6" width="29.4" height="29.4"/><rect fill="#FFECEC" x="0" y="0" width="138.4" height="10.8"/><ellipse fill="#FA4A4A" cx="5.2" cy="5.3" rx="1.2" ry="1.2"/><ellipse fill="#FA4A4A" cx="10.1" cy="5.3" rx="1.2" ry="1.2"/><ellipse fill="#FA4A4A" cx="15.8" cy="5.3" rx="1.2" ry="1.2"/></g></g></g></g></svg>