<svg xmlns="http://www.w3.org/2000/svg" width="22" height="22" viewBox="0 0 22 22" version="1.1"><title>github</title><desc>Created with Sketch Beta.</desc><g stroke="none" stroke-width="1" fill="none" fill-rule="evenodd"><g transform="translate(-301.000000, -139.000000)" fill-rule="nonzero" fill="#353535"><g transform="translate(263.000000, 59.000000)"><g transform="translate(0.000000, 80.000000)"><path d="M49 0C42.9 0 38 4.9 38 11 38 15.9 41.2 20.1 45.5 21.5 46.1 21.6 46.3 21.3 46.3 21 46.3 20.7 46.3 19.9 46.3 18.9 43.2 19.6 42.6 17.6 42.6 17.6 42.1 16.4 41.3 16 41.3 16 40.3 15.3 41.4 15.3 41.4 15.3 42.5 15.4 43.1 16.5 43.1 16.5 44.1 18.2 45.7 17.7 46.3 17.4 46.4 16.7 46.7 16.2 47 15.9 44.5 15.6 42 14.7 42 10.5 42 9.3 42.4 8.3 43.1 7.5 43 7.2 42.6 6.1 43.2 4.6 43.2 4.6 44.1 4.3 46.2 5.7 47.1 5.5 48.1 5.3 49 5.3 49.9 5.3 50.9 5.5 51.8 5.7 53.9 4.3 54.8 4.6 54.8 4.6 55.4 6.1 55 7.2 54.9 7.5 55.6 8.3 56 9.3 56 10.5 56 14.7 53.4 15.6 51 15.9 51.4 16.3 51.7 16.9 51.7 18 51.7 19.4 51.7 20.6 51.7 21 51.7 21.3 51.9 21.6 52.5 21.5 56.9 20.1 60 15.9 60 11 60 4.9 55.1 0 49 0ZM42.1 15.7C42.1 15.8 42 15.8 41.9 15.8 41.9 15.7 41.8 15.7 41.8 15.6 41.9 15.5 41.9 15.5 42 15.6 42.1 15.6 42.1 15.7 42.1 15.7ZM42.7 16.2C42.6 16.3 42.5 16.2 42.4 16.2 42.4 16.1 42.4 16 42.4 15.9 42.5 15.9 42.6 15.9 42.6 16 42.7 16.1 42.7 16.2 42.7 16.2ZM43 16.8C43 16.9 42.9 16.8 42.8 16.7 42.7 16.6 42.7 16.5 42.8 16.5 42.9 16.4 43 16.5 43 16.6 43.1 16.7 43.1 16.8 43 16.8ZM43.7 17.6C43.6 17.6 43.5 17.6 43.4 17.5 43.3 17.4 43.3 17.3 43.3 17.2 43.4 17.2 43.5 17.2 43.6 17.3 43.7 17.4 43.7 17.5 43.7 17.6ZM44.5 17.8C44.4 17.9 44.3 17.9 44.2 17.9 44.1 17.8 44 17.7 44 17.7 44 17.6 44.2 17.5 44.3 17.6 44.4 17.6 44.5 17.7 44.5 17.8ZM45.4 17.9C45.4 18 45.3 18.1 45.2 18.1 45 18.1 44.9 18 44.9 17.9 44.9 17.8 45 17.7 45.2 17.7 45.3 17.7 45.4 17.8 45.4 17.9ZM46.3 17.9C46.3 18 46.2 18 46.1 18.1 46 18.1 45.9 18 45.8 17.9 45.8 17.9 45.9 17.8 46 17.7 46.2 17.7 46.3 17.8 46.3 17.9Z"/></g></g></g></g></svg>