<svg xmlns="http://www.w3.org/2000/svg" xmlns:xlink="http://www.w3.org/1999/xlink" width="649" height="626" viewBox="0 0 649 626" version="1.1"><title>kit-wireframe</title><desc>Created with Sketch Beta.</desc><defs><rect id="path-1" x="442.9" y="243.4" width="174.9" height="27.4"/><mask id="mask-2" maskContentUnits="userSpaceOnUse" maskUnits="objectBoundingBox" x="0" y="0" width="174.9" height="27.4" fill="white"><use xlink:href="#path-1"/></mask></defs><g id="archive" stroke="none" stroke-width="1" fill="none" fill-rule="evenodd"><g id="case-study-v2-copy-2" transform="translate(-261.000000, -4315.000000)"><g id="kit-wireframe" transform="translate(261.000000, 4315.000000)"><rect id="wireframe-bg" fill="#FFFFFF" x="0" y="0" width="649" height="625.1"/><rect id="cta-bg" fill="#E3E3E3" x="434.7" y="128.5" width="190.1" height="153.6"/><rect id="button-secondary-text" fill="#B4B4B4" x="478.7" y="251.1" width="102.4" height="11.9"/><rect id="select-bg" fill="#FFFFFF" x="442.9" y="171.9" width="174.9" height="26.2"/><rect id="button-primary" fill="#525252" x="442.9" y="208.2" width="174.9" height="27.4"/><use id="button-secondary" stroke="#B4B4B4" mask="url(#mask-2)" stroke-width="2" xlink:href="#path-1"/><polygon id="select-dropdown" fill="#B4B4B4" transform="translate(601.692143, 186.361952) rotate(180.000000) translate(-601.692143, -186.361952) " points="601.7 181.6 606.5 191.1 596.9 191.1"/><path d="M448.6 161.4L448.6 159.6C446.5 159.4 444.8 158.6 443.8 157.3L444.8 156C445.6 156.9 446.9 157.8 448.6 158L448.6 152.9C446.4 152.3 444.2 151.5 444.2 148.9 444.2 146.8 446.1 145.2 448.6 145L448.6 143.1 449.9 143.1 449.9 145.1C451.6 145.2 453 145.9 454.1 147L453 148.3C452.2 147.4 451.1 146.8 449.9 146.7L449.9 151.3C452.1 151.9 454.4 152.7 454.4 155.4 454.4 157.3 453.2 159.3 449.9 159.6L449.9 161.4 448.6 161.4ZM452.6 155.6C452.6 154.2 451.4 153.6 449.9 153.2L449.9 158C451.9 157.8 452.6 156.6 452.6 155.6ZM446 148.8C446 150 447.2 150.5 448.6 150.9L448.6 146.6C447.1 146.7 446 147.6 446 148.8ZM466.2 159.3L466.2 157.8 459.3 157.8C463.2 154.7 466.1 152 466.1 149.2 466.1 146.4 463.8 145 461.4 145 459.4 145 457.6 145.8 456.5 147.3L457.6 148.4C458.4 147.3 459.7 146.6 461.4 146.6 462.9 146.6 464.4 147.4 464.4 149.2 464.4 151.6 461.6 153.9 456.5 157.9L456.5 159.3 466.2 159.3ZM473.5 159.6C471.7 159.6 470.5 158.9 469.6 157.9L470.5 156.6C471.2 157.4 472 158 473.5 158 476.3 158 477.5 155.2 477.5 152.5 477.5 152.3 477.5 152.1 477.4 151.9 476.8 152.9 475.3 154.1 473.5 154.1 470.9 154.1 468.9 152.6 468.9 149.6 468.9 147.2 470.7 145 473.8 145 477.7 145 479.2 148.5 479.2 152.3 479.2 156.1 477.4 159.6 473.5 159.6ZM473.9 152.6C475.3 152.6 476.6 151.7 477.4 150.5 477.2 148.8 476.3 146.6 473.9 146.6 471.7 146.6 470.6 148.2 470.6 149.6 470.6 151.6 472.1 152.6 473.9 152.6ZM482.7 159.5C483.4 159.5 483.9 159 483.9 158.4 483.9 157.7 483.4 157.2 482.7 157.2 482.1 157.2 481.6 157.7 481.6 158.4 481.6 159 482.1 159.5 482.7 159.5ZM490.9 159.6C489.1 159.6 487.8 158.9 487 157.9L487.8 156.6C488.6 157.4 489.4 158 490.9 158 493.7 158 494.8 155.2 494.8 152.5 494.8 152.3 494.8 152.1 494.8 151.9 494.2 152.9 492.6 154.1 490.8 154.1 488.3 154.1 486.2 152.6 486.2 149.6 486.2 147.2 488.1 145 491.2 145 495.1 145 496.6 148.5 496.6 152.3 496.6 156.1 494.8 159.6 490.9 159.6ZM491.2 152.6C492.6 152.6 494 151.7 494.8 150.5 494.6 148.8 493.7 146.6 491.2 146.6 489.1 146.6 488 148.2 488 149.6 488 151.6 489.4 152.6 491.2 152.6ZM503.3 159.6C501.6 159.6 500.3 158.9 499.4 157.9L500.3 156.6C501 157.4 501.9 158 503.3 158 506.2 158 507.3 155.2 507.3 152.5 507.3 152.3 507.3 152.1 507.3 151.9 506.7 152.9 505.1 154.1 503.3 154.1 500.8 154.1 498.7 152.6 498.7 149.6 498.7 147.2 500.6 145 503.6 145 507.6 145 509.1 148.5 509.1 152.3 509.1 156.1 507.3 159.6 503.3 159.6ZM503.7 152.6C505.1 152.6 506.5 151.7 507.3 150.5 507.1 148.8 506.2 146.6 503.7 146.6 501.6 146.6 500.5 148.2 500.5 149.6 500.5 151.6 501.9 152.6 503.7 152.6Z" id="price" fill="#525252"/><rect id="select-text" fill="#B4B4B4" x="450.1" y="183.3" width="29.8" height="4.8"/><rect id="button-text" fill="#FFFFFF" x="478.7" y="216.6" width="102.4" height="11.9"/><rect id="image-icon-bg" fill="#E3E3E3" x="368" y="357" width="51.6" height="32.1"/><rect id="main-image-bg" fill="#E3E3E3" x="26.2" y="128.5" width="394.3" height="221.6"/><polygon id="main-image-m" fill="#FFFFFF" points="287.6 285.7 287.6 246.2 250.2 210.1 203.9 256.6 189.7 242.3 161.7 270.6 161.7 287.3"/><ellipse id="main-image-o" fill="#FFFFFF" cx="178.2" cy="210.2" rx="19.4" ry="19.5"/><rect id="image-icon-bg" fill="#E3E3E3" x="26.2" y="357" width="51.6" height="32.1"/><polygon id="image-icon-m" fill="#FFFFFF" points="59.7 379.1 59.7 373.4 54.8 368.2 48.8 374.9 46.9 372.9 43.2 376.9 43.2 379.4"/><ellipse id="image-icon-o" fill="#FFFFFF" cx="45.4" cy="368.2" rx="2.5" ry="2.8"/><rect id="image-icon-bg" fill="#E3E3E3" x="83.4" y="357" width="51.6" height="32.1"/><polygon id="image-icon-m" fill="#FFFFFF" points="116.9 379.1 116.9 373.4 112 368.2 105.9 374.9 104.1 372.9 100.4 376.9 100.4 379.4"/><ellipse id="image-icon-o" fill="#FFFFFF" cx="102.6" cy="368.2" rx="2.5" ry="2.8"/><rect id="image-icon-bg" fill="#E3E3E3" x="140.5" y="357" width="51.6" height="32.1"/><polygon id="image-icon-m" fill="#FFFFFF" points="174.1 379.1 174.1 373.4 169.1 368.2 163.1 374.9 161.2 372.9 157.6 376.9 157.6 379.4"/><ellipse id="image-icon-o" fill="#FFFFFF" cx="159.7" cy="368.2" rx="2.5" ry="2.8"/><rect id="image-icon-bg" fill="#E3E3E3" x="197.7" y="357" width="51.6" height="32.1"/><polygon id="image-icon-m" fill="#FFFFFF" points="231.2 379.1 231.2 373.4 226.3 368.2 220.3 374.9 218.4 372.9 214.7 376.9 214.7 379.4"/><ellipse id="image-icon-o" fill="#FFFFFF" cx="216.9" cy="368.2" rx="2.5" ry="2.8"/><rect id="image-icon-bg" fill="#E3E3E3" x="254.8" y="357" width="51.6" height="32.1"/><polygon id="image-icon-m" fill="#FFFFFF" points="288.4 379.1 288.4 373.4 283.5 368.2 277.4 374.9 275.6 372.9 271.9 376.9 271.9 379.4"/><ellipse id="image-icon-o" fill="#FFFFFF" cx="274" cy="368.2" rx="2.5" ry="2.8"/><rect id="image-icon-bg" fill="#E3E3E3" x="310.8" y="357" width="51.6" height="32.1"/><polygon id="image-icon-m" fill="#FFFFFF" points="345.5 379.1 345.5 373.4 340.6 368.2 334.6 374.9 332.7 372.9 329 376.9 329 379.4"/><ellipse id="image-icon-o" fill="#FFFFFF" cx="331.2" cy="368.2" rx="2.5" ry="2.8"/><rect id="image-icon-bg" fill="#E3E3E3" x="368" y="357" width="51.6" height="32.1"/><polygon id="image-icon-m" fill="#FFFFFF" points="402.7 379.1 402.7 373.4 397.8 368.2 391.7 374.9 389.9 372.9 386.2 376.9 386.2 379.4"/><ellipse id="image-icon-o" fill="#FFFFFF" cx="388.4" cy="368.2" rx="2.5" ry="2.8"/><path d="M40 109.5L32.9 101.3 39.4 93.8 36.9 93.8 30 101.9 30 93.8 28.1 93.8 28.1 109.5 30 109.5 30 104.2 31.6 102.5 37.5 109.5 40 109.5ZM51.5 109.5L51.5 101.5C51.5 99.1 50.3 97.9 47.9 97.9 46.2 97.9 44.7 98.8 43.9 99.8L43.9 98.2 42.1 98.2 42.1 109.5 43.9 109.5 43.9 101.2C44.5 100.3 45.8 99.5 47.2 99.5 48.7 99.5 49.8 100.1 49.8 102.1L49.8 109.5 51.5 109.5ZM60 109.8C56.6 109.8 54.4 107.1 54.4 103.8 54.4 100.5 56.6 97.9 60 97.9 63.5 97.9 65.6 100.5 65.6 103.8 65.6 107.1 63.5 109.8 60 109.8ZM60 108.2C62.4 108.2 63.8 106.1 63.8 103.8 63.8 101.5 62.4 99.5 60 99.5 57.6 99.5 56.3 101.5 56.3 103.8 56.3 106.1 57.6 108.2 60 108.2ZM71.4 109.8C72.4 109.8 73 109.5 73.5 109L72.9 107.7C72.7 108 72.3 108.2 71.8 108.2 71 108.2 70.6 107.6 70.6 106.7L70.6 99.7 72.9 99.7 72.9 98.2 70.6 98.2 70.6 95.1 68.8 95.1 68.8 98.2 67 98.2 67 99.7 68.8 99.7 68.8 107.1C68.8 108.8 69.7 109.8 71.4 109.8ZM78.3 109.8C79.3 109.8 79.9 109.5 80.4 109L79.9 107.7C79.6 108 79.2 108.2 78.7 108.2 77.9 108.2 77.5 107.6 77.5 106.7L77.5 99.7 79.8 99.7 79.8 98.2 77.5 98.2 77.5 95.1 75.7 95.1 75.7 98.2 73.9 98.2 73.9 99.7 75.7 99.7 75.7 107.1C75.7 108.8 76.6 109.8 78.3 109.8ZM87.4 109.8C84.1 109.8 81.6 107.4 81.6 103.8 81.6 100.5 84 97.9 87.2 97.9 90.6 97.9 92.7 100.6 92.7 104L92.7 104.4 83.5 104.4C83.7 106.5 85.1 108.3 87.6 108.3 88.9 108.3 90.2 107.8 91.1 106.9L91.9 108C90.8 109.1 89.3 109.8 87.4 109.8ZM90.9 103.1C90.9 101.4 89.8 99.3 87.2 99.3 84.8 99.3 83.6 101.4 83.5 103.1L90.9 103.1ZM105.5 109.5L103.7 109.5 103.7 107.8C102.9 109 101.5 109.8 99.9 109.8 96.9 109.8 94.8 107.5 94.8 103.8 94.8 100.2 96.9 97.9 99.9 97.9 101.4 97.9 102.8 98.6 103.7 99.9L103.7 93.8 105.5 93.8 105.5 109.5ZM100.3 108.2C101.7 108.2 103.1 107.4 103.7 106.4L103.7 101.3C103.1 100.3 101.7 99.5 100.3 99.5 98 99.5 96.7 101.3 96.7 103.8 96.7 106.3 98 108.2 100.3 108.2ZM117.7 109.8C120.5 109.8 122.6 108.2 122.6 104.8L122.6 93.8 120.7 93.8 120.7 104.8C120.7 106.7 119.5 108 117.5 108 116.2 108 115.3 107.3 114.6 106.5L113.6 108C114.7 109.2 116 109.8 117.7 109.8ZM131.4 109.8C128 109.8 125.6 107.4 125.6 103.8 125.6 100.5 127.9 97.9 131.2 97.9 134.6 97.9 136.6 100.6 136.6 104L136.6 104.4 127.5 104.4C127.6 106.5 129.1 108.3 131.5 108.3 132.8 108.3 134.1 107.8 135 106.9L135.9 108C134.7 109.1 133.2 109.8 131.4 109.8ZM134.9 103.1C134.8 101.4 133.7 99.3 131.1 99.3 128.7 99.3 127.5 101.4 127.4 103.1L134.9 103.1ZM151 109.5L154.7 98.2 152.8 98.2 150 107.2 147.1 98.2 145.5 98.2 142.6 107.2 139.8 98.2 138 98.2 141.6 109.5 143.3 109.5 146.3 100.4 149.3 109.5 151 109.5ZM158.4 109.5L158.4 93.8 156.7 93.8 156.7 109.5 158.4 109.5ZM167.1 109.8C163.7 109.8 161.3 107.4 161.3 103.8 161.3 100.5 163.6 97.9 166.9 97.9 170.3 97.9 172.3 100.6 172.3 104L172.3 104.4 163.2 104.4C163.3 106.5 164.8 108.3 167.2 108.3 168.6 108.3 169.8 107.8 170.8 106.9L171.6 108C170.5 109.1 168.9 109.8 167.1 109.8ZM170.6 103.1C170.6 101.4 169.4 99.3 166.9 99.3 164.4 99.3 163.2 101.4 163.2 103.1L170.6 103.1ZM176.9 109.5L176.9 101.5C177.4 100.6 178.9 99.7 180 99.7 180.3 99.7 180.5 99.7 180.7 99.7L180.7 97.9C179.2 97.9 177.8 98.8 176.9 100L176.9 98.2 175.2 98.2 175.2 109.5 176.9 109.5ZM182.3 113.9C182.6 114 183.2 114.1 183.6 114.1 185.1 114.1 186.2 113.4 186.9 111.8L192.6 98.2 190.7 98.2 186.9 107.4 183.2 98.2 181.2 98.2 186 109.6 185.2 111.3C184.8 112.3 184.3 112.5 183.5 112.5 183.2 112.5 182.8 112.4 182.6 112.3L182.3 113.9ZM212.5 109.5L205.4 101.3 211.9 93.8 209.4 93.8 202.5 101.9 202.5 93.8 200.6 93.8 200.6 109.5 202.5 109.5 202.5 104.2 204.1 102.5 210 109.5 212.5 109.5ZM215.5 96.5C216.2 96.5 216.7 96 216.7 95.4 216.7 94.7 216.2 94.2 215.5 94.2 214.8 94.2 214.3 94.7 214.3 95.4 214.3 96 214.8 96.5 215.5 96.5ZM216.4 109.5L216.4 98.2 214.6 98.2 214.6 109.5 216.4 109.5ZM222.8 109.8C223.8 109.8 224.4 109.5 224.9 109L224.3 107.7C224.1 108 223.7 108.2 223.1 108.2 222.4 108.2 222 107.6 222 106.7L222 99.7 224.3 99.7 224.3 98.2 222 98.2 222 95.1 220.2 95.1 220.2 98.2 218.4 98.2 218.4 99.7 220.2 99.7 220.2 107.1C220.2 108.8 221.1 109.8 222.8 109.8Z" id="wireframe-title" fill="#202020"/><rect id="wireframe-nav" fill="#E3E3E3" x="141" y="52" width="344" height="10"/><rect id="wireframe-login" fill="#E3E3E3" x="471" y="28" width="20" height="6"/><rect id="wireframe-login" fill="#E3E3E3" x="502" y="28" width="19" height="6"/><rect id="wireframe-login" fill="#E3E3E3" x="532" y="28" width="63" height="6"/><rect id="wireframe-top-bar" fill="#B4B4B4" x="0" y="0" width="649" height="16.4"/><g id="logo" transform="translate(26.198165, 24.992395)" fill-rule="nonzero" fill="#B4B4B4"><path d="M5.4 12.7L0 12.7 0 0.2 4.9 0.2C6.5 0.2 7.8 1.7 7.8 3.3 7.8 4.5 7.3 5.5 6.3 5.9L6.3 6C7.5 6 8.9 7.5 8.9 9.1 8.9 11.3 7.2 12.7 5.4 12.7ZM4 2.2L2.3 2.2 2.3 5.3 4 5.3C4.8 5.3 5.4 4.6 5.4 3.6 5.4 2.9 4.8 2.2 4 2.2ZM4.7 7.2L2.3 7.2 2.3 10.8 4.6 10.8C5.5 10.8 6.4 10.3 6.4 9 6.4 7.8 5.5 7.2 4.7 7.2ZM20.1 12.7L16.4 7.4 16.4 12.7 14 12.7 14 0.2 18.3 0.2C20.4 0.2 22.1 1.7 22.1 4 22.1 6 20.6 7.1 19.1 7.4 19.3 7.7 23 12.7 23 12.7L20.1 12.7 20.1 12.7 20.1 12.7ZM17.7 2.2L16.4 2.2 16.4 6 17.9 6C18.7 6 19.7 5.4 19.7 4 19.7 2.6 18.7 2.2 17.7 2.2Z" id="logo-b"/><polygon id="logo-i" points="28.1 12.7 28.1 0.2 30.5 0.2 30.5 12.7"/><polygon id="logo-t" points="40.8 2.4 40.8 12.7 38.4 12.7 38.4 2.4 35.8 2.4 35.8 0.2 43.3 0.2 43.3 2.4"/><path d="M68.2 12.8C64.8 12.8 62.2 9.9 62.2 6.5 62.2 3.1 64.9 0.1 68.4 0.1 69.9 0.1 71.4 0.8 71.4 0.8L71.4 3.4C71.4 3.4 70.3 2.3 68.4 2.3 66.2 2.3 64.6 4.2 64.6 6.3 64.6 8.6 66.1 10.6 68.4 10.6 69.7 10.6 70.6 10.1 71.5 9.4L71.5 11.9C71.2 12.2 69.8 12.8 68.2 12.8ZM81.5 12.8C78 12.8 75.2 9.9 75.2 6.4 75.2 2.8 78 0 81.5 0 85.1 0 88 2.9 88 6.4 88 9.9 85 12.8 81.5 12.8ZM81.5 2.3C79.2 2.3 77.5 4 77.5 6.4 77.5 8.8 79.2 10.5 81.5 10.5 83.9 10.5 85.6 8.7 85.6 6.4 85.6 4 83.8 2.3 81.5 2.3Z" id="logo-c"/><polygon id="logo-plus" points="57.4 7.7 57.4 5.4 53.7 5.4 53.7 1.7 51.3 1.7 51.3 5.4 47.6 5.4 47.6 7.7 51.3 7.7 51.3 11.4 53.7 11.4 53.7 7.7"/></g><path d="M0.6 44.6L647.2 44.6" id="Line" stroke="#E3E3E3" stroke-linecap="square"/><rect id="wireframe-callout-bg" fill="#E3E3E3" x="26.2" y="501" width="394.3" height="102"/><rect id="wireframe-vide" fill="#B4B4B4" x="270.3" y="512.8" width="139.7" height="78.3"/><polygon id="wireframe-play-button" fill="#FFFFFF" transform="translate(344.368161, 553.998963) rotate(90.000000) translate(-344.368161, -553.998963) " points="344.4 537.2 361.2 570.8 327.5 570.8"/><rect id="wireframe-button" fill="#B4B4B4" x="36.8" y="576.1" width="98.6" height="14.1"/><rect id="wireframe-button-text" fill="#FFFFFF" x="66.1" y="580.8" width="41.1" height="4.7"/><rect id="wireframe-description-1" fill="#B4B4B4" x="35.7" y="534.4" width="169.1" height="4.8"/><rect id="wireframe-description-2" fill="#B4B4B4" x="35.7" y="541.5" width="162" height="4.8"/><rect id="wireframe-description-3" fill="#B4B4B4" x="35.7" y="548.6" width="153.6" height="4.8"/><rect id="wireframe-description-4" fill="#B4B4B4" x="35.7" y="555.8" width="36.9" height="4.8"/><rect id="wireframe-title" fill="#B4B4B4" x="35.7" y="516.5" width="153.6" height="4.8"/><rect id="kit-line-1" fill="#E3E3E3" x="29" y="407" width="308.4" height="9.5"/><rect id="kit-line-2" fill="#E3E3E3" x="28.6" y="421.3" width="292.9" height="9.5"/><rect id="kit-line-3" fill="#E3E3E3" x="28.6" y="435.6" width="308.4" height="9.5"/><rect id="kit-line-4" fill="#E3E3E3" x="28.6" y="449.9" width="308.4" height="9.5"/><rect id="kit-line-5" fill="#E3E3E3" x="28.6" y="464.1" width="234.6" height="9.5"/></g></g></g></svg>