<svg xmlns="http://www.w3.org/2000/svg" width="545" height="526" viewBox="0 0 545 526" version="1.1"><title>kit-wireframe</title><desc>Created with Sketch Beta.</desc><defs><rect x="371.9" y="204.5" width="146.8" height="23"/><mask maskContentUnits="userSpaceOnUse" maskUnits="objectBoundingBox" x="0" y="0" width="146.8" height="23" fill="white"/></defs><g stroke="none" stroke-width="1" fill="none" fill-rule="evenodd"><g transform="translate(-771.000000, -4415.000000)"><g transform="translate(771.000000, 4415.000000)"><rect fill="#FFFFFF" x="0" y="0" width="545" height="525.2"/><rect fill="#E3E3E3" x="365" y="108" width="159.7" height="129"/><rect fill="#B4B4B4" x="402" y="211" width="86" height="10"/><rect fill="#FFFFFF" x="371.9" y="144.4" width="146.8" height="22"/><rect fill="#525252" x="371.9" y="175" width="146.8" height="23"/><use stroke="#B4B4B4" mask="url(#mask-2)" stroke-width="2"/><polygon fill="#B4B4B4" transform="translate(505.273063, 156.591672) rotate(180.000000) translate(-505.273063, -156.591672) " points="505.3 152.6 509.3 160.6 501.3 160.6"/><path d="M376.7 135.7L376.7 134.1C374.9 134 373.5 133.2 372.7 132.2L373.5 131.1C374.2 131.9 375.3 132.6 376.7 132.7L376.7 128.4C374.9 127.9 373 127.3 373 125.2 373 123.3 374.6 122 376.7 121.9L376.7 120.3 377.8 120.3 377.8 121.9C379.3 122 380.4 122.6 381.3 123.5L380.4 124.6C379.7 123.8 378.8 123.4 377.8 123.2L377.8 127.1C379.6 127.6 381.6 128.3 381.6 130.6 381.6 132.2 380.5 133.9 377.8 134.1L377.8 135.7 376.7 135.7ZM380 130.7C380 129.6 379 129.1 377.8 128.7L377.8 132.8C379.5 132.6 380 131.6 380 130.7ZM374.6 125.1C374.6 126 375.5 126.5 376.7 126.8L376.7 123.2C375.4 123.3 374.6 124 374.6 125.1ZM391.5 133.9L391.5 132.6 385.7 132.6C389 130 391.4 127.8 391.4 125.3 391.4 123 389.4 121.9 387.5 121.9 385.8 121.9 384.3 122.5 383.4 123.7L384.3 124.7C385 123.8 386.1 123.2 387.5 123.2 388.7 123.2 390 123.8 390 125.3 390 127.4 387.6 129.4 383.4 132.7L383.4 133.9 391.5 133.9ZM397.6 134.1C396.1 134.1 395.1 133.5 394.3 132.7L395.1 131.6C395.7 132.3 396.4 132.8 397.6 132.8 400 132.8 401 130.4 401 128.1 401 128 401 127.8 400.9 127.7 400.4 128.5 399.1 129.5 397.6 129.5 395.5 129.5 393.7 128.2 393.7 125.7 393.7 123.7 395.3 121.9 397.9 121.9 401.2 121.9 402.4 124.7 402.4 128 402.4 131.2 400.9 134.1 397.6 134.1ZM397.9 128.2C399.1 128.2 400.3 127.5 400.9 126.4 400.8 125 400 123.2 397.9 123.2 396.1 123.2 395.2 124.5 395.2 125.7 395.2 127.4 396.4 128.2 397.9 128.2ZM405.4 134.1C405.9 134.1 406.3 133.6 406.3 133.1 406.3 132.5 405.9 132.1 405.4 132.1 404.8 132.1 404.4 132.5 404.4 133.1 404.4 133.6 404.8 134.1 405.4 134.1ZM412.2 134.1C410.7 134.1 409.7 133.5 408.9 132.7L409.7 131.6C410.3 132.3 411 132.8 412.2 132.8 414.6 132.8 415.5 130.4 415.5 128.1 415.5 128 415.5 127.8 415.5 127.7 415 128.5 413.7 129.5 412.2 129.5 410.1 129.5 408.3 128.2 408.3 125.7 408.3 123.7 409.9 121.9 412.5 121.9 415.8 121.9 417 124.7 417 128 417 131.2 415.5 134.1 412.2 134.1ZM412.5 128.2C413.7 128.2 414.8 127.5 415.5 126.4 415.3 125 414.6 123.2 412.5 123.2 410.7 123.2 409.8 124.5 409.8 125.7 409.8 127.4 411 128.2 412.5 128.2ZM422.7 134.1C421.2 134.1 420.2 133.5 419.4 132.7L420.2 131.6C420.8 132.3 421.5 132.8 422.7 132.8 425.1 132.8 426 130.4 426 128.1 426 128 426 127.8 426 127.7 425.5 128.5 424.2 129.5 422.7 129.5 420.5 129.5 418.8 128.2 418.8 125.7 418.8 123.7 420.3 121.9 422.9 121.9 426.2 121.9 427.5 124.7 427.5 128 427.5 131.2 426 134.1 422.7 134.1ZM423 128.2C424.2 128.2 425.3 127.5 426 126.4 425.8 125 425 123.2 423 123.2 421.2 123.2 420.3 124.5 420.3 125.7 420.3 127.4 421.5 128.2 423 128.2Z" fill="#525252"/><rect fill="#B4B4B4" x="378" y="154" width="25" height="4"/><rect fill="#FFFFFF" x="402" y="182" width="86" height="10"/><rect fill="#E3E3E3" x="309" y="300" width="43.4" height="27"/><rect fill="#E3E3E3" x="22" y="108" width="331.1" height="186.2"/><polygon fill="#FFFFFF" points="241.5 240 241.5 206.9 210.1 176.5 171.3 215.6 159.3 203.6 135.8 227.4 135.8 241.4"/><ellipse fill="#FFFFFF" cx="149.6" cy="176.6" rx="16.3" ry="16.4"/><rect fill="#E3E3E3" x="22" y="300" width="43.4" height="27"/><polygon fill="#FFFFFF" points="50.2 318.6 50.2 313.8 46 309.4 41 315 39.4 313.3 36.3 316.7 36.3 318.8"/><ellipse fill="#FFFFFF" cx="38.1" cy="309.4" rx="2.1" ry="2.4"/><rect fill="#E3E3E3" x="70" y="300" width="43.4" height="27"/><polygon fill="#FFFFFF" points="98.2 318.6 98.2 313.8 94 309.4 89 315 87.4 313.3 84.3 316.7 84.3 318.8"/><ellipse fill="#FFFFFF" cx="86.1" cy="309.4" rx="2.1" ry="2.4"/><rect fill="#E3E3E3" x="118" y="300" width="43.4" height="27"/><polygon fill="#FFFFFF" points="146.2 318.6 146.2 313.8 142 309.4 137 315 135.4 313.3 132.3 316.7 132.3 318.8"/><ellipse fill="#FFFFFF" cx="134.1" cy="309.4" rx="2.1" ry="2.4"/><rect fill="#E3E3E3" x="166" y="300" width="43.4" height="27"/><polygon fill="#FFFFFF" points="194.2 318.6 194.2 313.8 190 309.4 185 315 183.4 313.3 180.3 316.7 180.3 318.8"/><ellipse fill="#FFFFFF" cx="182.1" cy="309.4" rx="2.1" ry="2.4"/><rect fill="#E3E3E3" x="214" y="300" width="43.4" height="27"/><polygon fill="#FFFFFF" points="242.2 318.6 242.2 313.8 238 309.4 233 315 231.4 313.3 228.3 316.7 228.3 318.8"/><ellipse fill="#FFFFFF" cx="230.1" cy="309.4" rx="2.1" ry="2.4"/><rect fill="#E3E3E3" x="261" y="300" width="43.4" height="27"/><polygon fill="#FFFFFF" points="290.2 318.6 290.2 313.8 286 309.4 281 315 279.4 313.3 276.3 316.7 276.3 318.8"/><ellipse fill="#FFFFFF" cx="278.1" cy="309.4" rx="2.1" ry="2.4"/><rect fill="#E3E3E3" x="309" y="300" width="43.4" height="27"/><polygon fill="#FFFFFF" points="338.2 318.6 338.2 313.8 334 309.4 329 315 327.4 313.3 324.3 316.7 324.3 318.8"/><ellipse fill="#FFFFFF" cx="326.1" cy="309.4" rx="2.1" ry="2.4"/><path d="M33.6 92L27.6 85.1 33.1 78.9 31 78.9 25.2 85.6 25.2 78.9 23.6 78.9 23.6 92 25.2 92 25.2 87.6 26.5 86.1 31.5 92 33.6 92ZM43.3 92L43.3 85.3C43.3 83.2 42.2 82.2 40.2 82.2 38.8 82.2 37.5 83.1 36.8 83.9L36.8 82.5 35.4 82.5 35.4 92 36.8 92 36.8 85C37.4 84.3 38.5 83.6 39.7 83.6 40.9 83.6 41.8 84.1 41.8 85.8L41.8 92 43.3 92ZM50.4 92.2C47.5 92.2 45.7 90 45.7 87.2 45.7 84.5 47.5 82.2 50.4 82.2 53.3 82.2 55.1 84.5 55.1 87.2 55.1 90 53.3 92.2 50.4 92.2ZM50.4 90.9C52.4 90.9 53.6 89.2 53.6 87.2 53.6 85.3 52.4 83.6 50.4 83.6 48.4 83.6 47.2 85.3 47.2 87.2 47.2 89.2 48.4 90.9 50.4 90.9ZM59.9 92.2C60.8 92.2 61.3 92 61.7 91.6L61.3 90.5C61.1 90.7 60.7 90.9 60.3 90.9 59.6 90.9 59.3 90.4 59.3 89.7L59.3 83.8 61.2 83.8 61.2 82.5 59.3 82.5 59.3 79.9 57.8 79.9 57.8 82.5 56.2 82.5 56.2 83.8 57.8 83.8 57.8 90C57.8 91.4 58.5 92.2 59.9 92.2ZM65.7 92.2C66.6 92.2 67.1 92 67.5 91.6L67.1 90.5C66.9 90.7 66.5 90.9 66 90.9 65.4 90.9 65.1 90.4 65.1 89.7L65.1 83.8 67 83.8 67 82.5 65.1 82.5 65.1 79.9 63.6 79.9 63.6 82.5 62 82.5 62 83.8 63.6 83.8 63.6 90C63.6 91.4 64.3 92.2 65.7 92.2ZM73.4 92.2C70.6 92.2 68.6 90.2 68.6 87.2 68.6 84.5 70.5 82.2 73.2 82.2 76.1 82.2 77.8 84.5 77.8 87.3L77.8 87.7 70.1 87.7C70.2 89.5 71.5 91 73.5 91 74.6 91 75.7 90.6 76.5 89.8L77.2 90.8C76.2 91.7 75 92.2 73.4 92.2ZM76.4 86.6C76.3 85.2 75.4 83.5 73.2 83.5 71.2 83.5 70.2 85.2 70.1 86.6L76.4 86.6ZM88.6 92L87.1 92 87.1 90.6C86.4 91.5 85.2 92.2 83.9 92.2 81.4 92.2 79.6 90.3 79.6 87.2 79.6 84.2 81.4 82.2 83.9 82.2 85.2 82.2 86.3 82.9 87.1 83.9L87.1 78.9 88.6 78.9 88.6 92ZM84.3 90.9C85.4 90.9 86.6 90.2 87.1 89.4L87.1 85.1C86.6 84.3 85.4 83.6 84.3 83.6 82.3 83.6 81.2 85.1 81.2 87.2 81.2 89.4 82.3 90.9 84.3 90.9ZM98.8 92.2C101.2 92.2 103 90.9 103 88L103 78.9 101.4 78.9 101.4 88C101.4 89.7 100.3 90.8 98.7 90.8 97.6 90.8 96.8 90.2 96.2 89.5L95.4 90.7C96.3 91.8 97.4 92.2 98.8 92.2ZM110.3 92.2C107.5 92.2 105.5 90.2 105.5 87.2 105.5 84.5 107.4 82.2 110.1 82.2 113 82.2 114.7 84.5 114.7 87.3L114.7 87.7 107 87.7C107.1 89.5 108.4 91 110.4 91 111.5 91 112.6 90.6 113.4 89.8L114.1 90.8C113.1 91.7 111.9 92.2 110.3 92.2ZM113.3 86.6C113.2 85.2 112.3 83.5 110.1 83.5 108.1 83.5 107.1 85.2 107 86.6L113.3 86.6ZM126.8 92L129.9 82.5 128.3 82.5 126 90.1 123.5 82.5 122.2 82.5 119.7 90.1 117.4 82.5 115.9 82.5 118.9 92 120.4 92 122.9 84.4 125.3 92 126.8 92ZM133 92L133 78.9 131.6 78.9 131.6 92 133 92ZM140.3 92.2C137.5 92.2 135.5 90.2 135.5 87.2 135.5 84.5 137.4 82.2 140.1 82.2 143 82.2 144.7 84.5 144.7 87.3L144.7 87.7 137 87.7C137.1 89.5 138.4 91 140.4 91 141.5 91 142.6 90.6 143.4 89.8L144.1 90.8C143.1 91.7 141.9 92.2 140.3 92.2ZM143.3 86.6C143.2 85.2 142.3 83.5 140.1 83.5 138.1 83.5 137.1 85.2 137 86.6L143.3 86.6ZM148.6 92L148.6 85.3C149 84.5 150.3 83.7 151.2 83.7 151.4 83.7 151.6 83.8 151.8 83.8L151.8 82.3C150.5 82.3 149.3 83 148.6 84L148.6 82.5 147.1 82.5 147.1 92 148.6 92ZM153.1 95.7C153.3 95.8 153.8 95.9 154.2 95.9 155.4 95.8 156.4 95.3 157 93.9L161.7 82.5 160.1 82.5 157 90.3 153.8 82.5 152.2 82.5 156.2 92.1 155.5 93.5C155.2 94.3 154.8 94.5 154.1 94.5 153.9 94.5 153.5 94.5 153.3 94.4L153.1 95.7ZM178.4 92L172.4 85.1 177.9 78.9 175.9 78.9 170.1 85.6 170.1 78.9 168.4 78.9 168.4 92 170.1 92 170.1 87.6 171.4 86.1 176.4 92 178.4 92ZM181 81.1C181.5 81.1 181.9 80.7 181.9 80.1 181.9 79.6 181.5 79.1 181 79.1 180.4 79.1 180 79.6 180 80.1 180 80.7 180.4 81.1 181 81.1ZM181.7 92L181.7 82.5 180.2 82.5 180.2 92 181.7 92ZM187.1 92.2C187.9 92.2 188.5 92 188.8 91.6L188.4 90.5C188.2 90.7 187.8 90.9 187.4 90.9 186.8 90.9 186.4 90.4 186.4 89.7L186.4 83.8 188.4 83.8 188.4 82.5 186.4 82.5 186.4 79.9 184.9 79.9 184.9 82.5 183.4 82.5 183.4 83.8 184.9 83.8 184.9 90C184.9 91.4 185.7 92.2 187.1 92.2Z" fill="#202020"/><text font-family="BLOKKNeue-Regular, BLOKK Neue" font-size="9.9" font-weight="normal" fill="#E3E3E3"><tspan x="396" y="28">fff fff ffffffffff</tspan></text><text font-family="BLOKKNeue-Regular, BLOKK Neue" font-size="19.7" font-weight="normal" fill="#D8D8D8"><tspan x="90.3" y="53">ffffkjkajfkdjfkakfdsjdfkajkf</tspan></text><rect fill="#B4B4B4" x="0" y="0" width="545" height="13.8"/><g transform="translate(22.000000, 21.000000)" fill-rule="nonzero" fill="#B4B4B4"><path d="M4.5 10.7L0 10.7 0 0.2 4.1 0.2C5.5 0.2 6.5 1.4 6.5 2.8 6.5 3.8 6.2 4.6 5.3 5L5.3 5C6.3 5 7.5 6.3 7.5 7.6 7.5 9.5 6 10.7 4.5 10.7ZM3.4 1.8L2 1.8 2 4.4 3.4 4.4C4 4.4 4.5 3.9 4.5 3.1 4.5 2.4 4.1 1.8 3.4 1.8ZM3.9 6.1L2 6.1 2 9.1 3.9 9.1C4.6 9.1 5.4 8.6 5.4 7.5 5.4 6.5 4.6 6.1 3.9 6.1ZM16.9 10.7L13.7 6.2 13.7 10.7 11.8 10.7 11.8 0.2 15.4 0.2C17.1 0.2 18.6 1.4 18.6 3.3 18.6 5 17.3 6 16 6.2 16.2 6.5 19.3 10.7 19.3 10.7L16.9 10.7 16.9 10.7 16.9 10.7ZM14.8 1.8L13.8 1.8 13.8 5 15 5C15.7 5 16.5 4.6 16.5 3.4 16.5 2.2 15.7 1.8 14.8 1.8Z"/><polygon points="23.6 10.7 23.6 0.2 25.6 0.2 25.6 10.7"/><polygon points="34.3 2 34.3 10.7 32.3 10.7 32.3 2 30.1 2 30.1 0.2 36.4 0.2 36.4 2"/><path d="M57.3 10.8C54.4 10.8 52.2 8.3 52.2 5.5 52.2 2.6 54.5 0 57.4 0 58.7 0 60 0.7 60 0.7L60 2.9C60 2.9 59 1.9 57.4 1.9 55.6 1.9 54.2 3.5 54.2 5.3 54.2 7.2 55.5 8.9 57.4 8.9 58.5 8.9 59.3 8.5 60.1 7.9L60.1 10C59.7 10.3 58.6 10.8 57.3 10.8ZM68.5 10.7C65.5 10.7 63.1 8.3 63.1 5.4 63.1 2.3 65.5 0 68.5 0 71.4 0 73.9 2.4 73.9 5.4 73.9 8.3 71.4 10.7 68.5 10.7ZM68.5 1.9C66.5 1.9 65.1 3.4 65.1 5.4 65.1 7.4 66.5 8.8 68.5 8.8 70.4 8.8 71.9 7.3 71.9 5.4 71.9 3.4 70.4 1.9 68.5 1.9Z"/><polygon points="48.2 6.5 48.2 4.5 45.1 4.5 45.1 1.4 43.1 1.4 43.1 4.5 40 4.5 40 6.5 43.1 6.5 43.1 9.6 45.1 9.6 45.1 6.5"/></g><path d="M0.5 37.5L543.5 37.5" stroke="#E3E3E3" stroke-linecap="square"/><rect fill="#E3E3E3" x="22" y="421" width="331.1" height="85.7"/><rect fill="#B4B4B4" x="227" y="430.8" width="117.3" height="65.8"/><polygon fill="#FFFFFF" transform="translate(289.184357, 465.500726) rotate(90.000000) translate(-289.184357, -465.500726) " points="289.2 451.4 303.3 479.6 275.1 479.6"/><rect fill="#B4B4B4" x="30.9" y="484" width="82.8" height="11.8"/><rect fill="#FFFFFF" x="55.5" y="488" width="34.5" height="3.9"/><rect fill="#B4B4B4" x="30" y="449" width="142" height="4"/><rect fill="#B4B4B4" x="30" y="455" width="136" height="4"/><rect fill="#B4B4B4" x="30" y="461" width="129" height="4"/><rect fill="#B4B4B4" x="30" y="467" width="31" height="4"/><rect fill="#B4B4B4" x="30" y="434" width="129" height="4"/><rect fill="#E3E3E3" x="24" y="342" width="259" height="8"/><rect fill="#E3E3E3" x="24" y="354" width="246" height="8"/><rect fill="#E3E3E3" x="24" y="366" width="259" height="8"/><rect fill="#E3E3E3" x="24" y="378" width="259" height="8"/><rect fill="#E3E3E3" x="24" y="390" width="197" height="8"/></g></g></g></svg>