<svg xmlns="http://www.w3.org/2000/svg" width="22" height="22" viewBox="0 0 22 22" version="1.1"><title>linkedin</title><desc>Created with Sketch Beta.</desc><g stroke="none" stroke-width="1" fill="none" fill-rule="evenodd"><g transform="translate(-453.000000, -139.000000)" fill="#0347C7"><g transform="translate(263.000000, 59.000000)"><g transform="translate(0.000000, 80.000000)"><path d="M208.7 18.7L205.5 18.7 205.5 13.6C205.5 12.4 205.5 10.9 203.8 10.9 202.1 10.9 201.8 12.2 201.8 13.6L201.8 18.7 198.6 18.7 198.6 8.2 201.7 8.2 201.7 9.7 201.7 9.7C202.2 8.9 203.2 8 204.8 8 208.1 8 208.7 10.2 208.7 13L208.7 18.7ZM194.9 6.8C193.8 6.8 193 6 193 4.9 193 3.9 193.8 3 194.9 3 195.9 3 196.8 3.9 196.8 4.9 196.8 6 195.9 6.8 194.9 6.8L194.9 6.8ZM193.3 18.7L196.5 18.7 196.5 8.2 193.3 8.2 193.3 18.7ZM210.4 0L191.6 0C190.7 0 190 0.7 190 1.6L190 20.4C190 21.3 190.7 22 191.6 22L210.4 22C211.3 22 212 21.3 212 20.4L212 1.6C212 0.7 211.3 0 210.4 0L210.4 0Z"/></g></g></g></g></svg>