<svg xmlns="http://www.w3.org/2000/svg" width="954" height="139" viewBox="0 0 954 139" version="1.1"><title>purchase-flow-draft</title><desc>Created with Sketch Beta.</desc><g stroke="none" stroke-width="1" fill="none" fill-rule="evenodd"><g transform="translate(-262.000000, -3182.000000)"><g transform="translate(262.000000, 3134.000000)"><g transform="translate(0.000000, 48.000000)"><g transform="translate(610.000000, 0.000000)"><rect fill="#FFECEC" x="1" y="0" width="138.4" height="138.4"/><rect fill="#FF7371" x="7.5" y="14.9" width="53.4" height="53.3"/><rect fill="#FF7371" x="49" y="72" width="10.8" height="10.8"/><rect fill="#FF7371" x="66.8" y="42.2" width="19.3" height="10.8"/><rect fill="#FF7371" x="35.1" y="72" width="10.8" height="10.8"/><rect fill="#FF7371" x="21.3" y="72" width="10.8" height="10.8"/><rect fill="#FF7371" x="21.3" y="85.2" width="10.8" height="10.8"/><rect fill="#FF7371" x="7.5" y="72" width="10.8" height="10.8"/><rect fill="#FF7371" x="7.5" y="85.2" width="10.8" height="10.8"/><text font-family="BLOKKNeue-Regular, BLOKK Neue" font-size="14.2" font-weight="normal" fill="#FF7371"><tspan x="66.8" y="21.4">Calligf</tspan></text><text font-family="BLOKKNeue-Regular, BLOKK Neue" font-size="8.9" font-weight="normal" letter-spacing="-0.9" fill="#FF7371"><tspan x="66.8" y="65.6">DDD DDD DD</tspan><tspan x="124" y="65.6">D</tspan></text><text font-family="BLOKKNeue-Regular, BLOKK Neue" font-size="8.9" font-weight="normal" letter-spacing="-0.9" fill="#FF7371"><tspan x="66.8" y="78">DDDffffff </tspan><tspan x="66.8" y="84">DDffffffD </tspan><tspan x="66.8" y="90">DD</tspan><tspan x="76.1" y="90">Dff</tspan></text><text font-family="Maria" font-size="8.9" font-weight="normal" line-spacing="10.6" fill="#FF7371"><tspan x="66.8" y="35.3">$$</tspan></text><rect fill="#FF7371" x="7.5" y="102.6" width="29.4" height="29.4"/><rect fill="#FF7371" x="40" y="102.6" width="29.4" height="29.4"/><rect fill="#FF7371" x="72.5" y="102.6" width="29.4" height="29.4"/><rect fill="#FF7371" x="104.2" y="102.6" width="29.4" height="29.4"/><rect fill="#FFECEC" x="1" y="0" width="138.4" height="10.8"/><ellipse fill="#FA4A4A" cx="6.2" cy="5.3" rx="1.2" ry="1.2"/><ellipse fill="#FA4A4A" cx="11.1" cy="5.3" rx="1.2" ry="1.2"/><ellipse fill="#FA4A4A" cx="16.8" cy="5.3" rx="1.2" ry="1.2"/><rect fill-opacity="0.9" fill="#FF7371" x="0" y="0" width="139" height="139"/></g><g transform="translate(406.000000, 0.000000)"><rect fill="#FFECEC" x="0" y="0" width="138.4" height="138.4"/><rect fill="#FF7371" x="6.5" y="14.9" width="53.4" height="53.3"/><rect fill="#FF7371" x="48" y="72" width="10.8" height="10.8"/><rect fill="#FF7371" x="65.8" y="42.2" width="19.3" height="10.8"/><rect fill="#FF7371" x="34.1" y="72" width="10.8" height="10.8"/><rect fill="#FF7371" x="20.3" y="72" width="10.8" height="10.8"/><rect fill="#FF7371" x="20.3" y="85.2" width="10.8" height="10.8"/><rect fill="#FF7371" x="6.5" y="72" width="10.8" height="10.8"/><rect fill="#FF7371" x="6.5" y="85.2" width="10.8" height="10.8"/><text font-family="BLOKKNeue-Regular, BLOKK Neue" font-size="14.2" font-weight="normal" fill="#FF7371"><tspan x="65.8" y="21.4">Calligf</tspan></text><text font-family="BLOKKNeue-Regular, BLOKK Neue" font-size="8.9" font-weight="normal" letter-spacing="-0.9" fill="#FF7371"><tspan x="65.8" y="65.6">DDD DDD DD</tspan><tspan x="123" y="65.6">D</tspan></text><text font-family="BLOKKNeue-Regular, BLOKK Neue" font-size="8.9" font-weight="normal" letter-spacing="-0.9" fill="#FF7371"><tspan x="65.8" y="78">DDDffffff </tspan><tspan x="65.8" y="84">DDffffffD </tspan><tspan x="65.8" y="90">DD</tspan><tspan x="75.1" y="90">Dff</tspan></text><text font-family="Maria" font-size="8.9" font-weight="normal" line-spacing="10.6" fill="#FF7371"><tspan x="65.8" y="35.3">$$</tspan></text><rect fill="#FF7371" x="6.5" y="102.6" width="29.4" height="29.4"/><rect fill="#FF7371" x="39" y="102.6" width="29.4" height="29.4"/><rect fill="#FF7371" x="71.5" y="102.6" width="29.4" height="29.4"/><rect fill="#FF7371" x="103.2" y="102.6" width="29.4" height="29.4"/><rect fill="#FFECEC" x="0" y="0" width="138.4" height="10.8"/><ellipse fill="#FA4A4A" cx="5.2" cy="5.3" rx="1.2" ry="1.2"/><ellipse fill="#FA4A4A" cx="10.1" cy="5.3" rx="1.2" ry="1.2"/><ellipse fill="#FA4A4A" cx="15.8" cy="5.3" rx="1.2" ry="1.2"/></g><rect fill="#DCE8FA" x="0" y="0" width="140.4" height="138.4"/><rect fill="#008EF6" x="0" y="7.4" width="140.4" height="24.7"/><rect fill="#DCE8FA" x="0" y="0" width="140.4" height="10.8"/><ellipse fill="#0347C7" cx="5.3" cy="5.3" rx="1.2" ry="1.2"/><ellipse fill="#0347C7" cx="10.2" cy="5.3" rx="1.2" ry="1.2"/><ellipse fill="#0347C7" cx="16" cy="5.3" rx="1.2" ry="1.2"/><rect fill="#008EF6" x="116.3" y="57.1" width="19.6" height="10.8"/><text font-family="BLOKKNeue-Regular, BLOKK Neue" font-size="8.9" font-weight="normal" letter-spacing="-0.9" fill="#008EF6"><tspan x="40.4" y="51.5">DDDffffff  </tspan><tspan x="40.4" y="57.5">DD</tspan><tspan x="49.6" y="57.5">Dff</tspan></text><text font-family="Maria" font-size="8.9" font-weight="normal" line-spacing="10.6" fill="#008EF6"><tspan x="116.3" y="44.4">$$</tspan></text><rect fill="#008EF6" x="6.6" y="38.1" width="29.8" height="29.4"/><text font-family="BLOKKNeue-Regular, BLOKK Neue" font-size="14.2" font-weight="normal" fill="#008EF6"><tspan x="40.4" y="44.6">Calligf</tspan></text><rect fill="#008EF6" x="116.3" y="92.7" width="19.6" height="10.8"/><text font-family="BLOKKNeue-Regular, BLOKK Neue" font-size="8.9" font-weight="normal" letter-spacing="-0.9" fill="#008EF6"><tspan x="40.4" y="87.1">DDDffffff  </tspan><tspan x="40.4" y="93.1">DD</tspan><tspan x="49.6" y="93.1">Dff</tspan></text><text font-family="Maria" font-size="8.9" font-weight="normal" line-spacing="10.6" fill="#008EF6"><tspan x="116.3" y="80">$$</tspan></text><rect fill="#008EF6" x="6.6" y="73.6" width="29.8" height="29.4"/><text font-family="BLOKKNeue-Regular, BLOKK Neue" font-size="14.2" font-weight="normal" fill="#008EF6"><tspan x="40.4" y="80.2">Calligf</tspan></text><rect fill="#008EF6" x="116.3" y="128.2" width="19.6" height="10"/><text font-family="BLOKKNeue-Regular, BLOKK Neue" font-size="8.9" font-weight="normal" letter-spacing="-0.9" fill="#008EF6"><tspan x="40.4" y="122.7">DDDffffff  </tspan><tspan x="40.4" y="128.7">DD</tspan><tspan x="49.6" y="128.7">Dff</tspan></text><text font-family="Maria" font-size="8.9" font-weight="normal" line-spacing="10.6" fill="#008EF6"><tspan x="116.3" y="115.6">$$</tspan></text><rect fill="#008EF6" x="6.6" y="109.2" width="29.8" height="28.6"/><text font-family="BLOKKNeue-Regular, BLOKK Neue" font-size="14.2" font-weight="normal" fill="#008EF6"><tspan x="40.4" y="115.7">Calligf</tspan></text><g transform="translate(203.000000, 0.000000)"><rect fill="#DCE8FA" x="0" y="0" width="138.4" height="138.4"/><rect fill="#008EF6" x="6.5" y="7.4" width="126" height="14.7"/><rect fill="#DCE8FA" x="0" y="0" width="138.4" height="10.8"/><ellipse fill="#0347C7" cx="5.2" cy="5.3" rx="1.2" ry="1.2"/><ellipse fill="#0347C7" cx="10.1" cy="5.3" rx="1.2" ry="1.2"/><ellipse fill="#0347C7" cx="15.8" cy="5.3" rx="1.2" ry="1.2"/><text font-family="BLOKKNeue-Regular, BLOKK Neue" font-size="8.9" font-weight="normal" fill="#008EF6"><tspan x="6.5" y="79.6">ff</tspan></text><text font-family="BLOKKNeue-Regular, BLOKK Neue" font-size="8.9" font-weight="normal" fill="#008EF6"><tspan x="21.9" y="79.6">ff</tspan></text><text font-family="BLOKKNeue-Regular, BLOKK Neue" font-size="8.9" font-weight="normal" fill="#008EF6"><tspan x="37.4" y="79.6">ff</tspan></text><rect fill="#008EF6" x="93.5" y="52.1" width="19.3" height="10.8"/><rect fill="#008EF6" x="93.5" y="120" width="38.7" height="10.8"/><text font-family="BLOKKNeue-Regular, BLOKK Neue" font-size="14.2" font-weight="normal" line-spacing="7.1" fill="#008EF6"><tspan x="96.3" y="34.8">ligf</tspan></text><text font-family="Maria" font-size="8.9" font-weight="normal" line-spacing="10.6" fill="#008EF6"><tspan x="93.5" y="45.2">$$</tspan></text><rect fill="#008EF6" x="6.5" y="28.1" width="81.2" height="45.6"/><text font-family="BLOKKNeue-Regular, BLOKK Neue" font-size="8.9" font-weight="normal" letter-spacing="-0.9" fill="#008EF6"><tspan x="6.5" y="89.6">DDDffffff </tspan><tspan x="6.5" y="95.6">DDffffffD </tspan><tspan x="6.5" y="101.6">DD</tspan><tspan x="15.7" y="101.6">Dff</tspan></text><text font-family="BLOKKNeue-Regular, BLOKK Neue" font-size="8.9" font-weight="normal" letter-spacing="-0.9" fill="#008EF6"><tspan x="93.5" y="89.6">DDDfff</tspan><tspan x="93.5" y="95.6">fff</tspan><tspan x="93.5" y="101.6">DDfff</tspan><tspan x="93.5" y="107.6">fffD </tspan><tspan x="93.5" y="113.6">DD</tspan><tspan x="102.7" y="113.6">Dff</tspan></text><rect fill="#008EF6" x="6.5" y="105.9" width="24.7" height="25.5"/><rect fill="#008EF6" x="61.8" y="105.9" width="25.5" height="25.5"/><rect fill="#008EF6" x="34.1" y="105.9" width="24.7" height="25.5"/></g><g transform="translate(813.000000, 0.000000)"><rect fill="#DCE8FA" x="2" y="0" width="138.4" height="138.4"/><rect fill="#008EF6" x="8.5" y="7.4" width="126" height="14.7"/><rect fill="#DCE8FA" x="2" y="0" width="138.4" height="10.8"/><ellipse fill="#0347C7" cx="7.2" cy="5.3" rx="1.2" ry="1.2"/><ellipse fill="#0347C7" cx="12.1" cy="5.3" rx="1.2" ry="1.2"/><ellipse fill="#0347C7" cx="17.8" cy="5.3" rx="1.2" ry="1.2"/><text font-family="BLOKKNeue-Regular, BLOKK Neue" font-size="8.9" font-weight="normal" fill="#008EF6"><tspan x="8.5" y="79.6">ff</tspan></text><text font-family="BLOKKNeue-Regular, BLOKK Neue" font-size="8.9" font-weight="normal" fill="#008EF6"><tspan x="23.9" y="79.6">ff</tspan></text><text font-family="BLOKKNeue-Regular, BLOKK Neue" font-size="8.9" font-weight="normal" fill="#008EF6"><tspan x="39.4" y="79.6">ff</tspan></text><rect fill="#008EF6" x="95.5" y="52.1" width="19.3" height="10.8"/><rect fill="#008EF6" x="95.5" y="120" width="38.7" height="10.8"/><text font-family="BLOKKNeue-Regular, BLOKK Neue" font-size="14.2" font-weight="normal" line-spacing="7.1" fill="#008EF6"><tspan x="98.3" y="34.8">ligf</tspan></text><text font-family="Maria" font-size="8.9" font-weight="normal" line-spacing="10.6" fill="#008EF6"><tspan x="95.5" y="45.2">$$</tspan></text><rect fill="#008EF6" x="8.5" y="28.1" width="81.2" height="45.6"/><text font-family="BLOKKNeue-Regular, BLOKK Neue" font-size="8.9" font-weight="normal" letter-spacing="-0.9" fill="#008EF6"><tspan x="8.5" y="89.6">DDDffffff </tspan><tspan x="8.5" y="95.6">DDffffffD </tspan><tspan x="8.5" y="101.6">DD</tspan><tspan x="17.7" y="101.6">Dff</tspan></text><text font-family="BLOKKNeue-Regular, BLOKK Neue" font-size="8.9" font-weight="normal" letter-spacing="-0.9" fill="#008EF6"><tspan x="95.5" y="89.6">DDDfff</tspan><tspan x="95.5" y="95.6">fff</tspan><tspan x="95.5" y="101.6">DDfff</tspan><tspan x="95.5" y="107.6">fffD </tspan><tspan x="95.5" y="113.6">DD</tspan><tspan x="104.7" y="113.6">Dff</tspan></text><rect fill="#008EF6" x="8.5" y="105.9" width="24.7" height="25.5"/><rect fill="#008EF6" x="63.8" y="105.9" width="25.5" height="25.5"/><rect fill="#008EF6" x="36.1" y="105.9" width="24.7" height="25.5"/><rect fill-opacity="0.8" fill="#008EF6" x="0" y="0" width="139" height="139"/></g><path d="M390.7 64.1C391.1 62.6 390.2 61.5 389.1 61.1 389.1 61.1 389 61.1 389 61.1 384.8 59.5 380.6 57.8 376.4 56.2 373.4 55.1 372.1 59.9 375.1 61.1 376.3 61.5 377.5 62 378.7 62.5 371 63.9 363.7 67.3 357.3 72.3 354.7 74.3 358.3 77.8 360.8 75.9 367.8 70.4 376 67.3 384.7 66.7 383.7 69.7 382.5 72.6 381 75.4 379.5 78.3 383.9 80.8 385.4 78 387.4 74 389.1 69.9 390.3 65.6 390.6 65.2 390.8 64.6 390.7 64.1" fill="#202020" transform="translate(373.620322, 67.641555) rotate(15.000000) translate(-373.620322, -67.641555) "/><path d="M189.7 66.1C190.1 64.6 189.2 63.5 188.1 63.1 188.1 63.1 188 63.1 188 63.1 183.8 61.5 179.6 59.8 175.4 58.2 172.4 57.1 171.1 61.9 174.1 63.1 175.3 63.5 176.5 64 177.7 64.5 170 65.9 162.7 69.3 156.3 74.3 153.7 76.3 157.3 79.8 159.8 77.9 166.8 72.4 175 69.3 183.7 68.7 182.7 71.7 181.5 74.6 180 77.4 178.5 80.3 182.9 82.8 184.4 80 186.4 76 188.1 71.9 189.3 67.6 189.6 67.2 189.8 66.6 189.7 66.1" fill="#202020" transform="translate(172.620322, 69.641555) rotate(15.000000) translate(-172.620322, -69.641555) "/><path d="M594.7 64.1C595.1 62.6 594.2 61.5 593.1 61.1 593.1 61.1 593 61.1 593 61.1 588.8 59.5 584.6 57.8 580.4 56.2 577.4 55.1 576.1 59.9 579.1 61.1 580.3 61.5 581.5 62 582.7 62.5 575 63.9 567.7 67.3 561.3 72.3 558.7 74.3 562.3 77.8 564.8 75.9 571.8 70.4 580 67.3 588.7 66.7 587.7 69.7 586.5 72.6 585 75.4 583.5 78.3 587.9 80.8 589.4 78 591.4 74 593.1 69.9 594.3 65.6 594.6 65.2 594.8 64.6 594.7 64.1" fill="#202020" transform="translate(577.620322, 67.641555) rotate(15.000000) translate(-577.620322, -67.641555) "/><path d="M794.7 64.1C795.1 62.6 794.2 61.5 793.1 61.1 793.1 61.1 793 61.1 793 61.1 788.8 59.5 784.6 57.8 780.4 56.2 777.4 55.1 776.1 59.9 779.1 61.1 780.3 61.5 781.5 62 782.7 62.5 775 63.9 767.7 67.3 761.3 72.3 758.7 74.3 762.3 77.8 764.8 75.9 771.8 70.4 780 67.3 788.7 66.7 787.7 69.7 786.5 72.6 785 75.4 783.5 78.3 787.9 80.8 789.4 78 791.4 74 793.1 69.9 794.3 65.6 794.6 65.2 794.8 64.6 794.7 64.1" fill="#202020" transform="translate(777.620322, 67.641555) rotate(15.000000) translate(-777.620322, -67.641555) "/></g></g></g></g></svg>