<?xml version="1.0" encoding="UTF-8"?>
<svg width="22px" height="18px" viewBox="0 0 22 18" version="1.1" xmlns="http://www.w3.org/2000/svg" xmlns:xlink="http://www.w3.org/1999/xlink">
    <!-- Generator: Sketch Beta 42 (36679) - http://www.bohemiancoding.com/sketch -->
    <title>twitter</title>
    <desc>Created with Sketch Beta.</desc>
    <defs></defs>
    <g id="Symbols" stroke="none" stroke-width="1" fill="none" fill-rule="evenodd">
        <g id="Footer-Copy" transform="translate(-377.000000, -141.000000)" fill="#008EF6">
            <g id="Group-2" transform="translate(263.000000, 59.000000)">
                <g id="Group-7">
                    <g id="social-icons" transform="translate(0.000000, 80.000000)">
                        <path d="M120.91885,19.879664 C129.221034,19.879664 133.761218,13.001496 133.761218,7.037296 C133.761218,6.841848 133.757258,6.647368 133.748282,6.453768 C134.629514,5.816736 135.395642,5.021832 136.000026,4.116752 C135.191218,4.476056 134.320898,4.718144 133.407898,4.827352 C134.33973,4.26864 135.055258,3.384416 135.39265,2.330528 C134.520394,2.847528 133.55477,3.22364 132.526666,3.426128 C131.702986,2.548768 130.530034,2 129.231946,2 C126.73917,2 124.717634,4.021536 124.717634,6.513344 C124.717634,6.867632 124.757322,7.211976 124.834762,7.542504 C121.083586,7.35392 117.757098,5.557752 115.531226,2.826672 C115.143234,3.493536 114.91989,4.26864 114.91989,5.095312 C114.91989,6.661272 115.716818,8.043664 116.92849,8.852384 C116.188146,8.829592 115.492506,8.626136 114.884162,8.287776 C114.883194,8.306608 114.883194,8.32544 114.883194,8.34524 C114.883194,10.531512 116.439298,12.356456 118.504394,12.77032 C118.12529,12.873456 117.726386,12.929072 117.314546,12.929072 C117.023794,12.929072 116.740962,12.900296 116.46605,12.847672 C117.040602,14.640936 118.706882,15.945888 120.682658,15.982672 C119.137554,17.193288 117.191522,17.9148 115.076706,17.9148 C114.712562,17.9148 114.353258,17.893944 114.000026,17.852232 C115.997626,19.132456 118.369402,19.879664 120.91885,19.879664" id="twitter"></path>
                    </g>
                </g>
            </g>
        </g>
    </g>
</svg>