<svg width="117" height="144" viewBox="0 0 117 144" fill="none" xmlns="http://www.w3.org/2000/svg">
<path d="M2.72619 57.6076L35.096 12.6508H25.5442C19.7071 12.6508 16.8203 15.9037 14.0822 23.0303L13.6364 24.3039H12.5751L16.7142 10.682H41.2303L41.0393 11.5045L8.6695 56.4614H19.516C25.7565 56.4614 28.24 52.9591 31.4239 45.8908L31.997 44.6173H33.0583L28.7282 58.4142H2.53516L2.72619 57.6076Z" fill="#1D2025"/>
<path d="M47.1736 54.1265C46.3458 54.1265 46.1548 53.4898 46.1548 52.5983C46.2865 51.0725 46.6294 49.5723 47.1736 48.1408L52.4165 32.3061C44.9873 47.5252 39.7869 54.1265 36.7941 54.1265C35.7328 54.1265 35.1384 53.1714 35.1384 51.5794C35.1384 44.1503 44.8812 20.2709 53.7962 20.2709C55.0632 20.387 56.2958 20.7474 57.4258 21.3322L59.7819 18.7851L60.8432 18.9125L50.5486 49.4992C53.5669 46.7478 56.2979 43.6968 58.6994 40.3933L59.4635 41.03C54.3056 48.353 49.275 54.1265 47.1736 54.1265ZM40.1053 49.3082C41.3152 49.3082 46.3458 42.6857 54.8787 24.8558L55.0697 24.3251C54.0084 23.3699 52.841 22.5421 51.5674 22.5421C46.0911 22.5633 39.6808 44.2776 39.6808 48.6078C39.6808 49.1172 39.8506 49.3082 40.1053 49.3082Z" fill="#1D2025"/>
<path d="M67.869 25.4713C67.869 25.0255 67.7417 24.7708 67.3384 24.7708C66.1922 24.7708 64.7276 26.5538 62.3078 31.075L61.48 30.6929C64.1333 24.7071 67.4021 20.2497 70.0766 20.2497C71.4775 20.2497 72.1143 21.0775 72.1143 22.6694C72.1143 23.943 71.7322 25.5986 70.9681 27.7637L66.6379 40.4994C73.3242 25.8534 78.6731 20.2497 82.2391 20.2497C83.7674 20.2497 84.4678 21.311 84.4678 23.1789C84.4678 24.4524 84.0221 26.1717 83.4065 28.1458L75.7652 49.4992C78.5829 46.7017 81.1405 43.6538 83.4065 40.3932L84.1707 41.03C79.2038 48.2256 74.4916 54.1265 72.5176 54.1265C71.6897 54.1265 71.3714 53.426 71.3714 52.4709C71.4907 50.9182 71.8486 49.3933 72.4327 47.9497L79.4797 28.6127C79.7753 27.7709 79.9538 26.8924 80.0104 26.0019C80.0104 25.3015 79.8193 25.0468 79.1826 25.0468C76.6991 25.0468 70.586 32.1151 62.3715 53.1289H58.9329L67.3384 27.7212C67.6352 27.0047 67.8144 26.2449 67.869 25.4713V25.4713Z" fill="#1D2025"/>
<path d="M92.3216 50.6454C94.5503 50.6454 96.6517 47.3342 98.562 42.5583L99.4535 43.004C96.9064 49.945 93.7862 54.1477 90.3475 54.1477C87.3547 54.1477 86.3358 51.2185 86.3358 47.0158C86.3358 36.0631 93.6588 20.2709 101.104 20.2709C103.338 20.2709 104.42 21.6718 104.42 23.9855C104.42 29.6528 98.6894 34.5985 91.6211 36.9758C90.8736 39.7462 90.4673 42.5974 90.4112 45.4663C90.4112 48.7351 90.9207 50.6454 92.3216 50.6454ZM91.9395 35.6174C98.1163 33.0066 100.854 27.4665 100.854 23.943C100.854 22.7331 100.472 22.0963 99.7083 22.0963C97.2248 22.1176 93.8499 28.6128 91.9395 35.6174Z" fill="#1D2025"/>
<g clip-path="url(#clip0_614_1070)">
<path d="M4.88926 67.2365C4.50961 67.3085 4.14813 67.3665 3.78868 67.4465C3.51403 67.5105 3.24545 67.6004 2.98091 67.6744C2.9396 67.6921 2.89353 67.6956 2.84999 67.6843C2.80646 67.6731 2.76796 67.6478 2.7406 67.6124C2.41634 67.1872 2.16587 66.7115 1.99947 66.2048C1.98129 66.132 1.96914 66.0577 1.96312 65.9829C1.951 65.8689 2.00957 65.8269 2.1166 65.8509C2.22363 65.8749 2.31854 65.8989 2.41143 65.9229C2.85043 66.0209 3.30086 66.0592 3.75031 66.0369C4.12996 66.0369 4.51163 66.0029 4.90339 65.9849C4.90339 65.9189 4.90339 65.8689 4.90339 65.8209C4.90339 65.2751 4.90339 64.7312 4.90339 64.1854C4.90647 64.1309 4.89503 64.0765 4.87022 64.0277C4.84541 63.979 4.80811 63.9375 4.76204 63.9075L4.23497 63.5316C4.03302 63.3896 4.01485 63.2836 4.20871 63.1197C4.37188 62.9797 4.54388 62.8501 4.72367 62.7318C4.79853 62.6864 4.88773 62.67 4.97407 62.6858C5.5274 62.8398 6.08072 62.9997 6.62798 63.1737C6.73496 63.2012 6.83011 63.2622 6.89925 63.3476C6.96839 63.433 7.00782 63.5382 7.01167 63.6475C7.02594 63.7626 7.00183 63.8792 6.94301 63.9795C6.77962 64.1843 6.68816 64.4363 6.6825 64.6973C6.65019 65.0452 6.62596 65.3911 6.59971 65.737C6.5983 65.7623 6.5983 65.7876 6.59971 65.8129C6.85819 65.7809 7.11062 65.761 7.35901 65.719C7.88002 65.631 8.40305 65.547 8.91598 65.429C9.13876 65.3644 9.35196 65.2709 9.55008 65.1511C9.60293 65.118 9.6633 65.0984 9.72572 65.0942C9.78814 65.09 9.85063 65.1013 9.90752 65.1271C10.477 65.3631 11.0505 65.593 11.62 65.8269C11.7167 65.8562 11.806 65.9056 11.882 65.9718C11.9579 66.038 12.0187 66.1195 12.0602 66.2108C12.0941 66.2827 12.1132 66.3605 12.1165 66.4398C12.1197 66.519 12.1071 66.5981 12.0793 66.6725C12.0515 66.7468 12.0091 66.815 11.9545 66.8731C11.9 66.9311 11.8343 66.9779 11.7613 67.0106C11.4443 67.1786 11.1212 67.3365 10.8062 67.5045C10.3173 67.7985 9.84965 68.1258 9.4067 68.4842C8.92002 68.8381 8.41718 69.174 7.90627 69.4839C7.58936 69.6706 7.2139 69.7347 6.85213 69.6639L6.78953 69.6499C6.60375 69.5779 6.58759 69.5099 6.74511 69.3859C7.53677 68.7013 8.22802 67.9105 8.79885 67.0366C8.81924 67.0098 8.83556 66.9801 8.84732 66.9486C8.87357 66.8686 8.86146 66.8147 8.75847 66.8247L8.02138 66.9106L6.55932 67.0806L6.48864 67.0906C6.47248 67.3545 6.45229 67.6124 6.44421 67.8704C6.422 68.5962 6.4018 69.32 6.38969 70.0458C6.3907 70.2254 6.40692 70.4047 6.43815 70.5816C6.44196 70.6619 6.46201 70.7405 6.49711 70.8129C6.53221 70.8854 6.58165 70.9501 6.64248 71.0032C6.70332 71.0564 6.77432 71.0969 6.85126 71.1223C6.92821 71.1478 7.00954 71.1577 7.09043 71.1515C7.4881 71.1468 7.8852 71.1201 8.27986 71.0715C8.74433 71.0115 9.20274 70.9075 9.66922 70.8435C10.1165 70.7643 10.5774 70.8612 10.9536 71.1135C11.2565 71.3134 11.3575 71.6053 11.1192 71.9752C11.0134 72.134 10.8745 72.2684 10.7118 72.3695C10.5492 72.4705 10.3665 72.5359 10.1761 72.5611C9.75184 72.6386 9.32272 72.6874 8.89175 72.707C8.22745 72.7497 7.56043 72.7202 6.90262 72.619C6.53007 72.5604 6.16858 72.4465 5.83031 72.2811C5.59453 72.162 5.39364 71.9849 5.24688 71.7667C5.10013 71.5486 5.01245 71.2968 4.99225 71.0355C4.92268 70.5048 4.88022 69.9709 4.86503 69.4359C4.84887 68.7621 4.86503 68.0863 4.8832 67.4125L4.88926 67.2365Z" fill="#1D2025"/>
<path d="M8.57878 62.9158C9.10097 62.9003 9.61411 63.0532 10.0408 63.3517C10.1794 63.4383 10.2926 63.5594 10.3692 63.7029C10.4457 63.8464 10.4829 64.0073 10.477 64.1694C10.4757 64.2695 10.445 64.3669 10.3887 64.45C10.3324 64.5331 10.253 64.5981 10.16 64.6373C10.0654 64.6695 9.96309 64.6723 9.86678 64.6455C9.77047 64.6188 9.68467 64.5636 9.6208 64.4873C9.58178 64.4433 9.54602 64.3965 9.51377 64.3474C9.2058 63.8601 8.75588 63.4767 8.22336 63.2477C8.15332 63.2225 8.08572 63.191 8.02142 63.1537C7.98709 63.1277 7.9467 63.0717 7.95478 63.0377C7.96578 63.0174 7.98132 62.9998 8.00022 62.9863C8.01911 62.9728 8.04086 62.9637 8.06383 62.9598C8.23346 62.9398 8.40713 62.9298 8.57878 62.9158Z" fill="#1D2025"/>
<path d="M10.1984 62.038C10.788 62.038 11.2525 62.056 11.6564 62.3359C11.7599 62.3982 11.845 62.4865 11.9028 62.5918C11.9606 62.6972 11.9892 62.8159 11.9856 62.9358C11.9848 63.033 11.9538 63.1276 11.8967 63.2067C11.8396 63.2858 11.7592 63.3455 11.6665 63.3777C11.5652 63.4188 11.4534 63.4274 11.3469 63.4023C11.2404 63.3772 11.1445 63.3196 11.0728 63.2377C10.6563 62.8075 10.1044 62.5304 9.50773 62.4519C9.42493 62.4399 9.30579 62.4419 9.30579 62.3299C9.30579 62.218 9.41887 62.206 9.49763 62.188C9.76218 62.124 10.0409 62.07 10.1984 62.038Z" fill="#1D2025"/>
</g>
<path d="M20.5221 66.1571C20.6352 66.287 20.7422 66.403 20.8412 66.529C20.9854 66.7183 21.0569 66.9521 21.0431 67.1888C21.029 67.8886 21.0088 68.5884 21.0148 69.2882C21.0148 69.8201 21.0694 70.3499 21.0835 70.8878C21.1089 71.4076 20.9574 71.9208 20.6534 72.3454C20.5825 72.4657 20.485 72.5686 20.3682 72.6461C20.2513 72.7237 20.1182 72.774 19.9789 72.7932C19.8622 72.8069 19.7439 72.7904 19.6356 72.7452C19.4093 72.6639 19.2198 72.5051 19.1013 72.2976C18.9828 72.0901 18.9431 71.8475 18.9893 71.6136C19.0318 71.2297 19.1105 70.8538 19.165 70.4719C19.2807 69.5857 19.3139 68.6908 19.264 67.7986C19.2539 67.5827 19.2377 67.3667 19.2236 67.1268L19.0802 67.2148C18.1022 67.88 17.0473 68.4271 15.938 68.8443C15.3939 69.0551 14.8286 69.2079 14.2518 69.3002C14.1553 69.3132 14.0575 69.3132 13.961 69.3002C13.9044 69.3002 13.854 69.2382 13.7994 69.2042C13.8358 69.1582 13.8641 69.0943 13.9105 69.0663C14.2922 68.8403 14.6839 68.6324 15.0575 68.3925C15.8634 67.8649 16.6269 67.2766 17.3415 66.633C18.1493 65.9271 18.9126 65.1874 19.6396 64.4076C20.0132 64.0077 20.3666 63.5898 20.7321 63.1819C20.7513 63.1686 20.7669 63.151 20.7777 63.1304C20.7885 63.1099 20.7942 63.0871 20.7942 63.0639C20.7942 63.0408 20.7885 63.018 20.7777 62.9974C20.7669 62.9769 20.7513 62.9592 20.7321 62.946C20.6513 62.876 20.5726 62.808 20.4958 62.734C20.3827 62.6261 20.3787 62.5341 20.4958 62.4381C20.6614 62.3082 20.8351 62.1882 21.0088 62.0682C21.1299 61.9822 21.243 62.0402 21.3501 62.1062C21.5782 62.2502 21.8085 62.3901 22.0326 62.5441C22.2568 62.698 22.4769 62.862 22.6909 63.032C22.7767 63.107 22.8526 63.1923 22.9171 63.2859C22.9584 63.3362 22.9876 63.3951 23.0027 63.4581C23.0177 63.5212 23.0182 63.5868 23.004 63.6501C22.9898 63.7133 22.9614 63.7726 22.9208 63.8235C22.8802 63.8743 22.8286 63.9154 22.7697 63.9437C22.6029 64.0293 22.4487 64.1369 22.3113 64.2636C21.7055 64.8874 21.1198 65.5233 20.5221 66.1571Z" fill="#1D2025"/>
<g clip-path="url(#clip1_614_1070)">
<path d="M36.2858 65.4717C36.2505 65.633 36.1991 65.7904 36.1323 65.9416C35.5512 67.0027 34.7656 67.9408 33.8201 68.7028C33.0087 69.3455 32.1065 69.8669 31.1423 70.2504C29.9852 70.7143 28.818 71.1501 27.6528 71.594C27.5857 71.6276 27.5125 71.6473 27.4375 71.652C27.3626 71.6567 27.2874 71.6464 27.2166 71.6215C27.1458 71.5966 27.0809 71.5578 27.0257 71.5074C26.9705 71.457 26.9262 71.396 26.8955 71.3281C26.595 70.8255 26.4005 70.2677 26.324 69.6886C26.312 69.5388 26.3421 69.3886 26.4108 69.2547C26.5098 69.089 26.6322 68.9382 26.7743 68.8068C26.9318 68.6528 27.0833 68.6988 27.1641 68.9008C27.366 69.4026 27.5922 69.5226 28.1273 69.4266C28.8254 69.2723 29.508 69.0562 30.1669 68.7808C31.7036 68.2151 33.166 67.4686 34.5228 66.5574C35.0524 66.2017 35.5491 65.8003 36.0071 65.3578C36.0414 65.3258 36.0717 65.2918 36.1081 65.2618C36.1888 65.1998 36.2393 65.2198 36.2514 65.3238C36.2514 65.3698 36.2514 65.4157 36.2514 65.4617L36.2858 65.4717Z" fill="#1D2025"/>
<path d="M30.8677 64.7939C30.8515 65.2578 30.6133 65.4777 30.1124 65.5097L29.2885 65.5617C28.9321 65.5958 28.5977 65.748 28.3394 65.9936C28.2836 66.0295 28.2231 66.0577 28.1597 66.0775C28.1521 66.0108 28.1555 65.9433 28.1698 65.8776C28.2667 65.6097 28.3717 65.3437 28.4747 65.0778C28.5555 64.8779 28.5474 64.8439 28.3374 64.8119C27.9664 64.7516 27.6113 64.6182 27.2933 64.4197C26.9752 64.2212 26.7006 63.9616 26.4856 63.6562C26.414 63.5582 26.3588 63.4496 26.322 63.3343C26.2715 63.1923 26.3482 63.0944 26.4997 63.1164C26.674 63.1483 26.8466 63.189 27.0167 63.2383C27.6313 63.3896 28.2752 63.3793 28.8846 63.2083C29.0498 63.1574 29.2261 63.1537 29.3932 63.1975C29.5604 63.2414 29.7117 63.3311 29.8297 63.4563C30.1286 63.7582 30.4234 64.0561 30.7102 64.376C30.7659 64.4299 30.8089 64.4953 30.8361 64.5675C30.8633 64.6398 30.8741 64.7171 30.8677 64.7939V64.7939Z" fill="#1D2025"/>
</g>
<g clip-path="url(#clip2_614_1070)">
<path d="M30.7399 129.379H31.0583L30.8673 130.335C29.9214 130.503 28.9625 130.589 28.0018 130.589C24.8178 130.589 24.1811 129.889 23.2259 126.45L17.3887 106.816H14.1411L9.55628 125.601C9.43902 126.038 9.37487 126.487 9.36525 126.938C9.36525 128.467 10.3204 129.358 12.4218 129.358H13.2496L12.9949 130.313H-0.695923L-0.504888 129.358H0.259253C2.91251 129.358 4.46202 127.894 5.03512 125.601L14.3109 87.2881C14.4282 86.8517 14.4923 86.4027 14.502 85.9509C14.502 84.4226 13.6105 83.5311 11.5091 83.5311H10.6813L10.8723 82.5759H23.799C29.7211 82.5759 32.8201 86.2056 32.8201 91.7456C32.8201 98.9412 28.2989 104.545 21.1457 105.882L26.9829 124.455C28.3838 128.743 28.7022 129.379 30.7399 129.379ZM14.502 105.054H17.2401C23.5443 105.054 28.0018 99.7054 28.0018 91.873C28.0018 87.1608 25.6457 84.55 22.016 84.55H19.4689L14.502 105.054Z" fill="#1D2025"/>
<path d="M41.2043 99.6205C41.48 98.9046 41.6585 98.1551 41.7349 97.3918C41.7349 96.8611 41.6076 96.6276 41.2043 96.6276C40.0581 96.6276 38.7845 98.4106 36.3011 103.059L35.4308 102.613C38.169 96.6276 41.3529 92.1701 44.091 92.1701C45.4283 92.1701 46.0014 93.1253 46.0014 94.5899C46.0014 95.9272 45.4283 98.1559 44.6641 100.385L37.3836 121.271C40.2853 118.527 42.9285 115.521 45.2797 112.292L46.0438 112.929C41.0133 120.189 36.3011 126.047 34.1997 126.047C33.3719 126.047 33.0535 125.41 33.0535 124.455C33.0535 123.309 33.5841 121.59 34.1997 119.807L41.2043 99.6205ZM44.4519 82.6821C44.4401 82.3193 44.5028 81.958 44.6363 81.6204C44.7697 81.2829 44.9709 80.9763 45.2276 80.7196C45.4843 80.463 45.7908 80.2617 46.1284 80.1283C46.4659 79.9949 46.8273 79.9321 47.1901 79.9439C47.5528 79.9321 47.9142 79.9949 48.2517 80.1283C48.5893 80.2617 48.8958 80.463 49.1525 80.7196C49.4092 80.9763 49.6104 81.2829 49.7438 81.6204C49.8773 81.958 49.94 82.3193 49.9282 82.6821C49.9376 83.0403 49.8726 83.3967 49.7372 83.7285C49.6018 84.0603 49.399 84.3604 49.1416 84.6098C48.8842 84.8592 48.5779 85.0524 48.2419 85.1773C47.906 85.3022 47.5478 85.356 47.1901 85.3353C46.8311 85.361 46.4708 85.3106 46.1326 85.1875C45.7945 85.0644 45.4861 84.8714 45.2277 84.621C44.9693 84.3705 44.7666 84.0684 44.6329 83.7343C44.4992 83.4002 44.4375 83.0416 44.4519 82.6821Z" fill="#1D2025"/>
<path d="M49.6736 121.462C52.5415 118.64 55.1817 115.595 57.5697 112.356L58.2489 112.929C53.2183 120.252 48.6972 126.047 46.4737 126.047C45.6459 126.047 45.3275 125.346 45.3275 124.391C45.4477 122.855 45.7469 121.337 46.219 119.87L56.5986 83.2551H53.2873L53.542 82.4273C56.6569 81.2174 59.411 78.9887 61.8945 75.9958H62.4941L49.6736 121.462Z" fill="#1D2025"/>
<path d="M66.7393 122.545C68.968 122.545 71.0694 119.233 72.9798 114.458L73.8713 114.903C71.3241 121.844 68.2039 126.047 64.7653 126.047C61.7724 126.047 60.7535 123.118 60.7535 118.915C60.7535 107.962 68.0765 92.1701 75.5269 92.1701C77.7556 92.1701 78.8382 93.571 78.8382 95.8847C78.8382 101.552 73.1071 106.498 66.0388 108.875C65.2913 111.645 64.885 114.497 64.8289 117.365C64.8236 120.634 65.3331 122.545 66.7393 122.545ZM66.3572 107.517C72.534 104.906 75.2722 99.3658 75.2722 95.8422C75.2722 94.6323 74.8901 93.9955 74.126 93.9955C71.6372 94.038 68.2623 100.512 66.3519 107.517H66.3572Z" fill="#1D2025"/>
<path d="M86.538 128.912C87.3658 118.406 87.0686 96.6913 84.755 96.6913C83.7998 96.6913 82.3989 98.3469 80.1065 102.741L79.406 102.21C81.7621 96.8611 84.6276 92.1277 86.9837 92.1277C90.8044 92.1277 91.2289 112.186 90.1676 122.693C94.3704 114.861 97.6817 106.01 97.6817 100.597C97.6817 97.413 96.7265 96.8823 96.7265 94.6111C96.7265 93.0828 97.4907 92.1277 98.8491 92.1277C100.377 92.1277 100.972 93.5286 100.972 95.6936C100.972 106.455 84.9885 141.924 73.9721 141.924C72.1255 141.924 71.1703 141.091 71.1703 139.695C71.1524 139.411 71.191 139.125 71.2838 138.856C71.3767 138.586 71.5221 138.338 71.7116 138.125C71.901 137.911 72.1308 137.738 72.3876 137.614C72.6444 137.49 72.9233 137.418 73.208 137.403C74.6726 137.403 74.6726 138.804 76.5193 138.804C79.0239 138.846 82.8446 134.644 86.538 128.912Z" fill="#1D2025"/>
<g clip-path="url(#clip3_614_1070)">
<path d="M3.24034 142.992C3.27793 142.874 3.37713 142.861 3.46276 142.839C3.63679 142.795 3.81082 142.764 3.98486 142.72C5.36107 142.369 6.63188 141.743 7.70256 140.888C8.75998 140.047 9.64268 139.08 10.2925 137.946C10.3437 137.857 10.344 137.858 10.3308 137.737C10.1609 137.753 9.9904 137.766 9.82019 137.784C9.36771 137.832 8.91244 137.88 8.45925 137.934C7.9201 137.998 7.38025 138.065 6.84353 138.138C6.48328 138.186 6.12512 138.248 5.76452 138.301C5.46671 138.342 5.17608 138.418 4.89992 138.526C4.66985 138.621 4.45858 138.587 4.25426 138.48C4.1495 138.424 4.0516 138.359 3.96223 138.285C3.52193 137.919 3.23129 137.468 3.02593 136.965C3.01531 136.941 3.0067 136.916 3.00018 136.891C2.96711 136.749 3.02559 136.695 3.17421 136.75C3.87661 137.004 4.61312 136.999 5.34858 136.98C5.88704 136.966 6.42515 136.936 6.96222 136.898C7.49928 136.86 8.03357 136.803 8.56924 136.755C9.05862 136.71 9.54766 136.661 10.0377 136.62C10.414 136.589 10.7687 136.516 11.0694 136.295C11.2887 136.134 11.5146 136.149 11.746 136.271C12.1147 136.47 12.4516 136.713 12.7474 136.994C12.8717 137.109 12.95 137.245 12.943 137.415C12.9389 137.521 12.9048 137.612 12.8101 137.676C12.462 137.911 12.2347 138.23 12.0402 138.572C11.6455 139.269 11.178 139.923 10.6026 140.508C9.96116 141.161 9.2511 141.742 8.39625 142.165C7.77635 142.471 7.11223 142.664 6.42272 142.791C5.53622 142.948 4.63696 143.04 3.7339 143.065C3.61823 143.067 3.50254 143.061 3.38792 143.047C3.33919 143.041 3.29046 143.011 3.24034 142.992Z" fill="#1D2025"/>
<path d="M5.72236 135.574C5.43834 135.574 5.15467 135.571 4.87065 135.574C4.71123 135.576 4.59985 135.526 4.51805 135.394C4.37395 135.162 4.21141 134.938 4.0593 134.71C4.01528 134.649 3.97886 134.583 3.95071 134.514C3.91242 134.411 3.97751 134.34 4.09167 134.366C4.75787 134.516 5.42755 134.439 6.09793 134.401C6.98411 134.353 7.85392 134.203 8.7213 134.041C8.95416 133.998 9.18354 133.94 9.38542 133.822C9.44601 133.785 9.51503 133.762 9.58715 133.754C9.65926 133.745 9.73255 133.752 9.80136 133.773C10.211 133.885 10.6231 133.996 10.9977 134.188C11.1495 134.264 11.2884 134.359 11.4101 134.471C11.6475 134.694 11.6036 134.973 11.3248 135.159C11.1677 135.259 10.9826 135.317 10.7906 135.327C10.4846 135.351 10.1787 135.372 9.87201 135.386C8.85403 135.434 7.83559 135.48 6.81668 135.523C6.45226 135.539 6.08575 135.55 5.72271 135.564L5.72236 135.574Z" fill="#1D2025"/>
<path d="M21.3484 137.182C21.4615 137.312 21.5685 137.428 21.6675 137.554C21.8117 137.743 21.8832 137.977 21.8694 138.213C21.8553 138.913 21.8351 139.613 21.8411 140.313C21.8411 140.845 21.8956 141.374 21.9098 141.912C21.9352 142.432 21.7837 142.945 21.4796 143.37C21.4088 143.49 21.3113 143.593 21.1945 143.671C21.0776 143.748 20.9445 143.799 20.8052 143.818C20.6885 143.831 20.5702 143.815 20.4619 143.77C20.2356 143.688 20.0461 143.53 19.9276 143.322C19.8091 143.115 19.7694 142.872 19.8156 142.638C19.8581 142.254 19.9368 141.878 19.9913 141.496C20.107 140.61 20.1402 139.715 20.0903 138.823C20.0802 138.607 20.064 138.391 20.0499 138.151L19.9065 138.239C18.9284 138.905 17.8736 139.452 16.7643 139.869C16.2201 140.08 15.6549 140.232 15.0781 140.325C14.9816 140.338 14.8838 140.338 14.7873 140.325C14.7307 140.325 14.6803 140.263 14.6257 140.229C14.6621 140.183 14.6904 140.119 14.7368 140.091C15.1185 139.865 15.5102 139.657 15.8838 139.417C16.6897 138.889 17.4532 138.301 18.1678 137.658C18.9756 136.952 19.7389 136.212 20.4659 135.432C20.8395 135.032 21.1929 134.614 21.5584 134.206C21.5776 134.193 21.5932 134.176 21.604 134.155C21.6148 134.134 21.6205 134.112 21.6205 134.088C21.6205 134.065 21.6148 134.043 21.604 134.022C21.5932 134.001 21.5776 133.984 21.5584 133.971C21.4776 133.901 21.3989 133.833 21.3221 133.759C21.209 133.651 21.205 133.559 21.3221 133.463C21.4877 133.333 21.6614 133.213 21.8351 133.093C21.9562 133.007 22.0693 133.065 22.1763 133.131C22.4045 133.275 22.6348 133.415 22.8589 133.569C23.0831 133.723 23.3032 133.887 23.5172 134.057C23.603 134.132 23.6789 134.217 23.7434 134.31C23.7847 134.361 23.8139 134.42 23.829 134.483C23.844 134.546 23.8445 134.611 23.8303 134.675C23.8161 134.738 23.7877 134.797 23.7471 134.848C23.7065 134.899 23.6549 134.94 23.596 134.968C23.4292 135.054 23.275 135.161 23.1376 135.288C22.5318 135.912 21.9461 136.548 21.3484 137.182Z" fill="#1D2025"/>
<g clip-path="url(#clip4_614_1070)">
<path d="M27.5863 143.408C27.4874 143.408 27.3718 143.41 27.2559 143.408C27.2023 143.408 27.1515 143.395 27.1362 143.338C27.1212 143.275 27.1613 143.238 27.2204 143.218C27.3722 143.167 27.5253 143.12 27.6775 143.07C28.6566 142.749 29.4432 142.194 30.1028 141.474C30.6527 140.875 31.0707 140.214 31.3168 139.467C31.4909 138.94 31.5845 138.399 31.6485 137.852C31.7275 137.181 31.7373 136.507 31.7345 135.833C31.7345 135.525 31.7039 135.217 31.6872 134.909C31.6799 134.779 31.6176 134.679 31.487 134.619C31.2604 134.514 31.0346 134.407 30.8076 134.305C30.5667 134.197 30.5511 134.136 30.738 133.963C30.9417 133.769 31.1705 133.599 31.4195 133.454C31.4621 133.428 31.5119 133.411 31.5637 133.408C31.6155 133.404 31.6675 133.413 31.7143 133.433C32.148 133.606 32.5873 133.769 33.0154 133.952C33.4366 134.133 33.6113 134.453 33.5552 134.865C33.4111 135.921 33.4634 136.984 33.4209 138.043C33.3986 138.597 33.3631 139.15 33.212 139.69C33.1798 139.807 33.141 139.922 33.0958 140.036C32.5711 141.334 31.6118 142.27 30.2176 142.844C29.3917 143.19 28.4966 143.382 27.5863 143.408V143.408Z" fill="#1D2025"/>
<path d="M29.7794 136.787C29.7327 137.443 29.6864 138.184 29.6252 138.923C29.6026 139.198 29.5625 139.473 29.4672 139.739C29.391 139.949 29.2673 140.141 29.1041 140.305C29.0809 140.327 29.0556 140.348 29.0286 140.367C28.8803 140.476 28.7968 140.476 28.6722 140.346C28.5761 140.248 28.4905 140.142 28.4167 140.03C28.2576 139.782 28.1083 139.527 27.9597 139.276C27.8469 139.084 27.8312 138.879 27.8664 138.666C28.0132 137.75 28.083 136.826 28.0752 135.9C28.0752 135.77 28.0655 135.64 28.046 135.511C27.9969 135.19 27.7863 134.972 27.479 134.822C27.4094 134.787 27.3325 134.759 27.2653 134.718C27.1776 134.666 27.1699 134.608 27.2367 134.535C27.2656 134.502 27.301 134.475 27.3412 134.455C27.5413 134.361 27.7404 134.267 27.9454 134.181C28.2183 134.069 28.4905 134.097 28.746 134.226C28.9576 134.334 29.1636 134.45 29.3641 134.575C29.5953 134.72 29.7317 134.924 29.7397 135.182C29.7585 135.688 29.7662 136.195 29.7794 136.787Z" fill="#1D2025"/>
</g>
<path d="M46.7492 138.637C46.7492 138.896 46.6002 139.084 46.3242 139.168C46.0976 139.237 45.8662 139.221 45.6368 139.189C44.9787 139.095 44.3139 139.044 43.6476 139.037C42.9462 139.032 42.2445 139.027 41.5439 139.048C40.9309 139.066 40.319 139.119 39.7068 139.159C39.1987 139.193 38.6935 139.255 38.1937 139.344C38.0197 139.375 37.8909 139.324 37.7882 139.195C37.4304 138.747 37.1387 138.269 36.9508 137.742C36.9292 137.682 36.8756 137.613 36.94 137.55C37.0096 137.481 37.0938 137.531 37.1673 137.55C37.6561 137.683 38.1634 137.751 38.6737 137.754C39.5439 137.767 40.414 137.768 41.2814 137.752C42.0516 137.737 42.8214 137.706 43.5909 137.657C44.1387 137.622 44.6862 137.561 45.2268 137.48C45.8084 137.393 46.1927 137.642 46.5146 138.025C46.665 138.2 46.7474 138.416 46.7492 138.637V138.637Z" fill="#1D2025"/>
</g>
</g>
<defs>
<clipPath id="clip0_614_1070">
<rect width="10.1554" height="10.6879" fill="white" transform="translate(1.96155 62.0392)"/>
</clipPath>
<clipPath id="clip1_614_1070">
<rect width="9.97928" height="8.53984" fill="white" transform="translate(26.3065 63.1133)"/>
</clipPath>
<clipPath id="clip2_614_1070">
<rect width="117" height="72" fill="white" transform="translate(0 72)"/>
</clipPath>
<clipPath id="clip3_614_1070">
<rect width="45.0088" height="10.7164" fill="white" transform="translate(2.99121 133.05)"/>
</clipPath>
<clipPath id="clip4_614_1070">
<rect width="6.43237" height="10.002" fill="white" transform="translate(27.1331 133.407)"/>
</clipPath>
</defs>
</svg>
