<?xml version="1.0" standalone="no"?>
<!DOCTYPE svg PUBLIC "-//W3C//DTD SVG 20010904//EN"
 "http://www.w3.org/TR/2001/REC-SVG-20010904/DTD/svg10.dtd">
<svg version="1.0" xmlns="http://www.w3.org/2000/svg"
 width="16.000000pt" height="16.000000pt" viewBox="0 0 16.000000 16.000000"
 preserveAspectRatio="xMidYMid meet">
<metadata>
Created by potrace 1.11, written by Peter Selinger 2001-2013
</metadata>
<g transform="translate(0.000000,16.000000) scale(0.001316,-0.001316)"
fill="#000000" stroke="none">
<path d="M10140 12148 c-45 -7 -255 -48 -323 -63 -18 -4 -51 -13 -287 -75
-310 -81 -796 -233 -1515 -471 -264 -88 -489 -163 -500 -168 -11 -5 -67 -25
-125 -44 -126 -42 -534 -184 -640 -222 -41 -14 -79 -28 -85 -29 -5 -2 -17 -6
-25 -9 -15 -6 -372 -130 -615 -213 -71 -25 -146 -52 -165 -59 -19 -8 -96 -35
-170 -60 -131 -46 -310 -108 -730 -255 -647 -226 -1520 -520 -1900 -640 -268
-85 -398 -127 -425 -140 -11 -5 -90 -37 -175 -70 -85 -34 -167 -68 -182 -76
-16 -8 -28 -12 -28 -9 0 3 -10 0 -22 -7 -13 -7 -26 -11 -30 -10 -5 1 -8 -2 -8
-6 0 -5 -6 -9 -12 -9 -7 0 -29 -7 -48 -16 -33 -15 -78 -34 -190 -77 -25 -10
-112 -46 -195 -80 -82 -34 -154 -63 -160 -64 -5 -2 -21 -8 -35 -13 -14 -6 -99
-41 -190 -78 -91 -36 -182 -74 -203 -83 -87 -37 -252 -280 -321 -470 -27 -77
-29 -84 -52 -206 -14 -79 -14 -304 0 -371 40 -185 120 -368 215 -495 129 -172
299 -315 495 -413 44 -23 97 -47 116 -55 109 -40 198 -66 285 -81 33 -6 71
-14 85 -17 56 -13 349 -12 412 2 288 63 380 90 583 169 171 67 767 290 1235
462 157 57 312 115 345 128 33 12 125 46 205 75 80 28 154 56 165 60 11 5 108
41 215 81 107 39 236 86 285 104 50 18 160 59 245 90 85 31 198 73 250 92 400
148 854 312 857 309 2 -2 -43 -45 -99 -96 -57 -51 -143 -130 -192 -174 -49
-44 -96 -88 -106 -96 -23 -20 -173 -157 -215 -195 -17 -16 -76 -70 -130 -120
-55 -49 -106 -97 -115 -105 -9 -8 -61 -55 -115 -105 -55 -49 -104 -95 -110
-101 -5 -6 -44 -42 -85 -80 -42 -38 -134 -123 -205 -190 -72 -66 -159 -147
-194 -180 -83 -77 -120 -111 -276 -259 -71 -67 -146 -137 -165 -155 -19 -18
-108 -102 -197 -187 -89 -85 -181 -172 -205 -195 -253 -238 -868 -839 -1302
-1274 -527 -527 -807 -816 -1211 -1248 -111 -118 -255 -275 -350 -381 -11 -13
-48 -54 -82 -91 -284 -318 -646 -752 -840 -1009 -71 -95 -291 -410 -314 -451
-9 -16 -33 -56 -54 -89 -95 -153 -171 -325 -195 -435 -18 -85 -21 -283 -5
-370 24 -131 69 -268 127 -385 35 -69 109 -187 135 -213 7 -7 13 -17 13 -21 0
-4 36 -44 81 -89 178 -180 368 -263 604 -264 202 0 377 42 700 169 77 31 163
66 190 78 117 53 387 165 398 165 7 0 17 4 23 9 11 10 275 101 384 131 280 79
421 116 610 160 118 27 233 52 255 56 22 3 42 7 45 9 3 2 26 6 50 10 25 3 53
8 62 11 17 5 218 41 273 49 17 3 46 7 65 10 19 4 51 8 70 11 19 2 96 13 170
24 74 10 158 21 185 24 28 4 66 8 85 11 19 2 64 7 100 10 36 4 76 8 90 10 33
5 144 16 195 20 22 1 74 6 115 9 129 12 172 15 280 21 58 4 125 8 150 10 25 2
106 6 180 10 74 3 178 8 230 10 601 28 2160 28 2815 0 50 -2 160 -7 245 -10
85 -4 178 -8 205 -10 28 -2 106 -6 175 -10 69 -3 152 -8 185 -10 137 -8 253
-16 305 -20 30 -2 93 -6 140 -10 47 -3 103 -7 125 -10 22 -2 78 -7 125 -10 47
-3 137 -10 200 -16 63 -5 144 -12 180 -15 36 -3 79 -7 95 -9 68 -9 224 -19
288 -18 261 6 612 168 828 383 54 53 150 173 173 215 9 17 27 49 40 72 42 74
89 196 113 293 33 131 42 349 19 476 -79 452 -389 815 -819 958 -119 40 -307
75 -488 91 -20 2 -63 6 -95 9 -32 3 -93 8 -134 11 -41 3 -100 8 -130 10 -52 4
-165 11 -330 20 -41 3 -142 7 -225 11 -82 3 -188 7 -235 9 -666 27 -2343 27
-3225 0 -165 -5 -445 -16 -520 -20 -38 -2 -124 -7 -190 -10 -115 -5 -147 -8
-278 -20 -54 -5 -57 -4 -48 12 11 21 279 365 289 373 4 3 32 37 62 75 30 39
57 72 60 75 3 3 68 82 145 175 77 94 142 172 145 175 3 3 37 43 76 90 96 116
351 419 378 450 12 14 55 66 96 115 41 50 77 92 80 95 3 3 75 88 160 190 85
101 162 191 170 200 8 9 35 40 60 70 25 30 74 88 110 130 36 42 83 99 105 125
22 27 45 53 50 59 6 6 109 128 230 271 120 143 222 262 225 265 3 3 66 77 140
165 74 88 144 171 156 185 21 24 38 44 144 170 25 29 74 88 110 130 36 42 83
98 105 124 22 27 48 58 59 70 10 11 35 41 55 66 20 25 39 47 42 50 20 18 1101
1312 1289 1545 36 44 68 82 71 85 3 3 84 102 180 220 96 118 181 224 190 235
25 30 250 315 284 359 17 22 56 73 88 115 32 42 93 113 135 157 92 97 104 112
158 189 214 308 304 708 235 1038 -84 401 -388 729 -812 877 -78 27 -111 33
-194 35 -55 1 -125 -2 -155 -7z"/>
</g>
</svg>
