<svg xmlns="http://www.w3.org/2000/svg" version="1.1" xmlns:xlink="http://www.w3.org/1999/xlink" xmlns:svgjs="http://svgjs.com/svgjs" width="512" height="512"><svg width="512" height="512" viewBox="0 0 512 512" fill="none" xmlns="http://www.w3.org/2000/svg">
<path d="M300.665 245.474C309.756 243.871 314.57 238.336 313.297 231.117C312.496 226.572 310.673 217.796 309.353 210.31C307.326 198.813 338.029 188.437 374.395 182.025C403.273 176.933 416.139 177.973 417.459 185.459C419.392 196.421 418.919 203.12 420.428 211.676C421.276 216.488 426.293 223.047 439.128 220.784C450.358 218.804 454.055 213.19 454.356 202.385C454.483 192.163 452.88 183.073 451.325 174.25C441.66 119.44 415.541 80.7649 355.698 58.7873C352.473 57.7017 346.214 56.6001 340.063 57.6845C333.913 58.769 327.559 61.8192 323.531 65.5617C272.565 104.873 265.022 157.478 273.508 205.603C275.347 216.031 277.673 226.096 279.512 231.837C282.971 243.632 289.702 247.407 300.665 245.474ZM310.98 164.812C306.969 165.52 303.965 164.12 303.305 160.377C300.571 144.87 313.331 120.29 335.873 101.153C338.972 98.4013 342.794 96.6246 346.805 95.9174C350.548 95.2573 354.213 95.7138 357.17 96.8465C378.308 104.146 401.159 118.036 404.365 136.216C404.931 139.425 404.459 141.438 399.378 142.334C394.03 143.277 385.38 144.251 369.069 147.127C337.249 152.737 318.2 163.539 310.98 164.812Z" fill="black"></path>
<path d="M108.309 218.988C132.753 225.321 157.85 232.384 176.336 234.649C189.691 236.146 196.718 230.675 200.259 217.009C203.051 206.234 199.067 194.545 182.508 190.255C163.847 185.42 128.696 183.604 101.623 176.59C94.2636 174.683 91.6543 171.764 92.6075 168.084C94.0374 162.565 104.763 155.809 145.819 136.999C191.965 115.861 226.442 104.04 231.004 86.4321C233.864 75.3941 230.232 68.8441 218.54 65.254C202.448 60.2436 175.181 52.8986 149.423 46.225C131.813 41.6625 115.38 37.966 103.085 35.622C86.2541 32.3831 78.448 36.5305 74.9073 50.1966C71.8433 62.023 74.8531 72.0577 90.6235 76.1436C113.491 82.0681 136.356 80.42 159.749 86.4807C166.32 88.1832 168.141 90.8985 167.324 94.0522C165.894 99.5712 157.844 101.412 116 120.018C66.2225 142.178 37.8592 155.302 32.0035 177.904C28.9394 189.73 32.2407 196.475 49.5105 202.352C64.4828 207.353 86.2305 213.268 108.309 218.988Z" fill="black"></path>
<path d="M50.5132 431.253C64.8302 434.415 71.5069 428.104 74.1416 416.175C76.6591 404.776 73.4685 375.156 84.2411 326.378C87.3441 312.328 90.9355 311.175 94.1171 311.877C95.7078 312.229 98.5657 313.138 100.012 315.403C123.466 346.44 133.236 385.297 152.62 433.507C160.569 454.168 170.854 459.22 184.641 462.265C197.898 465.193 207.845 460.439 213.365 448.035C220.442 432.36 226.534 407.292 232.038 382.373C237.834 356.128 243.627 327.381 244.519 312.008C245.439 295.251 236.804 290.286 226.994 288.12C215.593 285.602 206.41 289.412 203.19 303.993C200.907 314.331 206.287 351.663 193.641 408.925C192.704 413.166 191.058 415.583 187.346 414.763C184.43 414.119 182.484 412.856 181.272 409.53C160.467 355.168 136.008 299.721 119.427 276.597C112.021 266.064 107.304 262.242 94.8424 259.49C86.6234 257.675 77.8189 258.511 70.3501 267.148C62.7642 276.316 51.2623 308.251 43.2999 344.305C38.7917 364.717 33.6948 385.278 32.6024 405.333C31.9441 419.645 36.1962 428.091 50.5132 431.253Z" fill="black"></path>
<path d="M348.427 456.95C368.932 464.124 390.178 472.435 409.175 478.194C421.19 481.7 429.172 475.649 433.443 463.914C436.786 454.729 434.747 444.453 423.01 440.182C399.792 431.731 368.454 428.125 326.355 412.803C309.006 406.488 306.756 403.936 313.163 386.333C319.941 367.709 326.298 364.534 338.545 368.991C374.01 381.899 402.33 395.385 408.964 397.8C417.894 401.05 425.388 397.132 428.637 388.203C433.094 375.958 426.252 371.734 403.545 363.469C377.01 353.811 358.43 348.493 346.183 344.036C338.784 341.343 337.138 338.721 339.181 333.109C346.052 314.23 356.145 306.347 371.453 311.919C412.786 326.963 436.838 342.651 451.891 348.13C464.393 352.681 472.491 345.516 476.205 335.311C479.548 326.127 477.161 316.014 461.783 309.839C448.377 303.803 425.576 295.794 403.634 287.807C386.539 281.585 370.21 275.642 361.604 273.088C351.306 269.628 340.009 268.117 331.539 279.479C313.161 304.57 294.71 341.769 286.422 365.332C279.644 383.956 275.837 394.415 272.912 404.04C267.339 422.525 273.624 428.279 287.727 433.99C303.87 440.444 325.72 448.685 348.427 456.95Z" fill="black"></path>
</svg><style>@media (prefers-color-scheme: light) { :root { filter: none; } }
@media (prefers-color-scheme: dark) { :root { filter: invert(100%); } }
</style></svg>