<svg width="1433" height="471" viewBox="0 0 1433 471" fill="none" xmlns="http://www.w3.org/2000/svg">
<path d="M7.7533 371.206L229.591 56.9892H164.131C124.127 56.9892 104.344 79.7246 85.5783 129.535L82.5235 138.436H75.2501L103.616 43.2292H271.631L270.322 48.978L48.4841 363.194H122.818C165.585 363.194 182.605 338.716 204.425 289.314L208.353 280.412H215.626L185.951 376.843H6.44409L7.7533 371.206Z" fill="#FEF7E1"/>
<path d="M7.7533 371.206L229.591 56.9892H164.131C124.127 56.9892 104.344 79.7246 85.5783 129.535L82.5235 138.436H75.2501L103.616 43.2292H271.631L270.322 48.978L48.4841 363.194H122.818C165.585 363.194 182.605 338.716 204.425 289.314L208.353 280.412H215.626L185.951 376.843H6.44409L7.7533 371.206Z" fill="url(#paint0_linear_1844_2298)"/>
<path d="M312.361 346.876C306.688 346.876 305.378 342.425 305.378 336.194C306.281 325.53 308.631 315.045 312.361 305.039L348.291 194.366C297.378 300.737 261.738 346.876 241.227 346.876C233.954 346.876 229.881 340.2 229.881 329.073C229.881 277.149 296.65 110.249 357.747 110.249C366.43 111.061 374.877 113.58 382.622 117.667L398.768 99.8641L406.042 100.754L335.49 314.534C356.175 295.303 374.891 273.979 391.35 250.89L396.586 255.34C361.238 306.523 326.762 346.876 312.361 346.876ZM263.92 313.199C272.212 313.199 306.688 266.912 365.166 142.294L366.475 138.585C359.201 131.909 351.201 126.123 342.473 126.123C304.942 126.271 261.011 278.039 261.011 308.303C261.011 311.864 262.175 313.199 263.92 313.199Z" fill="#FEF7E1"/>
<path d="M312.361 346.876C306.688 346.876 305.378 342.425 305.378 336.194C306.281 325.53 308.631 315.045 312.361 305.039L348.291 194.366C297.378 300.737 261.738 346.876 241.227 346.876C233.954 346.876 229.881 340.2 229.881 329.073C229.881 277.149 296.65 110.249 357.747 110.249C366.43 111.061 374.877 113.58 382.622 117.667L398.768 99.8641L406.042 100.754L335.49 314.534C356.175 295.303 374.891 273.979 391.35 250.89L396.586 255.34C361.238 306.523 326.762 346.876 312.361 346.876ZM263.92 313.199C272.212 313.199 306.688 266.912 365.166 142.294L366.475 138.585C359.201 131.909 351.201 126.123 342.473 126.123C304.942 126.271 261.011 278.039 261.011 308.303C261.011 311.864 262.175 313.199 263.92 313.199Z" fill="url(#paint1_linear_1844_2298)"/>
<path d="M454.192 146.596C454.192 143.48 453.319 141.7 450.555 141.7C442.7 141.7 432.663 154.162 416.08 185.762L410.406 183.091C428.59 141.255 450.992 110.1 469.321 110.1C478.921 110.1 483.285 115.886 483.285 127.013C483.285 135.914 480.667 147.486 475.43 162.618L445.755 251.631C491.577 149.266 528.235 110.1 552.673 110.1C563.147 110.1 567.947 117.518 567.947 130.573C567.947 139.475 564.893 151.492 560.674 165.289L508.306 314.534C527.617 294.981 545.145 273.679 560.674 250.89L565.911 255.34C531.872 305.633 499.578 346.875 486.049 346.875C480.376 346.875 478.194 341.98 478.194 335.304C479.012 324.452 481.465 313.793 485.468 303.704L533.763 168.552C535.788 162.668 537.012 156.528 537.399 150.305C537.399 145.409 536.09 143.629 531.726 143.629C514.706 143.629 472.812 193.031 416.516 339.903H392.95L450.555 162.321C452.589 157.313 453.818 152.003 454.192 146.596V146.596Z" fill="#FEF7E1"/>
<path d="M454.192 146.596C454.192 143.48 453.319 141.7 450.555 141.7C442.7 141.7 432.663 154.162 416.08 185.762L410.406 183.091C428.59 141.255 450.992 110.1 469.321 110.1C478.921 110.1 483.285 115.886 483.285 127.013C483.285 135.914 480.667 147.486 475.43 162.618L445.755 251.631C491.577 149.266 528.235 110.1 552.673 110.1C563.147 110.1 567.947 117.518 567.947 130.573C567.947 139.475 564.893 151.492 560.674 165.289L508.306 314.534C527.617 294.981 545.145 273.679 560.674 250.89L565.911 255.34C531.872 305.633 499.578 346.875 486.049 346.875C480.376 346.875 478.194 341.98 478.194 335.304C479.012 324.452 481.465 313.793 485.468 303.704L533.763 168.552C535.788 162.668 537.012 156.528 537.399 150.305C537.399 145.409 536.09 143.629 531.726 143.629C514.706 143.629 472.812 193.031 416.516 339.903H392.95L450.555 162.321C452.589 157.313 453.818 152.003 454.192 146.596V146.596Z" fill="url(#paint2_linear_1844_2298)"/>
<path d="M621.77 322.545C637.044 322.545 651.445 299.402 664.537 266.022L670.647 269.137C653.191 317.65 631.807 347.024 608.241 347.024C587.73 347.024 580.748 326.551 580.748 297.177C580.748 220.625 630.934 110.249 681.957 110.249C697.267 110.249 704.686 120.04 704.686 136.211C704.686 175.822 665.41 210.389 616.969 227.005C611.847 246.367 609.062 266.295 608.678 286.347C608.678 309.193 612.169 322.545 621.77 322.545ZM619.151 217.51C661.482 199.262 680.248 160.541 680.248 135.914C680.248 127.458 677.629 123.008 672.392 123.008C655.373 123.156 632.243 168.553 619.151 217.51Z" fill="#FEF7E1"/>
<path d="M621.77 322.545C637.044 322.545 651.445 299.402 664.537 266.022L670.647 269.137C653.191 317.65 631.807 347.024 608.241 347.024C587.73 347.024 580.748 326.551 580.748 297.177C580.748 220.625 630.934 110.249 681.957 110.249C697.267 110.249 704.686 120.04 704.686 136.211C704.686 175.822 665.41 210.389 616.969 227.005C611.847 246.367 609.062 266.295 608.678 286.347C608.678 309.193 612.169 322.545 621.77 322.545ZM619.151 217.51C661.482 199.262 680.248 160.541 680.248 135.914C680.248 127.458 677.629 123.008 672.392 123.008C655.373 123.156 632.243 168.553 619.151 217.51Z" fill="url(#paint3_linear_1844_2298)"/>
<path d="M25.2878 435.919C23.2234 436.318 21.2579 436.64 19.3033 437.083C17.8099 437.438 16.3495 437.937 14.911 438.348C14.6864 438.445 14.4359 438.465 14.1991 438.402C13.9624 438.34 13.7531 438.2 13.6043 438.004C11.8411 435.646 10.4792 433.008 9.57437 430.198C9.47553 429.794 9.40942 429.382 9.37671 428.967C9.31083 428.335 9.62927 428.102 10.2112 428.235C10.7932 428.368 11.3093 428.501 11.8144 428.634C14.2016 429.178 16.6508 429.39 19.0947 429.266C21.1591 429.266 23.2344 429.078 25.3647 428.978C25.3647 428.612 25.3647 428.335 25.3647 428.069C25.3647 425.042 25.3647 422.026 25.3647 418.999C25.3814 418.697 25.3192 418.395 25.1843 418.125C25.0494 417.854 24.8466 417.624 24.596 417.458L21.7301 415.373C20.632 414.586 20.5332 413.998 21.5873 413.089C22.4745 412.313 23.4098 411.594 24.3874 410.938C24.7945 410.686 25.2795 410.595 25.749 410.683C28.7577 411.537 31.7665 412.424 34.7422 413.388C35.324 413.541 35.8414 413.879 36.2173 414.353C36.5933 414.826 36.8077 415.41 36.8286 416.016C36.9062 416.655 36.7751 417.301 36.4552 417.857C35.5668 418.993 35.0695 420.39 35.0387 421.838C34.863 423.767 34.7313 425.685 34.5885 427.603C34.5809 427.744 34.5809 427.884 34.5885 428.025C35.994 427.847 37.3666 427.736 38.7173 427.503C41.5503 427.016 44.3943 426.55 47.1834 425.896C48.3948 425.537 49.5541 425.019 50.6314 424.354C50.9187 424.171 51.247 424.062 51.5865 424.039C51.9259 424.016 52.2657 424.078 52.575 424.221C55.6716 425.53 58.7901 426.805 61.8867 428.102C62.4127 428.265 62.8984 428.539 63.3112 428.906C63.724 429.273 64.0545 429.725 64.2805 430.231C64.4645 430.63 64.5685 431.061 64.5863 431.501C64.6041 431.94 64.5355 432.379 64.3844 432.791C64.2332 433.204 64.0026 433.582 63.7058 433.904C63.409 434.225 63.052 434.485 62.6553 434.666C60.9313 435.598 59.1744 436.474 57.4614 437.405C54.803 439.035 52.2603 440.851 49.8518 442.838C47.2054 444.801 44.4712 446.664 41.6931 448.382C39.9698 449.418 37.9282 449.773 35.9611 449.38L35.6207 449.302C34.6105 448.903 34.5226 448.526 35.3791 447.839C39.6839 444.042 43.4426 439.657 46.5465 434.81C46.6574 434.662 46.7462 434.497 46.8101 434.323C46.9528 433.879 46.887 433.58 46.3269 433.635L42.319 434.112L34.3689 435.054L33.9846 435.11C33.8967 436.573 33.7869 438.004 33.743 439.434C33.6222 443.459 33.5124 447.473 33.4465 451.498C33.452 452.494 33.5402 453.488 33.7101 454.469C33.7308 454.914 33.8398 455.351 34.0307 455.752C34.2215 456.154 34.4903 456.513 34.8211 456.807C35.1519 457.102 35.538 457.327 35.9564 457.468C36.3748 457.609 36.817 457.664 37.2568 457.63C39.4192 457.604 41.5785 457.455 43.7245 457.186C46.2501 456.853 48.7427 456.277 51.2793 455.922C53.7114 455.483 56.2174 456.02 58.263 457.419C59.9101 458.528 60.4592 460.146 59.1634 462.198C58.5884 463.078 57.8332 463.824 56.9485 464.384C56.0639 464.944 55.0705 465.307 54.0354 465.447C51.7285 465.877 49.3951 466.147 47.0517 466.256C43.4395 466.492 39.8125 466.329 36.2356 465.768C34.2099 465.443 32.2442 464.811 30.4048 463.894C29.1228 463.233 28.0304 462.251 27.2324 461.042C26.4345 459.832 25.9577 458.436 25.8478 456.986C25.4696 454.043 25.2387 451.083 25.156 448.116C25.0682 444.379 25.156 440.632 25.2549 436.895L25.2878 435.919Z" fill="white"/>
<path d="M45.3499 411.958C48.1894 411.872 50.9796 412.72 53.3 414.375C54.0536 414.856 54.6692 415.527 55.0854 416.323C55.5016 417.119 55.7038 418.011 55.6718 418.91C55.6645 419.465 55.4977 420.006 55.1916 420.466C54.8855 420.927 54.4534 421.288 53.9478 421.505C53.4333 421.683 52.8772 421.699 52.3535 421.551C51.8298 421.402 51.3633 421.096 51.016 420.673C50.8038 420.429 50.6093 420.17 50.434 419.897C48.7594 417.195 46.3129 415.069 43.4173 413.799C43.0364 413.659 42.6689 413.484 42.3192 413.278C42.1325 413.133 41.9129 412.823 41.9568 412.634C42.0167 412.522 42.1012 412.424 42.2039 412.349C42.3067 412.274 42.4249 412.224 42.5498 412.202C43.4722 412.091 44.4165 412.036 45.3499 411.958Z" fill="white"/>
<path d="M54.1562 407.091C57.3626 407.091 59.8882 407.191 62.0843 408.743C62.6474 409.088 63.1098 409.578 63.4243 410.162C63.7387 410.746 63.894 411.405 63.8742 412.069C63.8703 412.608 63.7015 413.133 63.3909 413.572C63.0804 414.011 62.6432 414.342 62.1392 414.52C61.5884 414.748 60.9805 414.796 60.4013 414.656C59.8221 414.517 59.3008 414.198 58.9109 413.744C56.6462 411.358 53.6451 409.821 50.4008 409.386C49.9506 409.32 49.3027 409.331 49.3027 408.71C49.3027 408.089 49.9177 408.022 50.3459 407.922C51.7844 407.568 53.2997 407.268 54.1562 407.091Z" fill="white"/>
<path d="M110.29 429.927C110.905 430.648 111.487 431.291 112.025 431.99C112.809 433.039 113.199 434.336 113.123 435.649C113.047 439.529 112.937 443.41 112.97 447.291C112.97 450.24 113.266 453.179 113.343 456.161C113.481 459.044 112.658 461.89 111.004 464.245C110.619 464.912 110.089 465.482 109.453 465.913C108.818 466.343 108.094 466.622 107.337 466.728C106.702 466.804 106.059 466.713 105.47 466.462C104.239 466.011 103.209 465.131 102.565 463.98C101.92 462.829 101.705 461.484 101.956 460.186C102.187 458.057 102.615 455.973 102.911 453.855C103.541 448.941 103.721 443.978 103.449 439.031C103.394 437.833 103.307 436.636 103.23 435.305L102.45 435.793C97.1318 439.482 91.3958 442.516 85.3641 444.83C82.4052 445.998 79.3316 446.846 76.1952 447.358C75.6705 447.43 75.1386 447.43 74.6139 447.358C74.3065 447.358 74.032 447.014 73.7355 446.825C73.9331 446.57 74.0869 446.216 74.3394 446.06C76.4148 444.807 78.545 443.654 80.5765 442.324C84.9582 439.398 89.1102 436.136 92.9957 432.566C97.388 428.652 101.539 424.55 105.492 420.225C107.523 418.008 109.445 415.69 111.432 413.428C111.537 413.355 111.622 413.257 111.68 413.143C111.739 413.029 111.77 412.903 111.77 412.774C111.77 412.646 111.739 412.519 111.68 412.405C111.622 412.291 111.537 412.194 111.432 412.12C110.993 411.732 110.565 411.355 110.148 410.945C109.533 410.346 109.511 409.836 110.148 409.304C111.048 408.583 111.992 407.918 112.937 407.252C113.596 406.776 114.211 407.097 114.793 407.463C116.033 408.261 117.285 409.038 118.504 409.891C119.723 410.745 120.92 411.654 122.084 412.597C122.55 413.013 122.963 413.486 123.314 414.005C123.538 414.284 123.697 414.61 123.779 414.96C123.861 415.31 123.863 415.674 123.786 416.025C123.709 416.375 123.554 416.704 123.334 416.986C123.113 417.268 122.832 417.496 122.512 417.653C121.605 418.127 120.767 418.724 120.019 419.427C116.725 422.886 113.541 426.412 110.29 429.927Z" fill="white"/>
<path d="M196.007 426.126C195.816 427.021 195.536 427.894 195.173 428.732C192.013 434.617 187.741 439.819 182.6 444.045C178.188 447.608 173.282 450.5 168.039 452.627C161.747 455.199 155.4 457.616 149.064 460.078C148.7 460.264 148.302 460.373 147.894 460.399C147.487 460.426 147.078 460.368 146.693 460.23C146.308 460.092 145.955 459.877 145.655 459.597C145.355 459.318 145.114 458.979 144.947 458.603C143.313 455.816 142.255 452.723 141.839 449.511C141.774 448.68 141.937 447.848 142.311 447.105C142.85 446.186 143.515 445.35 144.288 444.621C145.144 443.767 145.968 444.022 146.407 445.142C147.505 447.925 148.735 448.591 151.645 448.058C155.441 447.203 159.152 446.004 162.736 444.477C171.091 441.34 179.043 437.2 186.421 432.147C189.301 430.175 192.002 427.948 194.492 425.494C194.679 425.317 194.843 425.129 195.041 424.962C195.48 424.618 195.755 424.729 195.821 425.306C195.821 425.561 195.821 425.816 195.821 426.071L196.007 426.126Z" fill="white"/>
<path d="M166.546 422.368C166.458 424.94 165.162 426.16 162.439 426.337L157.959 426.625C156.021 426.815 154.203 427.659 152.798 429.02C152.495 429.22 152.166 429.376 151.821 429.486C151.78 429.116 151.798 428.742 151.876 428.377C152.403 426.892 152.974 425.417 153.534 423.942C153.973 422.833 153.929 422.645 152.787 422.468C150.77 422.133 148.839 421.393 147.11 420.293C145.38 419.192 143.887 417.752 142.718 416.059C142.329 415.515 142.029 414.913 141.828 414.273C141.554 413.486 141.971 412.943 142.795 413.065C143.742 413.242 144.681 413.468 145.606 413.741C148.948 414.58 152.449 414.523 155.763 413.575C156.661 413.292 157.619 413.272 158.529 413.515C159.438 413.758 160.26 414.256 160.902 414.95C162.527 416.624 164.13 418.276 165.69 420.05C165.992 420.349 166.226 420.712 166.374 421.112C166.522 421.513 166.581 421.942 166.546 422.368V422.368Z" fill="white"/>
<path d="M946.272 372.937H948.452L947.144 379.601C940.666 380.778 934.098 381.373 927.518 381.378C905.711 381.378 901.35 376.492 894.808 352.501L854.829 215.519H832.586L801.184 346.578C800.381 349.623 799.941 352.755 799.876 355.907C799.876 366.57 806.418 372.789 820.81 372.789H826.48L824.735 379.453H730.966L732.275 372.789H737.508C755.68 372.789 766.293 362.571 770.218 346.578L833.749 79.2779C834.552 76.233 834.991 73.1005 835.057 69.9483C835.057 59.2859 828.951 53.0662 814.559 53.0662H808.889L810.197 46.4022H898.733C939.293 46.4022 960.519 71.7254 960.519 110.376C960.519 160.578 929.553 199.674 880.561 209.003L920.54 338.581C930.135 368.495 932.315 372.937 946.272 372.937ZM835.057 203.228H853.811C896.988 203.228 927.518 165.91 927.518 111.265C927.518 78.3893 911.381 60.1745 886.521 60.1745H869.076L835.057 203.228Z" fill="#FEF7E1"/>
<path d="M946.272 372.937H948.452L947.144 379.601C940.666 380.778 934.098 381.373 927.518 381.378C905.711 381.378 901.35 376.492 894.808 352.501L854.829 215.519H832.586L801.184 346.578C800.381 349.623 799.941 352.755 799.876 355.907C799.876 366.57 806.418 372.789 820.81 372.789H826.48L824.735 379.453H730.966L732.275 372.789H737.508C755.68 372.789 766.293 362.571 770.218 346.578L833.749 79.2779C834.552 76.233 834.991 73.1005 835.057 69.9483C835.057 59.2859 828.951 53.0662 814.559 53.0662H808.889L810.197 46.4022H898.733C939.293 46.4022 960.519 71.7254 960.519 110.376C960.519 160.578 929.553 199.674 880.561 209.003L920.54 338.581C930.135 368.495 932.315 372.937 946.272 372.937ZM835.057 203.228H853.811C896.988 203.228 927.518 165.91 927.518 111.265C927.518 78.3893 911.381 60.1745 886.521 60.1745H869.076L835.057 203.228Z" fill="url(#paint4_linear_1844_2298)"/>
<path d="M1017.94 165.317C1019.83 160.323 1021.05 155.093 1021.58 149.768C1021.58 146.066 1020.7 144.437 1017.94 144.437C1010.09 144.437 1001.37 156.876 984.36 189.308L978.4 186.198C997.153 144.437 1018.96 113.338 1037.71 113.338C1046.87 113.338 1050.8 120.002 1050.8 130.221C1050.8 139.55 1046.87 155.099 1041.64 170.649L991.774 316.368C1011.65 297.22 1029.75 276.251 1045.86 253.726L1051.09 258.169C1016.63 308.815 984.36 349.688 969.968 349.688C964.298 349.688 962.117 345.245 962.117 338.581C962.117 330.584 965.752 318.589 969.968 306.15L1017.94 165.317ZM1040.19 47.1428C1040.1 44.6119 1040.53 42.0909 1041.45 39.7359C1042.36 37.3809 1043.74 35.242 1045.5 33.4514C1047.26 31.6608 1049.36 30.2566 1051.67 29.3257C1053.98 28.3948 1056.45 27.957 1058.94 28.0394C1061.42 27.957 1063.9 28.3948 1066.21 29.3257C1068.52 30.2566 1070.62 31.6608 1072.38 33.4514C1074.14 35.242 1075.52 37.3809 1076.43 39.7359C1077.34 42.0909 1077.77 44.6119 1077.69 47.1428C1077.76 49.6423 1077.31 52.1282 1076.38 54.4432C1075.46 56.7583 1074.07 58.852 1072.31 60.5919C1070.54 62.3319 1068.44 63.6802 1066.14 64.5515C1063.84 65.4228 1061.39 65.7982 1058.94 65.6539C1056.48 65.833 1054.01 65.4816 1051.7 64.6228C1049.38 63.764 1047.27 62.417 1045.5 60.6699C1043.73 58.9228 1042.34 56.8149 1041.43 54.4839C1040.51 52.153 1040.09 49.6515 1040.19 47.1428V47.1428Z" fill="#FEF7E1"/>
<path d="M1017.94 165.317C1019.83 160.323 1021.05 155.093 1021.58 149.768C1021.58 146.066 1020.7 144.437 1017.94 144.437C1010.09 144.437 1001.37 156.876 984.36 189.308L978.4 186.198C997.153 144.437 1018.96 113.338 1037.71 113.338C1046.87 113.338 1050.8 120.002 1050.8 130.221C1050.8 139.55 1046.87 155.099 1041.64 170.649L991.774 316.368C1011.65 297.22 1029.75 276.251 1045.86 253.726L1051.09 258.169C1016.63 308.815 984.36 349.688 969.968 349.688C964.298 349.688 962.117 345.245 962.117 338.581C962.117 330.584 965.752 318.589 969.968 306.15L1017.94 165.317ZM1040.19 47.1428C1040.1 44.6119 1040.53 42.0909 1041.45 39.7359C1042.36 37.3809 1043.74 35.242 1045.5 33.4514C1047.26 31.6608 1049.36 30.2566 1051.67 29.3257C1053.98 28.3948 1056.45 27.957 1058.94 28.0394C1061.42 27.957 1063.9 28.3948 1066.21 29.3257C1068.52 30.2566 1070.62 31.6608 1072.38 33.4514C1074.14 35.242 1075.52 37.3809 1076.43 39.7359C1077.34 42.0909 1077.77 44.6119 1077.69 47.1428C1077.76 49.6423 1077.31 52.1282 1076.38 54.4432C1075.46 56.7583 1074.07 58.852 1072.31 60.5919C1070.54 62.3319 1068.44 63.6802 1066.14 64.5515C1063.84 65.4228 1061.39 65.7982 1058.94 65.6539C1056.48 65.833 1054.01 65.4816 1051.7 64.6228C1049.38 63.764 1047.27 62.417 1045.5 60.6699C1043.73 58.9228 1042.34 56.8149 1041.43 54.4839C1040.51 52.153 1040.09 49.6515 1040.19 47.1428V47.1428Z" fill="url(#paint5_linear_1844_2298)"/>
<path d="M1075.95 317.7C1095.59 298.008 1113.67 276.765 1130.03 254.17L1134.68 258.169C1100.23 309.259 1069.26 349.687 1054.03 349.687C1048.36 349.687 1046.18 344.8 1046.18 338.136C1047.01 327.416 1049.05 316.83 1052.29 306.594L1123.38 51.1408H1100.7L1102.44 45.3653C1123.78 36.9243 1142.64 21.375 1159.65 0.494507H1163.76L1075.95 317.7Z" fill="#FEF7E1"/>
<path d="M1075.95 317.7C1095.59 298.008 1113.67 276.765 1130.03 254.17L1134.68 258.169C1100.23 309.259 1069.26 349.687 1054.03 349.687C1048.36 349.687 1046.18 344.8 1046.18 338.136C1047.01 327.416 1049.05 316.83 1052.29 306.594L1123.38 51.1408H1100.7L1102.44 45.3653C1123.78 36.9243 1142.64 21.375 1159.65 0.494507H1163.76L1075.95 317.7Z" fill="url(#paint6_linear_1844_2298)"/>
<path d="M1192.83 325.253C1208.1 325.253 1222.49 302.151 1235.57 268.831L1241.68 271.941C1224.24 320.366 1202.86 349.687 1179.31 349.687C1158.81 349.687 1151.84 329.251 1151.84 299.93C1151.84 223.516 1201.99 113.338 1253.02 113.338C1268.28 113.338 1275.7 123.112 1275.7 139.254C1275.7 178.793 1236.45 213.298 1188.04 229.884C1182.92 249.212 1180.13 269.104 1179.75 289.119C1179.71 311.925 1183.2 325.253 1192.83 325.253ZM1190.22 220.406C1232.52 202.191 1251.28 163.54 1251.28 138.958C1251.28 130.516 1248.66 126.074 1243.43 126.074C1226.38 126.37 1203.26 171.537 1190.18 220.406H1190.22Z" fill="#FEF7E1"/>
<path d="M1192.83 325.253C1208.1 325.253 1222.49 302.151 1235.57 268.831L1241.68 271.941C1224.24 320.366 1202.86 349.687 1179.31 349.687C1158.81 349.687 1151.84 329.251 1151.84 299.93C1151.84 223.516 1201.99 113.338 1253.02 113.338C1268.28 113.338 1275.7 123.112 1275.7 139.254C1275.7 178.793 1236.45 213.298 1188.04 229.884C1182.92 249.212 1180.13 269.104 1179.75 289.119C1179.71 311.925 1183.2 325.253 1192.83 325.253ZM1190.22 220.406C1232.52 202.191 1251.28 163.54 1251.28 138.958C1251.28 130.516 1248.66 126.074 1243.43 126.074C1226.38 126.37 1203.26 171.537 1190.18 220.406H1190.22Z" fill="url(#paint7_linear_1844_2298)"/>
<path d="M1328.44 369.679C1334.11 296.376 1332.07 144.881 1316.22 144.881C1309.68 144.881 1300.09 156.432 1284.39 187.086L1279.59 183.384C1295.73 146.066 1315.35 113.042 1331.49 113.042C1357.66 113.042 1360.56 252.986 1353.3 326.29C1382.08 271.645 1404.76 209.892 1404.76 172.129C1404.76 149.916 1398.22 146.214 1398.22 130.368C1398.22 119.706 1403.45 113.042 1412.75 113.042C1423.22 113.042 1427.29 122.816 1427.29 137.921C1427.29 213.002 1317.82 460.458 1242.37 460.458C1229.72 460.458 1223.18 454.645 1223.18 444.908C1223.06 442.923 1223.32 440.932 1223.96 439.052C1224.6 437.171 1225.59 435.437 1226.89 433.95C1228.19 432.463 1229.76 431.252 1231.52 430.388C1233.28 429.524 1235.19 429.023 1237.14 428.915C1247.17 428.915 1247.17 438.689 1259.82 438.689C1276.97 438.985 1303.14 409.663 1328.44 369.679Z" fill="#FEF7E1"/>
<path d="M1328.44 369.679C1334.11 296.376 1332.07 144.881 1316.22 144.881C1309.68 144.881 1300.09 156.432 1284.39 187.086L1279.59 183.384C1295.73 146.066 1315.35 113.042 1331.49 113.042C1357.66 113.042 1360.56 252.986 1353.3 326.29C1382.08 271.645 1404.76 209.892 1404.76 172.129C1404.76 149.916 1398.22 146.214 1398.22 130.368C1398.22 119.706 1403.45 113.042 1412.75 113.042C1423.22 113.042 1427.29 122.816 1427.29 137.921C1427.29 213.002 1317.82 460.458 1242.37 460.458C1229.72 460.458 1223.18 454.645 1223.18 444.908C1223.06 442.923 1223.32 440.932 1223.96 439.052C1224.6 437.171 1225.59 435.437 1226.89 433.95C1228.19 432.463 1229.76 431.252 1231.52 430.388C1233.28 429.524 1235.19 429.023 1237.14 428.915C1247.17 428.915 1247.17 438.689 1259.82 438.689C1276.97 438.985 1303.14 409.663 1328.44 369.679Z" fill="url(#paint8_linear_1844_2298)"/>
<path d="M757.531 464.297C757.736 463.642 758.275 463.569 758.74 463.449C759.686 463.207 760.631 463.035 761.577 462.788C769.056 460.849 775.962 457.383 781.78 452.649C787.526 447.991 792.323 442.64 795.855 436.365C796.133 435.873 796.135 435.875 796.063 435.209C795.14 435.294 794.213 435.366 793.288 435.465C790.829 435.734 788.355 435.997 785.892 436.296C782.962 436.652 780.029 437.022 777.112 437.424C775.154 437.692 773.208 438.033 771.248 438.326C769.63 438.554 768.051 438.975 766.55 439.576C765.3 440.098 764.151 439.914 763.041 439.317C762.472 439.01 761.94 438.648 761.454 438.238C759.061 436.216 757.482 433.717 756.366 430.936C756.308 430.801 756.262 430.663 756.226 430.522C756.046 429.74 756.364 429.441 757.172 429.741C760.989 431.15 764.991 431.12 768.988 431.016C771.914 430.939 774.838 430.771 777.757 430.56C780.675 430.35 783.579 430.039 786.49 429.771C789.149 429.524 791.807 429.249 794.47 429.025C796.515 428.851 798.442 428.446 800.076 427.224C801.268 426.33 802.496 426.417 803.753 427.093C805.757 428.193 807.587 429.538 809.195 431.092C809.87 431.732 810.296 432.483 810.258 433.425C810.236 434.011 810.05 434.515 809.536 434.868C807.644 436.167 806.409 437.933 805.352 439.83C803.207 443.685 800.667 447.306 797.54 450.545C794.054 454.159 790.195 457.376 785.55 459.716C782.181 461.413 778.572 462.482 774.825 463.181C770.008 464.052 765.121 464.56 760.213 464.699C759.585 464.712 758.956 464.679 758.333 464.6C758.068 464.565 757.804 464.401 757.531 464.297Z" fill="white"/>
<path d="M771.019 423.23C769.475 423.23 767.934 423.215 766.39 423.23C765.524 423.242 764.919 422.968 764.474 422.238C763.691 420.951 762.808 419.715 761.981 418.451C761.742 418.111 761.544 417.748 761.391 417.368C761.183 416.796 761.537 416.403 762.157 416.544C765.777 417.375 769.417 416.949 773.06 416.742C777.875 416.474 782.602 415.645 787.316 414.75C788.581 414.51 789.828 414.19 790.925 413.533C791.254 413.332 791.629 413.203 792.021 413.157C792.413 413.11 792.811 413.147 793.185 413.265C795.411 413.886 797.651 414.499 799.686 415.562C800.511 415.982 801.266 416.509 801.927 417.126C803.217 418.362 802.979 419.908 801.464 420.934C800.61 421.488 799.604 421.81 798.561 421.866C796.898 421.998 795.235 422.116 793.569 422.194C788.037 422.458 782.503 422.71 776.966 422.95C774.985 423.037 772.993 423.102 771.021 423.176L771.019 423.23Z" fill="white"/>
<path d="M855.936 432.132C856.551 432.852 857.132 433.494 857.67 434.191C858.454 435.239 858.842 436.533 858.767 437.843C858.69 441.717 858.581 445.591 858.614 449.465C858.614 452.409 858.91 455.342 858.987 458.319C859.125 461.197 858.302 464.038 856.649 466.388C856.264 467.054 855.734 467.623 855.099 468.053C854.465 468.482 853.741 468.761 852.984 468.867C852.35 468.943 851.707 468.851 851.118 468.601C849.889 468.151 848.859 467.272 848.215 466.123C847.571 464.975 847.355 463.632 847.607 462.337C847.837 460.212 848.265 458.131 848.561 456.017C849.19 451.111 849.37 446.158 849.099 441.219C849.044 440.024 848.956 438.828 848.88 437.5L848.101 437.987C842.785 441.67 837.053 444.698 831.025 447.008C828.068 448.174 824.996 449.02 821.862 449.531C821.337 449.603 820.806 449.603 820.281 449.531C819.974 449.531 819.7 449.188 819.403 449C819.601 448.745 819.755 448.391 820.007 448.236C822.081 446.985 824.21 445.834 826.24 444.506C830.619 441.586 834.769 438.33 838.652 434.766C843.041 430.859 847.19 426.764 851.14 422.448C853.171 420.234 855.091 417.921 857.077 415.663C857.181 415.589 857.266 415.492 857.325 415.378C857.384 415.264 857.415 415.138 857.415 415.01C857.415 414.882 857.384 414.755 857.325 414.642C857.266 414.528 857.181 414.43 857.077 414.357C856.638 413.97 856.21 413.593 855.793 413.184C855.179 412.586 855.157 412.077 855.793 411.546C856.693 410.826 857.637 410.162 858.581 409.498C859.239 409.022 859.854 409.343 860.435 409.708C861.675 410.505 862.926 411.28 864.145 412.132C865.363 412.984 866.559 413.892 867.722 414.833C868.188 415.248 868.601 415.72 868.951 416.238C869.175 416.517 869.334 416.843 869.416 417.192C869.498 417.541 869.5 417.904 869.423 418.254C869.346 418.605 869.192 418.933 868.971 419.214C868.751 419.496 868.47 419.723 868.15 419.88C867.244 420.353 866.406 420.949 865.659 421.651C862.367 425.104 859.184 428.624 855.936 432.132Z" fill="white"/>
<path d="M889.835 466.599C889.298 466.599 888.67 466.608 888.04 466.599C887.749 466.599 887.472 466.529 887.389 466.21C887.308 465.862 887.525 465.657 887.847 465.547C888.672 465.267 889.504 465.005 890.331 464.728C895.651 462.953 899.926 459.879 903.51 455.895C906.499 452.576 908.771 448.919 910.108 444.783C911.054 441.864 911.562 438.872 911.91 435.845C912.34 432.128 912.393 428.397 912.378 424.665C912.378 422.961 912.211 421.257 912.12 419.553C912.081 418.834 911.742 418.281 911.033 417.945C909.801 417.366 908.574 416.772 907.341 416.207C906.032 415.61 905.947 415.275 906.962 414.315C908.069 413.243 909.313 412.298 910.666 411.5C910.897 411.351 911.168 411.262 911.449 411.241C911.731 411.22 912.014 411.269 912.268 411.382C914.625 412.338 917.012 413.239 919.338 414.256C921.627 415.256 922.576 417.027 922.272 419.308C921.489 425.155 921.773 431.037 921.542 436.901C921.421 439.966 921.228 443.026 920.407 446.018C920.232 446.665 920.021 447.303 919.775 447.93C916.924 455.116 911.711 460.298 904.135 463.475C899.646 465.392 894.782 466.455 889.835 466.599V466.599Z" fill="white"/>
<path d="M901.754 429.948C901.5 433.582 901.249 437.681 900.916 441.77C900.793 443.295 900.575 444.816 900.057 446.291C899.643 447.449 898.971 448.514 898.084 449.42C897.958 449.546 897.82 449.662 897.674 449.768C896.868 450.368 896.414 450.366 895.737 449.65C895.215 449.108 894.75 448.522 894.348 447.899C893.484 446.525 892.673 445.117 891.865 443.726C891.252 442.664 891.167 441.527 891.358 440.35C892.156 435.28 892.535 430.163 892.493 425.04C892.493 424.319 892.44 423.599 892.334 422.884C892.067 421.108 890.923 419.903 889.253 419.068C888.874 418.875 888.456 418.721 888.091 418.496C887.615 418.206 887.573 417.886 887.936 417.481C888.093 417.302 888.285 417.152 888.504 417.039C889.591 416.518 890.673 415.996 891.787 415.522C893.27 414.904 894.749 415.056 896.138 415.774C897.288 416.37 898.408 417.013 899.497 417.705C900.753 418.507 901.494 419.635 901.538 421.061C901.64 423.863 901.682 426.669 901.754 429.948Z" fill="white"/>
<path d="M993.971 440.19C993.971 441.624 993.161 442.661 991.661 443.127C990.43 443.509 989.172 443.424 987.926 443.247C984.349 442.725 980.736 442.444 977.116 442.403C973.304 442.374 969.491 442.348 965.683 442.464C962.353 442.565 959.027 442.859 955.7 443.076C952.939 443.266 950.194 443.608 947.478 444.102C946.532 444.276 945.832 443.992 945.274 443.28C943.33 440.799 941.745 438.149 940.723 435.235C940.606 434.9 940.315 434.517 940.665 434.173C941.043 433.791 941.501 434.063 941.9 434.173C944.556 434.905 947.313 435.285 950.086 435.301C954.815 435.373 959.544 435.376 964.257 435.287C968.443 435.209 972.626 435.035 976.807 434.766C979.785 434.571 982.76 434.232 985.697 433.784C988.858 433.3 990.946 434.679 992.696 436.8C993.513 437.771 993.961 438.962 993.971 440.19V440.19Z" fill="white"/>
<defs>
<linearGradient id="paint0_linear_1844_2298" x1="6.44409" y1="376.841" x2="271.631" y2="376.841" gradientUnits="userSpaceOnUse">
<stop stop-color="#EDE3EB"/>
<stop offset="0.2" stop-color="#C7B0C2"/>
<stop offset="0.8585" stop-color="#949CD1"/>
<stop offset="1" stop-color="#597099"/>
</linearGradient>
<linearGradient id="paint1_linear_1844_2298" x1="229.881" y1="346.874" x2="406.042" y2="346.874" gradientUnits="userSpaceOnUse">
<stop stop-color="#EDE3EB"/>
<stop offset="0.2" stop-color="#C7B0C2"/>
<stop offset="0.8585" stop-color="#949CD1"/>
<stop offset="1" stop-color="#597099"/>
</linearGradient>
<linearGradient id="paint2_linear_1844_2298" x1="392.95" y1="346.874" x2="567.947" y2="346.874" gradientUnits="userSpaceOnUse">
<stop stop-color="#EDE3EB"/>
<stop offset="0.2" stop-color="#C7B0C2"/>
<stop offset="0.8585" stop-color="#949CD1"/>
<stop offset="1" stop-color="#597099"/>
</linearGradient>
<linearGradient id="paint3_linear_1844_2298" x1="580.748" y1="347.023" x2="704.686" y2="347.023" gradientUnits="userSpaceOnUse">
<stop stop-color="#EDE3EB"/>
<stop offset="0.2" stop-color="#C7B0C2"/>
<stop offset="0.8585" stop-color="#949CD1"/>
<stop offset="1" stop-color="#597099"/>
</linearGradient>
<linearGradient id="paint4_linear_1844_2298" x1="730.966" y1="381.376" x2="960.519" y2="381.376" gradientUnits="userSpaceOnUse">
<stop stop-color="#EDE3EB"/>
<stop offset="0.2" stop-color="#C7B0C2"/>
<stop offset="0.8585" stop-color="#949CD1"/>
<stop offset="1" stop-color="#597099"/>
</linearGradient>
<linearGradient id="paint5_linear_1844_2298" x1="962.117" y1="349.686" x2="1077.7" y2="349.686" gradientUnits="userSpaceOnUse">
<stop stop-color="#EDE3EB"/>
<stop offset="0.2" stop-color="#C7B0C2"/>
<stop offset="0.8585" stop-color="#949CD1"/>
<stop offset="1" stop-color="#597099"/>
</linearGradient>
<linearGradient id="paint6_linear_1844_2298" x1="1046.18" y1="349.685" x2="1163.76" y2="349.685" gradientUnits="userSpaceOnUse">
<stop stop-color="#EDE3EB"/>
<stop offset="0.2" stop-color="#C7B0C2"/>
<stop offset="0.8585" stop-color="#949CD1"/>
<stop offset="1" stop-color="#597099"/>
</linearGradient>
<linearGradient id="paint7_linear_1844_2298" x1="1151.84" y1="349.686" x2="1275.7" y2="349.686" gradientUnits="userSpaceOnUse">
<stop stop-color="#EDE3EB"/>
<stop offset="0.2" stop-color="#C7B0C2"/>
<stop offset="0.8585" stop-color="#949CD1"/>
<stop offset="1" stop-color="#597099"/>
</linearGradient>
<linearGradient id="paint8_linear_1844_2298" x1="1223.15" y1="460.456" x2="1427.29" y2="460.456" gradientUnits="userSpaceOnUse">
<stop stop-color="#EDE3EB"/>
<stop offset="0.2" stop-color="#C7B0C2"/>
<stop offset="0.8585" stop-color="#949CD1"/>
<stop offset="1" stop-color="#597099"/>
</linearGradient>
</defs>
</svg>
