<?xml version="1.0" standalone="no"?>
<!DOCTYPE svg PUBLIC "-//W3C//DTD SVG 20010904//EN"
 "http://www.w3.org/TR/2001/REC-SVG-20010904/DTD/svg10.dtd">
<svg version="1.0" xmlns="http://www.w3.org/2000/svg"
 width="700.000000pt" height="700.000000pt" viewBox="0 0 700.000000 700.000000"
 preserveAspectRatio="xMidYMid meet">
<metadata>
Created by potrace 1.14, written by Peter Selinger 2001-2017
</metadata>
<g transform="translate(0.000000,700.000000) scale(0.100000,-0.100000)"
fill="#000000" stroke="none">
<path d="M1207 6519 c-21 -5 -50 -15 -65 -23 -101 -53 -164 -266 -112 -382 49
-112 155 -159 445 -199 22 -3 54 -7 70 -10 17 -2 64 -7 105 -10 41 -4 89 -8
105 -10 17 -2 57 -6 90 -10 33 -3 75 -8 93 -11 17 -3 49 -7 70 -9 70 -9 209
-46 241 -66 17 -10 34 -26 37 -34 9 -23 -4 -62 -28 -85 -26 -23 -155 -88 -303
-150 -55 -23 -118 -51 -140 -61 -22 -10 -121 -54 -220 -97 -648 -286 -853
-400 -1015 -562 -80 -80 -131 -166 -146 -245 -19 -103 -6 -163 47 -214 63 -62
171 -106 464 -189 132 -38 203 -57 485 -133 279 -74 664 -169 765 -189 61 -12
130 -25 155 -30 25 -5 81 -8 125 -7 68 2 87 6 128 30 85 50 147 183 143 307
-3 78 -27 131 -85 183 -73 66 -137 88 -346 121 -130 21 -165 26 -210 32 -22 2
-56 7 -76 9 -20 3 -52 8 -70 10 -132 17 -232 33 -359 57 -58 10 -116 21 -130
24 -86 16 -160 46 -184 75 -41 49 -19 95 80 166 48 35 436 235 574 296 660
292 878 396 996 473 163 107 223 187 230 306 5 86 -10 125 -67 170 -40 33
-112 59 -344 124 -149 43 -237 67 -475 130 -148 39 -569 145 -599 150 -14 3
-66 14 -116 25 -186 42 -290 53 -358 38z"/>
<path d="M4617 6204 c-80 -20 -147 -60 -257 -153 -274 -230 -456 -486 -559
-789 -22 -64 -42 -128 -45 -142 -2 -14 -11 -57 -20 -96 -25 -118 -31 -190 -31
-394 0 -190 4 -252 24 -375 6 -33 13 -78 16 -100 11 -69 73 -318 91 -365 41
-104 109 -152 213 -151 79 0 165 35 202 81 32 39 40 82 28 144 -5 22 -10 50
-12 61 -29 149 -39 217 -33 241 17 68 152 150 356 218 85 28 255 74 340 91 80
16 234 44 270 49 25 3 54 8 65 10 120 23 315 24 373 1 67 -27 75 -54 96 -314
12 -146 34 -192 105 -224 83 -37 221 -19 298 39 20 15 39 44 53 81 20 53 22
71 17 193 -3 74 -13 176 -22 225 -10 50 -18 99 -20 110 -17 110 -70 306 -120
441 -51 135 -142 310 -223 424 -67 96 -243 281 -317 336 -22 16 -42 31 -45 34
-72 73 -414 254 -595 315 -63 21 -185 26 -248 9z m293 -538 c144 -52 343 -159
402 -215 9 -9 33 -29 53 -46 77 -63 165 -215 165 -284 0 -33 -27 -60 -66 -66
-16 -3 -42 -7 -59 -10 -16 -2 -48 -7 -70 -10 -22 -3 -51 -8 -65 -10 -14 -3
-43 -7 -65 -10 -22 -4 -67 -11 -100 -17 -33 -5 -73 -12 -90 -15 -132 -21 -339
-81 -570 -168 -196 -73 -243 -81 -277 -48 -42 42 -29 191 30 338 66 167 277
432 423 532 85 59 182 68 289 29z"/>
<path d="M1157 3459 c-70 -11 -131 -44 -183 -102 -41 -46 -114 -181 -149 -275
-69 -188 -98 -279 -134 -405 -23 -80 -44 -154 -46 -164 -1 -10 -11 -47 -20
-83 -9 -36 -19 -76 -22 -90 -2 -13 -13 -63 -24 -110 -29 -124 -97 -448 -103
-495 -3 -22 -10 -76 -16 -120 -24 -188 -15 -311 30 -387 44 -75 167 -131 290
-132 110 -1 180 52 219 165 19 54 26 116 36 359 5 120 13 237 20 305 13 130
18 169 31 255 57 371 103 529 161 551 64 24 118 -24 228 -203 124 -199 223
-419 380 -843 52 -143 102 -276 109 -295 166 -428 194 -485 275 -568 115 -117
350 -183 488 -136 128 44 197 157 292 479 53 177 136 509 155 618 3 15 7 35
10 45 5 17 80 379 91 437 2 17 7 41 10 55 16 83 22 122 40 253 3 23 8 60 11
81 11 71 6 185 -11 235 -37 113 -161 183 -315 177 -104 -4 -173 -55 -210 -153
-26 -70 -29 -105 -35 -438 -3 -154 -7 -296 -9 -315 -2 -19 -7 -75 -11 -125 -4
-49 -9 -99 -11 -110 -1 -11 -8 -58 -14 -105 -27 -206 -74 -434 -96 -468 -14
-21 -21 -24 -56 -19 -23 3 -49 14 -59 24 -10 10 -81 173 -157 363 -352 873
-627 1422 -806 1604 -92 94 -264 153 -389 135z"/>
<path d="M4654 3277 c-70 -34 -109 -76 -207 -224 -116 -175 -178 -283 -299
-523 -117 -229 -177 -372 -283 -665 -138 -383 -165 -481 -159 -570 9 -109 68
-163 267 -244 113 -46 879 -333 937 -351 14 -5 77 -27 140 -50 307 -112 550
-191 600 -196 31 -4 74 -1 96 5 125 34 229 235 189 367 -25 83 -71 123 -200
174 -46 18 -222 64 -580 150 -178 43 -443 120 -605 175 -324 111 -350 145
-280 357 40 118 85 206 130 249 60 58 127 62 259 12 36 -13 89 -33 116 -43
100 -36 313 -123 576 -236 292 -125 329 -134 404 -98 92 43 153 216 102 285
-27 36 -109 87 -197 123 -52 21 -104 42 -115 47 -52 21 -293 104 -515 177
-285 93 -367 125 -386 149 -53 70 78 322 200 385 47 24 136 32 192 17 130 -36
482 -188 820 -357 284 -140 333 -161 401 -166 104 -9 180 40 235 151 26 53 32
78 32 132 1 109 -51 177 -186 243 -66 32 -278 118 -290 118 -5 0 -27 9 -51 19
-58 27 -875 320 -1017 366 -156 50 -254 56 -326 22z"/>
</g>
</svg>
